<?xml version="1.0" encoding="UTF-8"?>
<svg id="Capa_1" xmlns="http://www.w3.org/2000/svg" version="1.1" viewBox="0 0 612 511.1">
  <!-- Generator: Adobe Illustrator 29.6.1, SVG Export Plug-In . SVG Version: 2.1.1 Build 9)  -->
  <defs>
    <style>
      .st0, .st1 {
        fill: #fff;
      }

      .st1, .st2, .st3 {
        fill-rule: evenodd;
      }

      .st2, .st4 {
        fill: #0063af;
      }

      .st5, .st3 {
        fill: #e73439;
      }
    </style>
  </defs>
  <rect class="st0" x="310.5" y="223.7" width="14.6" height="14.4"/>
  <rect class="st0" x="310.9" y="244.2" width="13.9" height="62"/>
  <path class="st0" d="M360,255.8c11.4,0,11.4,4.8,11.4,6.8v27.9c-3.2,1.2-6.7,1.8-10.4,1.8-7,0-13.9-1.3-13.9-17.5s8.7-19,12.9-19ZM360,243.2c-17,0-26.8,11.5-26.8,31.6s10.1,30.3,27.7,30.3,6.9-.4,10.4-1.2v3.3c0,3.6,0,9-14.6,9s-10.7-.9-16.1-2.5l-1.9-.6v13.4l1.1.3c5.9,1.7,11.8,2.5,17.9,2.5,23.8,0,27.4-13.9,27.4-22.2v-43.8c0-12.4-9.6-20.2-25.1-20.2h0Z"/>
  <path class="st0" d="M433.9,280.7c0,9.9-3.6,14-12.6,14s-12.7-4.1-12.7-14v-36.5h-13.7v35.7c0,17.1,9.9,27.4,26.4,27.4s26.4-10.2,26.4-27.4v-35.7h-13.9v36.5h.1Z"/>
  <path class="st0" d="M482.8,294.6c-12.7,0-12.7-6.4-12.7-8.6,0-6.7,10.5-8.4,16-8.4s6.3.2,8.8.5v8.3c0,3.5-1.3,8.2-12.1,8.2h0ZM481.6,243.3c-6.4,0-12.6,1.1-18.4,3.3l-1,.4v12.3l2-.7c5.6-1.9,10.8-2.9,15.8-2.9,9.8,0,13.8,2.9,14.7,10.8-2.9-.3-5.9-.5-9.1-.5-18.3,0-29.3,7.5-29.3,20.2s1.9,21,26.4,21,26-15.8,26-20.6v-17c0-16.6-9.9-26.2-27.1-26.2h0Z"/>
  <rect class="st0" x="518.8" y="221.8" width="13.9" height="84.4"/>
  <path class="st0" d="M567.2,294.6c-12.7,0-12.7-6.4-12.7-8.6,0-6.7,10.5-8.4,16-8.4s6.3.2,8.8.5v8.3c0,3.5-1.3,8.2-12.1,8.2ZM566,243.3c-6.5,0-12.5,1.1-18.4,3.3l-1,.4v12.3l2-.7c5.6-1.9,10.8-2.9,15.8-2.9,9.8,0,13.8,2.9,14.7,10.8-2.9-.3-5.9-.5-9.1-.5-18.3,0-29.3,7.5-29.3,20.2s1.9,21,26.4,21,26-15.8,26-20.6v-17c0-16.6-9.9-26.2-27.1-26.2h0Z"/>
  <rect class="st5" x="99.8" y="480.8" width="423.7" height="19.1"/>
  <rect class="st4" x="99.8" y="480.8" width="192.8" height="19.1"/>
  <path class="st2" d="M59.3,397.3c-1.8,1-3.9,1.9-6.4,2.7-2.5.8-5.2,1.2-8,1.3-3.9,0-6.8-1.3-8.9-3.9-2.1-2.7-3.1-7-3.2-12.9,0-5.9,1.1-10.2,3.2-12.9,2.1-2.7,5-4,8.7-4s4.7.2,7,.8c2.3.5,4.4,1.3,6.3,2.5l3.7-9.6c-5.1-2.9-11.1-4.3-18.1-4.3s-14,2.5-18.4,7.3-6.6,11.5-6.7,20.2c0,9.3,2.3,16.2,6.7,20.7,4.4,4.5,10.6,6.8,18.5,6.8s7.7-.7,10.9-1.7c3.2-1,5.6-2,7.2-2.9l-2.6-10h0Z"/>
  <path class="st2" d="M93.7,401.6c-3.5,0-6-1.3-7.7-4s-2.5-7.2-2.5-13.3.9-10.7,2.7-13.3c1.8-2.6,4.3-3.9,7.6-3.8,3.3,0,5.9,1.2,7.7,3.8,1.8,2.6,2.7,7.1,2.7,13.4s-.9,10.7-2.6,13.4c-1.7,2.7-4.3,4-7.8,3.9h0ZM93.7,356.9c-8.1.2-14.3,2.8-18.5,7.9-4.2,5.1-6.3,11.6-6.3,19.5s2.2,16,6.5,20.6c4.3,4.7,10.4,7,18.4,7s14-2.4,18.3-7.1c4.3-4.7,6.5-11.5,6.5-20.6s-2.2-14.5-6.4-19.5c-4.2-5.1-10.4-7.7-18.4-7.9h0Z"/>
  <path class="st2" d="M177.7,410.9v-32.7c0-6.7-1.4-12-4.3-15.7-2.9-3.7-7.7-5.6-14.4-5.6s-7.4.8-10.2,2.2-5,3-6.5,4.9l-2.2-6h-9.7v52.9h14.1v-39.9c1.2-.8,2.6-1.6,4.2-2.2,1.6-.6,3.3-1,5.1-1,3.2,0,5.6,1,7.2,2.9,1.6,1.9,2.3,4.9,2.3,8.9v31.4h14.4,0Z"/>
  <path class="st2" d="M230.8,397.3c-1.8,1-3.9,1.9-6.4,2.7-2.5.8-5.2,1.2-8,1.3-3.9,0-6.8-1.3-8.9-3.9-2.1-2.7-3.1-7-3.2-12.9,0-5.9,1.1-10.2,3.2-12.9,2.1-2.7,5-4,8.7-4s4.7.2,7,.8c2.3.5,4.4,1.3,6.3,2.5l3.7-9.6c-5.1-2.9-11.1-4.3-18.1-4.3s-14,2.5-18.4,7.3-6.6,11.5-6.7,20.2c0,9.3,2.3,16.2,6.7,20.7s10.6,6.8,18.5,6.8,7.7-.7,10.9-1.7,5.6-2,7.2-2.9l-2.6-10h.1Z"/>
  <path class="st2" d="M247.4,349.3h14.2v-12.8h-14.2v12.8h0ZM261.9,410.9v-52.9h-20.2v8.9l6.2,1.3v42.8h14Z"/>
  <path class="st2" d="M291.9,412c1.9,0,3.7-.2,5.3-.4,1.6-.3,2.4-.4,2.5-.4v-9.9c-2.9,0-5.1-.2-6.5-.9-1.4-.7-2.1-2.1-2.1-4.2v-59.7h-13.9v60.5c0,4.7,1,8.4,3.3,11.1,2.3,2.6,6.1,4,11.4,4h0Z"/>
  <path class="st2" d="M314.5,349.3h14.2v-12.8h-14.2v12.8ZM329,410.9v-52.9h-20.2v8.9l6.2,1.3v42.8h14Z"/>
  <path class="st2" d="M372.8,398.8c-1.3,1.1-2.8,1.9-4.4,2.6s-3.3,1-5,1c-2.6,0-4.6-.7-5.9-2.1s-2-3.3-2-5.7.7-3.7,2.1-4.9c1.4-1.2,3.5-1.9,6.5-1.9h8.8v11h-.1ZM386.4,410.9v-33.6c0-6.8-1.7-11.8-5.1-15.3-3.5-3.4-8.9-5.1-16.4-5.1s-8,.5-11.6,1.3c-3.5.8-6.6,1.8-9.3,3l3.6,10c2.2-1,4.6-1.8,7.2-2.5s5.5-1,8.7-1.1c2.8,0,5,.6,6.7,1.9,1.7,1.3,2.6,3.7,2.6,7v2.7h-11.1c-6.4,0-11.3,1.4-14.8,4.1-3.4,2.7-5.2,6.6-5.2,11.5s1.7,9.2,4.9,12.3c3.2,3,7.5,4.6,12.8,4.7,3.7,0,6.9-.8,9.5-2.3s4.6-3.1,5.9-5l1.9,6.3h9.7Z"/>
  <path class="st2" d="M439.4,397.3c-1.8,1-3.9,1.9-6.4,2.7-2.5.8-5.2,1.2-8,1.3-3.9,0-6.8-1.3-8.9-3.9-2.1-2.7-3.1-7-3.2-12.9,0-5.9,1.1-10.2,3.2-12.9s5-4,8.7-4,4.7.2,7,.8c2.3.5,4.4,1.3,6.3,2.5l3.7-9.6c-5.1-2.9-11.1-4.3-18.1-4.3s-14,2.5-18.4,7.3-6.6,11.5-6.7,20.2c0,9.3,2.3,16.2,6.7,20.7,4.4,4.5,10.6,6.8,18.5,6.8s7.7-.7,10.9-1.7c3.2-1,5.6-2,7.2-2.9l-2.6-10h0Z"/>
  <path class="st2" d="M456.1,349.3h14.2v-12.8h-14.2v12.8ZM470.5,410.9v-52.9h-20.2v8.9l6.2,1.3v42.8h14Z"/>
  <path class="st2" d="M523.1,344.4l-1.8-10.4-27.3,7.7,1.4,8.1,27.8-5.4h-.1ZM508.4,401.6c-3.5,0-6-1.3-7.7-4s-2.5-7.2-2.5-13.3.9-10.7,2.7-13.3c1.8-2.6,4.3-3.9,7.6-3.8,3.3,0,5.9,1.2,7.7,3.8s2.7,7.1,2.7,13.4-.9,10.7-2.6,13.4c-1.7,2.7-4.3,4-7.8,3.9h-.1ZM508.4,356.9c-8.1.2-14.3,2.8-18.5,7.9-4.2,5.1-6.3,11.6-6.3,19.5s2.2,16,6.5,20.6c4.3,4.7,10.4,7,18.4,7s14-2.4,18.3-7.1,6.5-11.5,6.5-20.6-2.2-14.5-6.4-19.5c-4.2-5.1-10.4-7.7-18.4-7.9h0Z"/>
  <path class="st2" d="M592.4,410.9v-32.7c0-6.7-1.4-12-4.3-15.7-2.9-3.7-7.7-5.6-14.4-5.6s-7.4.8-10.2,2.2-5,3-6.5,4.9l-2.2-6h-9.7v52.9h14.1v-39.9c1.2-.8,2.6-1.6,4.2-2.2,1.6-.6,3.3-1,5.1-1,3.2,0,5.6,1,7.2,2.9,1.6,1.9,2.3,4.9,2.3,8.9v31.4h14.4Z"/>
  <polygon class="st1" points="39.9 436.3 36.8 436.3 30.3 458.9 30.1 458.9 23.7 436.3 20.5 436.3 27.8 461.5 32.5 461.5 39.9 436.3"/>
  <rect class="st0" x="43.7" y="436.3" width="2.9" height="25.2"/>
  <path class="st1" d="M67.7,448.6c0,3.9-.6,6.7-1.9,8.3-1.2,1.7-3,2.5-5.2,2.5s-2.2,0-3.1-.2c-.9-.2-1.7-.3-2.3-.5v-20.1h4c2.9,0,5.1.7,6.4,2.3,1.3,1.6,2,4.1,2,7.7h0ZM70.8,448.7c0-3.1-.5-5.5-1.4-7.3s-2.2-3.1-3.8-3.9c-1.7-.8-3.7-1.1-6-1.1h-7.1v24.3c1,.3,2.2.6,3.6.9,1.4.3,2.9.4,4.6.4,3.3,0,5.8-1.2,7.6-3.5,1.7-2.3,2.6-5.5,2.6-9.7h0Z"/>
  <path class="st1" d="M83.7,438.8l3.3,13.8h-9.2l3.7-13.8h2.2ZM77.2,455.1h10.3l1.5,6.4h3.1l-6.4-25.2h-6.2l-6.9,25.2h2.8l1.6-6.4h.2Z"/>
  <polygon class="st1" points="118.1 461.5 118.1 459.1 107 459.1 107 436.3 104.2 436.3 104.2 461.5 118.1 461.5"/>
  <path class="st1" d="M130.2,438.8l3.3,13.8h-9.2l3.7-13.8h2.2ZM123.7,455.1h10.3l1.5,6.4h3.1l-6.4-25.2h-6.2l-6.9,25.2h2.8l1.6-6.4h.2Z"/>
  <path class="st1" d="M154.9,454.5c0,1.6-.6,2.9-1.6,3.7-1,.9-2.4,1.3-4,1.3s-1.9,0-2.6-.2c-.7-.2-1.3-.3-1.8-.5v-8.9h4c2.2,0,3.7.4,4.7,1.3,1,.8,1.5,1.9,1.4,3.4h0ZM153.5,442.6c0,1.6-.4,2.8-1.2,3.6-.8.9-2.1,1.3-3.9,1.3h-3.7v-8.9h3.7c1.6,0,2.8.3,3.7,1s1.3,1.6,1.3,3h0ZM157.9,454.5c0-1.6-.6-2.9-1.6-3.9s-2.3-1.7-3.9-2h0c1.2-.4,2.1-1.1,2.9-2.1.8-1,1.2-2.4,1.2-4.1s-.7-3.3-2.1-4.4c-1.4-1.1-3.4-1.7-6-1.7h-6.5v24.2c.9.4,1.9.7,3,.9,1.1.2,2.6.4,4.3.4,2.5,0,4.5-.7,6.1-2s2.4-3.1,2.5-5.4h.1Z"/>
  <path class="st1" d="M177.8,448.7c0,1.9-.2,3.7-.6,5.3-.4,1.6-1.1,2.9-2.1,3.9s-2.4,1.5-4.2,1.6c-1.8,0-3.3-.6-4.3-1.6s-1.7-2.4-2.1-4c-.4-1.6-.6-3.4-.5-5.2,0-1.7.2-3.3.6-4.9.4-1.6,1.1-2.8,2.1-3.8s2.4-1.5,4.1-1.5,3.2.5,4.2,1.5,1.7,2.3,2.1,3.8c.4,1.6.6,3.2.6,4.9h0ZM180.8,448.7c0-2.3-.3-4.4-.9-6.3-.6-1.9-1.6-3.5-3.1-4.6-1.5-1.2-3.4-1.8-5.9-1.8s-4.4.6-5.8,1.8c-1.4,1.2-2.5,2.7-3.1,4.7-.6,1.9-.9,4-.9,6.3s.3,4.6.9,6.6c.6,2,1.7,3.6,3.1,4.8,1.4,1.2,3.4,1.8,5.8,1.8s4.3-.7,5.8-1.9c1.5-1.2,2.5-2.9,3.2-4.9.6-2,1-4.1,1-6.4h-.1Z"/>
  <path class="st1" d="M197.9,443.6c0,1.8-.6,3.1-1.7,4-1.1.9-2.6,1.3-4.5,1.3h-3.5v-10.3h3.5c1.9,0,3.5.3,4.5,1.1,1.1.8,1.6,2,1.7,3.9ZM191.6,451.3h1.4l5.1,10.3h3.4l-5.7-10.8c1.5-.6,2.8-1.5,3.7-2.7s1.4-2.7,1.4-4.5-.4-3.1-1.2-4.2-1.8-1.8-3.2-2.3c-1.3-.5-2.8-.7-4.5-.7h-6.7v25.2h2.8v-10.2h3.5Z"/>
  <path class="st1" d="M213.5,438.8l3.3,13.8h-9.2l3.7-13.8h2.2ZM207.1,455.1h10.3l1.5,6.4h3.1l-6.4-25.2h-6.2l-6.9,25.2h2.8l1.6-6.4h.2Z"/>
  <polygon class="st1" points="239.7 461.5 239.7 459.1 228.6 459.1 228.6 436.3 225.7 436.3 225.7 461.5 239.7 461.5"/>
  <path class="st1" d="M242.1,461.3l.9.2c0,1.2,0,2-.2,2.5-.1.5-.4.8-.7.9v1.1c.9-.1,1.6-.5,2.1-1.1s.7-1.7.7-3.3v-4.2h-2.8v4h0Z"/>
  <polygon class="st1" points="271.6 438.8 271.6 436.3 257.7 436.3 257.7 461.5 260.5 461.5 260.5 450.7 268.9 450.7 269.3 448.2 260.5 448.2 260.5 438.8 271.6 438.8"/>
  <path class="st1" d="M282.4,438.8l3.3,13.8h-9.2l3.7-13.8h2.2ZM276,455.1h10.3l1.5,6.4h3.1l-6.4-25.2h-6.2l-6.9,25.2h2.8l1.6-6.4h.2Z"/>
  <path class="st1" d="M319.2,461.5l-1-25.2h-4.7s-.2.7-.6,1.9c-.4,1.2-.9,2.8-1.5,4.8-.6,1.9-1.2,3.9-1.9,6-.6,2.1-1.2,4-1.7,5.7s-.9,3-1.1,3.9h0c-.2-.8-.5-2.1-1-3.9-.5-1.7-1-3.6-1.6-5.7s-1.2-4.1-1.8-6c-.6-1.9-1.1-3.5-1.4-4.8-.4-1.2-.6-1.9-.6-1.9h-5l-1,25.2h2.7l.7-22.4h.1c.1.4.3,1,.5,1.8s.5,1.5.7,2.2.4,1.2.5,1.5l5.1,16.9h3.6l5.4-16.8c.2-.6.5-1.5.8-2.6s.6-2.1.9-3h.1l.7,22.4h3.1,0Z"/>
  <rect class="st0" x="325.3" y="436.3" width="2.9" height="25.2"/>
  <polygon class="st1" points="348.6 461.5 348.6 459.1 337.5 459.1 337.5 436.3 334.6 436.3 334.6 461.5 348.6 461.5"/>
  <rect class="st0" x="352.5" y="436.3" width="2.9" height="25.2"/>
  <path class="st1" d="M370.4,438.8l3.3,13.8h-9.2l3.7-13.8h2.2ZM364,455.1h10.3l1.5,6.4h3.1l-6.4-25.2h-6.2l-6.9,25.2h2.8l1.6-6.4h.2Z"/>
  <path class="st1" d="M394.7,443.6c0,1.8-.6,3.1-1.7,4s-2.6,1.3-4.5,1.3h-3.5v-10.3h3.5c1.9,0,3.5.3,4.5,1.1,1.1.8,1.6,2,1.7,3.9ZM388.5,451.3h1.4l5.1,10.3h3.4l-5.7-10.8c1.5-.6,2.8-1.5,3.7-2.7.9-1.2,1.4-2.7,1.4-4.5s-.4-3.1-1.2-4.2c-.8-1.1-1.8-1.8-3.2-2.3-1.3-.5-2.8-.7-4.5-.7h-6.7v25.2h2.8v-10.2h3.5Z"/>
  <polygon class="st1" points="425.7 436.3 422.6 436.3 416.8 448.5 416.7 448.5 411.4 436.3 407.9 436.3 414.9 451.6 414.9 461.5 417.8 461.5 417.8 451.7 425.7 436.3"/>
  <path class="st1" d="M449.4,443.9c0,1.9-.6,3.3-1.6,4.2-1.1.9-2.6,1.4-4.5,1.4h-3.6v-10.8h3.6c1.8,0,3.3.4,4.4,1.2,1.1.8,1.7,2.1,1.7,3.9h0ZM452.4,443.8c0-1.7-.4-3.1-1.2-4.2-.8-1.1-1.9-1.9-3.3-2.5-1.4-.5-2.9-.8-4.5-.8h-6.6v25.2h2.8v-9.6h3.8c2.6,0,4.8-.7,6.5-2.1s2.5-3.4,2.6-6h0Z"/>
  <polygon class="st1" points="469.8 461.5 469.8 459.1 458.8 459.1 458.8 450 467.1 450 467.5 447.5 458.8 447.5 458.8 438.8 469.8 438.8 469.8 436.3 455.9 436.3 455.9 461.5 469.8 461.5"/>
  <path class="st1" d="M486.6,443.6c0,1.8-.6,3.1-1.7,4s-2.6,1.3-4.5,1.3h-3.5v-10.3h3.5c1.9,0,3.5.3,4.5,1.1,1.1.8,1.6,2,1.7,3.9ZM480.3,451.3h1.4l5.1,10.3h3.4l-5.7-10.8c1.5-.6,2.8-1.5,3.7-2.7.9-1.2,1.4-2.7,1.4-4.5s-.4-3.1-1.2-4.2c-.8-1.1-1.8-1.8-3.2-2.3-1.3-.5-2.8-.7-4.5-.7h-6.7v25.2h2.8v-10.2h3.5Z"/>
  <path class="st1" d="M508.7,454.6c0-1.7-.5-3-1.3-4s-1.9-1.8-3.1-2.3c-1.2-.6-2.5-1.1-3.7-1.6s-2.3-1-3.1-1.7c-.8-.7-1.3-1.6-1.3-2.7s.4-1.9,1.2-2.7c.8-.7,2.1-1.1,3.9-1.2,1.3,0,2.6.2,3.6.5,1.1.3,1.9.7,2.5,1.1l1-2.3c-.8-.5-1.8-.9-3-1.3s-2.6-.5-4.2-.6c-2.6,0-4.6.7-5.9,1.9-1.4,1.2-2,2.7-2.1,4.5,0,1.7.5,3,1.3,3.9s1.9,1.7,3.1,2.2,2.5,1.1,3.7,1.5c1.2.5,2.3,1.1,3.1,1.8.8.7,1.3,1.7,1.3,3s-.5,2.6-1.4,3.4-2.2,1.3-3.8,1.3-2.4-.3-3.6-.7c-1.2-.5-2.2-1-3-1.7l-1.2,2.3c1,.8,2.2,1.4,3.5,1.8,1.3.5,2.7.7,4.2.7,2.6,0,4.7-.8,6.1-2.1,1.5-1.4,2.2-3.1,2.2-5.1h0Z"/>
  <path class="st1" d="M528.9,448.7c0,1.9-.2,3.7-.6,5.3-.4,1.6-1.1,2.9-2.1,3.9s-2.4,1.5-4.2,1.6c-1.8,0-3.3-.6-4.3-1.6s-1.7-2.4-2.1-4c-.4-1.6-.6-3.4-.5-5.2,0-1.7.2-3.3.6-4.9.4-1.6,1.1-2.8,2.1-3.8s2.4-1.5,4.1-1.5,3.2.5,4.2,1.5,1.7,2.3,2.1,3.8c.4,1.6.6,3.2.6,4.9h.1ZM531.9,448.7c0-2.3-.3-4.4-.9-6.3-.6-1.9-1.6-3.5-3.1-4.6-1.5-1.2-3.4-1.8-5.9-1.8s-4.4.6-5.8,1.8c-1.4,1.2-2.5,2.7-3.1,4.7-.6,1.9-.9,4-.9,6.3s.3,4.6.9,6.6c.6,2,1.7,3.6,3.1,4.8,1.4,1.2,3.4,1.8,5.8,1.8s4.3-.7,5.8-1.9c1.5-1.2,2.5-2.9,3.2-4.9.6-2,1-4.1,1-6.4h0Z"/>
  <polygon class="st1" points="553.8 461.5 553.8 436.3 550.9 436.3 551.1 458.8 550.9 458.8 541.2 436.3 536.5 436.3 536.5 461.5 539.2 461.5 539.1 439.1 539.3 439.1 548.8 461.5 553.8 461.5"/>
  <path class="st1" d="M567.9,438.8l3.3,13.8h-9.2l3.7-13.8h2.2ZM561.4,455.1h10.3l1.5,6.4h3.1l-6.4-25.2h-6.2l-6.9,25.2h2.8l1.6-6.4h.2Z"/>
  <polygon class="st1" points="594 461.5 594 459.1 583 459.1 583 436.3 580.1 436.3 580.1 461.5 594 461.5"/>
  <path class="st4" d="M105.3,172.5c0,18.9-15.4,34.3-34.3,34.3s-34.3-15.4-34.3-34.3,15.4-34.3,34.3-34.3,34.3,15.3,34.3,34.3Z"/>
  <path class="st5" d="M250.5,150.2c-33.7-12.8-38.4-13.1-48.3-12.8h0c-18.4.7-33.2,15.7-33.2,34.3s15.4,34.3,34.3,34.3,25.2-7.8,30.8-19.2h.1c67.7,5.5,76.6-50.8,76.6-50.8,0,0-20.9,29.2-60.4,14.1h0Z"/>
  <path class="st2" d="M27.4,311.5c-24.6-52.1,2.5-93.8,42.6-93.8s68.2,44.2,42.3,93.8H27.4Z"/>
  <path class="st3" d="M161.2,311.8c-24.6-52.1,2.5-93.8,42.6-93.8s68.2,44.2,42.3,93.8h-84.9,0Z"/>
  <path class="st1" d="M347,231.1c0-1.3-.4-2.4-1-3.2-.7-.8-1.5-1.4-2.5-1.9s-2-.9-2.9-1.2c-1-.4-1.8-.8-2.5-1.3s-1-1.2-1-2.1.3-1.5,1-2.1c.6-.6,1.7-.9,3.1-.9s2,.2,2.9.4c.9.3,1.5.5,2,.8l.8-1.8c-.6-.4-1.4-.7-2.4-1s-2.1-.4-3.3-.4c-2.1,0-3.6.5-4.7,1.5s-1.6,2.1-1.6,3.5.4,2.3,1,3.1c.7.7,1.5,1.3,2.5,1.8,1,.4,2,.8,2.9,1.2,1,.4,1.8.8,2.5,1.4s1,1.4,1,2.4-.4,2.1-1.1,2.7c-.7.7-1.7,1-3,1s-1.9-.2-2.9-.6-1.7-.8-2.4-1.3l-.9,1.8c.8.6,1.7,1.1,2.8,1.5,1,.4,2.1.6,3.3.6,2.1,0,3.7-.6,4.9-1.7,1.2-1.1,1.7-2.4,1.8-4l-.3-.2Z"/>
  <polygon class="st1" points="361.3 236.5 361.3 234.6 352.6 234.6 352.6 227.4 359.2 227.4 359.5 225.4 352.6 225.4 352.6 218.6 361.3 218.6 361.3 216.6 350.3 216.6 350.3 236.5 361.3 236.5"/>
  <polygon class="st1" points="376 236.5 376 234.6 367.3 234.6 367.3 216.6 365 216.6 365 236.5 376 236.5"/>
  <polygon class="st1" points="389.8 236.5 389.8 234.6 381.1 234.6 381.1 216.6 378.8 216.6 378.8 236.5 389.8 236.5"/>
  <path class="st1" d="M403.8,226.4c0,1.5-.1,2.9-.5,4.2-.3,1.3-.9,2.3-1.7,3.1-.8.8-1.9,1.2-3.3,1.2s-2.6-.4-3.4-1.3c-.8-.8-1.3-1.9-1.6-3.2-.3-1.3-.4-2.7-.4-4.1s.1-2.7.5-3.9c.3-1.2.9-2.2,1.7-3,.8-.8,1.9-1.2,3.3-1.2s2.5.4,3.3,1.2c.8.8,1.4,1.8,1.7,3,.3,1.2.5,2.5.5,3.9h-.1ZM406.2,226.4c0-1.8-.2-3.5-.7-5s-1.3-2.7-2.5-3.7c-1.2-.9-2.7-1.4-4.7-1.4s-3.5.5-4.6,1.4-2,2.2-2.5,3.7-.7,3.2-.7,5,.2,3.6.7,5.2,1.3,2.8,2.5,3.8c1.1.9,2.7,1.4,4.6,1.5,1.9,0,3.4-.5,4.6-1.5s2-2.3,2.5-3.8c.5-1.6.8-3.3.8-5.1h0Z"/>
</svg>