<?xml version="1.0" encoding="utf-8"?>
<!-- Generator: Adobe Illustrator 25.0.0, SVG Export Plug-In . SVG Version: 6.00 Build 0)  -->
<svg version="1.1" id="Capa_1" xmlns="http://www.w3.org/2000/svg" xmlns:xlink="http://www.w3.org/1999/xlink" x="0px" y="0px"
	 viewBox="0 0 379.08 120.23" style="enable-background:new 0 0 379.08 120.23;" xml:space="preserve">
<style type="text/css">
	.st0{fill:#DD0049;}
	.st1{fill:#FFFFFF;}
	.st2{fill:#ED8500;}
	.st3{fill:#FF6B00;}
	.st4{fill:#004E9B;}
	.st5{fill:#00519F;}
	.st6{fill:#2C3C43;}
</style>
<path class="st0" d="M11.69,55.27l23.92-10.39v-7.69l0.01,0c7.69-1.19,13.87-4.83,19.23-10.74v0.01l23.93,19.53V21.54H11.69V55.27z"
	/>
<path class="st1" d="M35.64,77.45h19.21V26.45v-0.01C49.49,32.36,43.32,36,35.62,37.19l-0.01,0.01v7.69L11.69,55.27v7.5l23.93-10.49
	v-7.42l7.68-3.36v7.42l-7.66,3.35v7.32l7.67-3.35v7.34l-7.68,3.36v-7.32l-23.94,10.5v7.33l23.95-10.5V77.45z"/>
<polygon class="st2" points="35.63,59.6 35.64,59.6 35.64,52.28 35.62,52.29 35.62,52.28 11.69,62.77 11.69,70.11 35.63,59.62 "/>
<polygon class="st2" points="35.64,66.94 11.69,77.45 11.69,77.45 35.64,77.45 "/>
<polygon class="st2" points="35.64,52.28 43.3,48.93 43.3,41.54 35.62,44.89 35.62,52.29 35.64,52.27 "/>
<polygon class="st3" points="35.62,52.28 35.62,52.29 35.64,52.28 "/>
<polygon class="st2" points="35.63,59.62 35.63,66.94 43.31,63.58 43.31,56.25 35.64,59.6 35.64,59.61 "/>
<polygon class="st3" points="35.63,59.6 35.63,59.62 35.64,59.61 35.64,59.6 "/>
<polygon class="st2" points="54.88,77.45 78.78,77.45 78.78,45.99 54.85,26.45 "/>
<polygon class="st3" points="54.85,77.45 54.88,77.45 54.85,26.45 "/>
<rect x="11.69" y="88.62" class="st4" width="67.09" height="0.01"/>
<polygon class="st5" points="54.88,77.45 54.85,77.45 35.64,77.45 11.69,77.45 11.69,88.62 78.78,88.62 78.78,77.45 "/>
<path class="st6" d="M128.63,65.93c1.84,0,3.58-0.31,5.15-0.76l0.96-5.22c-1.46-0.66-3.3-0.97-5.34-0.97
	c-2.86,0-4.98,0.97-5.41,3.27C123.58,64.45,125.05,65.93,128.63,65.93 M140.96,54.74l-2.45,13.31c-3.13,1.39-7.58,2.42-11.7,2.42
	c-7.19,0-10.18-3.03-9.28-7.91c0.93-5.04,5.8-7.76,11.7-7.71c2.31,0,4.26,0.31,5.84,0.93l0.26-1.39c0.54-2.93-1.09-4.68-4.99-4.68
	c-2.93,0-5.61,1.13-7.18,2.16c-1.3-0.72-2.03-2.06-1.98-3.75c1.69-1.39,5.77-3.44,10.5-3.44C138.09,44.67,142.29,47.55,140.96,54.74
	"/>
<path class="st6" d="M293.42,65.93c1.84,0,3.58-0.31,5.15-0.76l0.96-5.22c-1.46-0.66-3.3-0.97-5.34-0.97
	c-2.86,0-4.99,0.97-5.41,3.27C288.37,64.45,289.84,65.93,293.42,65.93 M305.75,54.74l-2.45,13.31c-3.13,1.39-7.58,2.42-11.7,2.42
	c-7.19,0-10.18-3.03-9.28-7.91c0.93-5.04,5.8-7.76,11.69-7.71c2.31,0,4.26,0.31,5.84,0.93l0.25-1.39c0.54-2.93-1.09-4.68-4.99-4.68
	c-2.93,0-5.6,1.13-7.18,2.16c-1.3-0.72-2.03-2.06-1.98-3.75c1.69-1.39,5.77-3.44,10.5-3.44C302.88,44.67,307.08,47.55,305.75,54.74"
	/>
<path class="st6" d="M169.1,57.62c1.44-7.81,7.94-13,15.29-13c3.65,0,6.47,1.44,7.71,2.78c-0.71,1.64-2.19,3.23-3.9,4.16
	c-1.04-1.03-2.48-1.9-4.69-1.9c-4.78,0-7.71,3.65-8.5,7.91c-0.77,4.16,0.76,7.86,5.64,7.86c2.88,0,4.59-1.18,5.78-2.06
	c1.35,0.77,2.17,2.16,2.35,3.96c-1.88,1.54-5.25,3.13-9.11,3.13C171.92,70.47,167.61,65.74,169.1,57.62"/>
<path class="st6" d="M210.37,57.57c0.86-4.67-1.21-7.91-5.58-7.91c-4.37,0-7.64,3.24-8.5,7.91c-0.85,4.63,1.24,7.81,5.6,7.81
	C206.26,65.38,209.52,62.2,210.37,57.57 M190.43,57.57c1.39-7.55,7.88-12.95,15.38-12.95c7.5,0,11.81,5.34,10.41,12.95
	c-1.38,7.5-7.87,12.9-15.38,12.9C193.35,70.47,189.03,65.17,190.43,57.57"/>
<path class="st6" d="M240.77,67.44c0.8-1.85,2.04-3.24,3.41-4.01c1.3,1.08,3.2,2.42,7.06,2.42c3.45,0,4.91-1.28,5.22-2.93
	c0.3-1.65-0.91-2.57-5.16-3.24c-4.19-0.67-8.01-2.26-7.06-7.4c0.84-4.52,5.46-7.6,11.63-7.6c4.42,0,7.33,1.23,8.71,2.36
	c-0.59,1.8-1.62,3.24-2.98,4.16c-1.52-0.98-3.87-1.85-6.8-1.85c-3.09,0-4.6,0.98-4.89,2.52c-0.29,1.59,0.64,2.36,4.69,3.03
	c5.14,0.82,8.66,2.62,7.77,7.45c-0.94,5.09-5.41,8.17-12.09,8.17C244.83,70.52,241.94,68.61,240.77,67.44"/>
<path class="st6" d="M353.88,57.57c0.86-4.67-1.21-7.91-5.58-7.91c-4.37,0-7.64,3.24-8.5,7.91c-0.86,4.63,1.23,7.81,5.6,7.81
	C349.77,65.38,353.03,62.2,353.88,57.57 M333.94,57.57c1.39-7.55,7.88-12.95,15.38-12.95c7.5,0,11.81,5.34,10.41,12.95
	c-1.38,7.5-7.87,12.9-15.38,12.9C336.86,70.47,332.54,65.17,333.94,57.57"/>
<path class="st6" d="M324.27,64.61c-1.64,0.57-3.29,0.82-4.97,0.77c-4.42,0-6.9-2.98-6.02-7.76c0.87-4.73,4.67-7.76,8.98-7.76
	c1.75,0,3.31,0.2,4.53,1.08L324.27,64.61z M329.13,38.27l-1.34,7.23c-1.24-0.51-2.73-0.77-4.79-0.77c-7.3,0-14.18,4.98-15.65,13
	c-1.52,8.22,3.1,12.74,11.11,12.74c3.96,0,8.21-1.08,10.98-2.42l5.8-31.48L329.13,38.27z"/>
<path class="st6" d="M283.71,45.7h-9.1l1.17-6.34l-6.06,1.68l-3.9,21.15c-1.08,5.86,2.34,8.22,7.58,8.22c3.34,0,6.06-1.33,7.78-2.62
	c0.09-1.59-0.63-3.24-1.72-4.06c-0.9,0.72-2.61,1.65-4.36,1.65c-2.41,0-3.94-0.93-3.28-4.53l1.93-10.43h9.09
	c0.36-0.82,0.55-1.59,0.7-2.41C283.68,47.24,283.77,46.47,283.71,45.7"/>
<path class="st6" d="M244.48,36.71h-21.12l0,0.01h-2.08l1.16,3.73c0.06,0.18,0.09,0.38,0.09,0.59c0,0.1-0.01,0.2-0.02,0.29
	l-5.23,28.37h21.58c0.42-0.88,0.69-1.8,0.86-2.72c0.15-0.82,0.21-1.7,0.11-2.52h-15.77l1.66-9.05h13.62
	c0.38-0.92,0.63-1.75,0.79-2.62c0.16-0.87,0.22-1.75,0.18-2.62h-13.62l1.5-8.17h15.31c0.37-0.87,0.62-1.7,0.79-2.62
	C244.46,38.51,244.54,37.53,244.48,36.71"/>
<path class="st6" d="M157.83,44.62c-2.35,0-4.57,0.42-6.53,1.03c-0.15,0.05-0.32,0.08-0.49,0.08c-0.18,0-0.36-0.03-0.53-0.09v0
	l-4.08-1.22l-0.74,4.04l-0.01,0.01l-3.91,21.22c0.94,0.2,1.9,0.26,2.83,0.26c0.97,0,2.01-0.05,2.97-0.26l3.39-18.39
	c1.26-0.67,3.38-1.34,5.64-1.34c3.75,0,5.6,1.7,4.78,6.17l-2.51,13.56c0.99,0.2,1.91,0.26,2.88,0.26c0.92,0,1.96-0.05,2.97-0.26
	l2.76-14.96C168.3,49.14,165.69,44.62,157.83,44.62"/>
<path class="st6" d="M111.55,45.6c-0.57,3.08-2.59,4.83-6.9,4.83h-5.09l1.67-9.09c1.63-0.15,3.18-0.2,4.67-0.2
	C110.16,41.13,112.07,42.77,111.55,45.6 M110.13,60.24c-0.68,3.7-3.24,5.35-8.69,5.35c-1.8,0-3.32-0.1-4.63-0.26l1.85-10.02h5.55
	C108.62,55.31,110.74,56.95,110.13,60.24 M117.23,45.44c1.07-5.81-2.13-9.09-10.81-9.09c-0.07,0-0.13,0-0.2,0L94.04,36.3l1.34,3.97
	c0.06,0.2,0.1,0.41,0.1,0.62c0,0.14-0.01,0.28-0.04,0.42l-5.22,28.33c2.53,0.52,5.76,0.82,10.13,0.82c9.3,0,14.48-3.85,15.64-10.12
	c0.77-4.17-0.94-6.63-4.21-7.81C114.5,51.3,116.54,49.14,117.23,45.44"/>
<path class="st6" d="M230.94,92.55c-0.6,3.41-4.12,5.91-8.46,5.91c-4.34,0-6.99-2.61-6.27-6.7l1.41-8.02
	c0.72-4.08,4.29-6.67,8.63-6.67s6.98,2.5,6.39,5.88l-0.13,0.73c-0.09,0.5-0.54,0.91-1.07,0.91h-2.29c-0.53,0-0.79-0.35-0.7-0.88
	l0.08-0.44c0.3-1.7-0.88-2.85-2.87-2.85c-1.99,0-3.6,1.29-4.03,3.7l-1.28,7.29c-0.42,2.41,0.72,3.7,2.72,3.7
	c1.99,0,3.57-1.15,3.89-2.91l0.11-0.62c0.09-0.53,0.48-0.88,1.01-0.88h2.29c0.53,0,0.84,0.41,0.75,0.91L230.94,92.55z"/>
<path class="st6" d="M238.67,87.83l-0.7,3.99c-0.39,2.23,0.4,3.41,2.19,3.41c1.76,0,2.93-1.18,3.33-3.41l0.7-3.99
	c0.39-2.23-0.37-3.41-2.13-3.41C240.28,84.42,239.07,85.59,238.67,87.83 M234.01,92.14l0.82-4.64c0.68-3.85,3.64-6.2,7.78-6.2
	c4.08,0,6.22,2.35,5.54,6.2l-0.82,4.64c-0.68,3.85-3.65,6.2-7.72,6.2C235.47,98.34,233.33,95.99,234.01,92.14"/>
<path class="st6" d="M255.62,86.09l-1.32,7.46c0.59,0.85,1.66,1.56,2.78,1.56c1.7,0,2.48-0.91,2.85-3l0.81-4.58
	c0.37-2.09-0.09-3-1.79-3C257.84,84.53,256.51,85.24,255.62,86.09 M250.55,98.05c-0.5,0-0.87-0.41-0.78-0.94l3.55-20.15
	c0.09-0.53,0.61-0.94,1.11-0.94h2.02c0.53,0,0.86,0.41,0.77,0.94l-1.05,5.96c1.07-0.91,2.69-1.62,4.19-1.62
	c3.87,0,5.01,2.06,4.32,5.94l-0.91,5.17c-0.68,3.88-2.54,5.94-6.42,5.94c-1.64,0-3.08-0.85-3.84-1.85l-0.17,0.65
	c-0.18,0.5-0.72,0.91-1.25,0.91H250.55z"/>
<path class="st6" d="M277.06,82.04l-0.34,1.91c-0.08,0.47-0.45,0.73-0.89,0.73c-1.26,0-2.76,0.68-3.73,1.85l-1.87,10.57
	c-0.09,0.53-0.58,0.94-1.1,0.94h-2.03c-0.5,0-0.87-0.41-0.77-0.94l2.57-14.57c0.09-0.53,0.61-0.94,1.1-0.94h1.5
	c0.56,0,0.92,0.41,0.92,0.91l-0.06,1c1.04-1.26,2.91-2.2,4.09-2.2C276.92,81.3,277.14,81.57,277.06,82.04"/>
<path class="st6" d="M282.14,87.53l-0.81,4.58c-0.37,2.09,0.09,3,1.79,3c1.12,0,2.41-0.71,3.3-1.56l1.32-7.46
	c-0.58-0.85-1.66-1.56-2.75-1.56C283.28,84.54,282.51,85.44,282.14,87.53 M277.38,92.41l0.91-5.17c0.68-3.88,2.54-5.93,6.38-5.93
	c1.53,0,3.01,0.73,3.84,1.85l0.2-0.65c0.2-0.5,0.74-0.91,1.27-0.91h1.53c0.5,0,0.84,0.41,0.74,0.94l-2.57,14.57
	c-0.09,0.53-0.58,0.94-1.08,0.94h-1.56c-0.56,0-0.92-0.41-0.92-0.91l0.03-0.65c-1.12,1-2.82,1.85-4.49,1.85
	C277.82,98.34,276.69,96.28,277.38,92.41"/>
<path class="st6" d="M293.96,98.05c-0.5,0-0.87-0.41-0.77-0.94l2.57-14.57c0.09-0.53,0.61-0.94,1.11-0.94h1.58
	c0.53,0,0.92,0.41,0.89,0.94l-0.05,0.62c1.25-1.12,2.79-1.85,4.37-1.85c3.85,0,4.9,2.03,4.27,5.58l-1.8,10.22
	c-0.09,0.53-0.6,0.94-1.1,0.94H303c-0.53,0-0.87-0.41-0.77-0.94l1.74-9.87c0.33-1.88-0.08-2.71-1.78-2.71
	c-1.09,0-2.27,0.7-3.15,1.56l-1.94,11.01c-0.09,0.53-0.58,0.94-1.1,0.94H293.96z"/>
<path class="st6" d="M309.43,98.05c-0.53,0-0.87-0.41-0.77-0.94l0.12-0.65c0.1-0.56,0.43-1.26,0.83-1.73l8.46-10.07h-6.13
	c-0.5,0-0.86-0.41-0.78-0.94l0.21-1.17c0.09-0.53,0.61-0.94,1.11-0.94h10.18c0.5,0,0.84,0.41,0.74,0.94l-0.11,0.65
	c-0.1,0.56-0.43,1.26-0.8,1.73l-8.47,10.07h6.6c0.5,0,0.87,0.41,0.77,0.94l-0.21,1.18c-0.09,0.53-0.6,0.94-1.1,0.94H309.43z"/>
<path class="st6" d="M329.13,87.53l-0.81,4.58c-0.37,2.09,0.08,3,1.79,3c1.11,0,2.41-0.71,3.29-1.56l1.32-7.46
	c-0.58-0.85-1.66-1.56-2.75-1.56C330.27,84.54,329.5,85.44,329.13,87.53 M324.37,92.41l0.91-5.17c0.69-3.88,2.54-5.93,6.39-5.93
	c1.53,0,3.01,0.73,3.84,1.85l0.2-0.65c0.2-0.5,0.75-0.91,1.27-0.91h1.53c0.5,0,0.84,0.41,0.74,0.94l-2.57,14.57
	c-0.09,0.53-0.58,0.94-1.08,0.94h-1.56c-0.56,0-0.92-0.41-0.92-0.91l0.03-0.65c-1.12,1-2.82,1.85-4.49,1.85
	C324.82,98.34,323.68,96.28,324.37,92.41"/>
<path class="st6" d="M346.54,95.46c1.73,0,2.7-0.85,2.91-2.02c0.27-1.53-1.35-1.97-3.6-2.35c-2.56-0.47-4.67-1.67-4.14-4.67
	l0.08-0.44c0.49-2.79,2.89-4.7,7.02-4.7c4.31,0,5.75,2.5,5.36,4.73c-0.09,0.5-0.47,0.82-0.97,0.82h-1.97
	c-0.53,0-0.81-0.23-0.72-0.76c0.13-0.76-0.37-1.88-2.22-1.88c-1.62,0-2.44,0.88-2.65,2.03c-0.24,1.38,0.88,1.82,3.04,2.23
	c2.78,0.53,5.21,1.53,4.68,4.58l-0.1,0.56c-0.49,2.76-3.11,4.79-7.24,4.79c-4.23,0-6.23-2.26-5.79-4.76
	c0.09-0.5,0.47-0.82,0.97-0.82h2c0.53,0,0.84,0.24,0.74,0.76C343.79,94.4,344.66,95.46,346.54,95.46"/>
</svg>
