<?xml version="1.0" encoding="utf-8"?>
<!-- Generator: Adobe Illustrator 25.0.0, SVG Export Plug-In . SVG Version: 6.00 Build 0)  -->
<svg version="1.1" id="Capa_1" xmlns="http://www.w3.org/2000/svg" xmlns:xlink="http://www.w3.org/1999/xlink" x="0px" y="0px"
	 viewBox="0 0 242 75" style="enable-background:new 0 0 242 75;" xml:space="preserve">
<style type="text/css">
	.st0{fill:#CD1B46;}
	.st1{fill:#FFFFFF;}
	.st2{fill:#E38100;}
	.st3{fill:#FF6B00;}
	.st4{fill:#00498F;}
	.st5{fill:#004D93;}
	.st6{fill:#2B3B42;}
</style>
<g>
	<path class="st0" d="M15.64,40.59l17.2-7.47v-5.53l0.01-0.01c5.53-0.85,9.98-3.47,13.83-7.73v0.01l17.21,14.05V16.33H15.64V40.59z"
		/>
	<path class="st1" d="M32.86,56.53h13.82V19.86v-0.01c-3.86,4.26-8.3,6.87-13.83,7.73l-0.01,0v5.53l-17.2,7.47v5.4l17.21-7.54V33.1
		l5.52-2.41v5.34l-5.51,2.41v5.27l5.52-2.41v5.28l-5.52,2.41v-5.27l-17.22,7.55v5.27l17.22-7.55V56.53z"/>
	<polygon class="st2" points="32.86,43.7 32.86,43.7 32.86,38.43 32.85,38.44 32.85,38.44 15.64,45.98 15.64,51.26 32.86,43.71 	"/>
	<polygon class="st2" points="32.86,48.98 15.64,56.53 15.64,56.53 32.86,56.53 	"/>
	<polygon class="st2" points="32.86,38.43 38.37,36.02 38.37,30.71 32.85,33.12 32.85,38.44 32.86,38.43 	"/>
	<rect x="32.84" y="38.43" class="st3" width="0.02" height="0"/>
	<polygon class="st2" points="32.86,43.71 32.86,48.98 38.38,46.56 38.38,41.29 32.86,43.7 32.86,43.71 	"/>
	<rect x="32.86" y="43.7" class="st3" width="0" height="0.01"/>
	<polygon class="st2" points="46.69,56.53 63.88,56.53 63.88,33.91 46.68,19.86 	"/>
	<polygon class="st3" points="46.68,56.53 46.69,56.53 46.68,19.86 	"/>
	<rect x="15.64" y="64.57" class="st4" width="48.25" height="0.01"/>
	<polygon class="st5" points="46.69,56.53 46.68,56.53 32.86,56.53 15.64,56.53 15.64,64.57 63.88,64.57 63.88,56.53 	"/>
	<path class="st6" d="M117.81,64.38c-0.01,0.52,0.13,0.96,0.43,1.31c0.3,0.35,0.72,0.53,1.29,0.53c0.34,0,0.67-0.07,0.98-0.22
		c0.31-0.15,0.58-0.35,0.8-0.61c0.23-0.26,0.41-0.55,0.54-0.89c0.14-0.34,0.2-0.7,0.21-1.07c0.01-0.54-0.15-0.98-0.46-1.33
		c-0.32-0.34-0.76-0.52-1.31-0.52c-0.36,0-0.7,0.07-1,0.22c-0.3,0.15-0.56,0.35-0.78,0.6c-0.22,0.25-0.39,0.54-0.5,0.88
		C117.88,63.63,117.81,63.99,117.81,64.38 M123.48,56.3h1.74l-2.18,11.17h-1.64l0.2-1.12h-0.05c-0.3,0.42-0.66,0.74-1.11,0.96
		c-0.45,0.23-0.94,0.34-1.47,0.34c-0.45,0-0.86-0.07-1.23-0.22c-0.37-0.15-0.68-0.36-0.94-0.63c-0.26-0.27-0.45-0.6-0.59-0.97
		c-0.14-0.38-0.2-0.79-0.19-1.24c0.01-0.61,0.12-1.18,0.32-1.72c0.2-0.53,0.48-1,0.83-1.4c0.35-0.4,0.77-0.72,1.25-0.95
		c0.48-0.23,1.01-0.35,1.58-0.35c0.65,0,1.17,0.12,1.57,0.36c0.39,0.24,0.69,0.57,0.89,0.99h0.03L123.48,56.3z"/>
	<path class="st6" d="M130.84,63.22c0.01-0.07,0.02-0.13,0.03-0.19c0.01-0.06,0.01-0.12,0.01-0.18c0.01-0.38-0.12-0.71-0.39-0.97
		c-0.27-0.27-0.65-0.4-1.14-0.4c-0.3,0-0.58,0.05-0.83,0.16c-0.25,0.11-0.46,0.25-0.65,0.42c-0.19,0.17-0.34,0.36-0.46,0.57
		c-0.12,0.21-0.2,0.4-0.24,0.59H130.84z M126.97,64.46c-0.01,0.05-0.02,0.1-0.02,0.16c0,0.24,0.04,0.45,0.13,0.65
		c0.09,0.2,0.22,0.37,0.38,0.51c0.17,0.14,0.36,0.26,0.59,0.34c0.22,0.08,0.47,0.12,0.74,0.12c0.45,0,0.84-0.08,1.16-0.25
		c0.32-0.17,0.61-0.39,0.88-0.68l0.98,0.93c-0.89,0.95-1.97,1.42-3.23,1.42c-0.48,0-0.92-0.07-1.33-0.21
		c-0.4-0.14-0.75-0.35-1.04-0.61c-0.29-0.27-0.52-0.59-0.68-0.98c-0.16-0.39-0.24-0.84-0.23-1.34c0.01-0.61,0.12-1.18,0.34-1.71
		c0.22-0.53,0.51-0.99,0.89-1.38c0.38-0.4,0.82-0.7,1.33-0.92c0.51-0.22,1.07-0.33,1.67-0.33c0.42,0,0.82,0.06,1.17,0.18
		c0.36,0.12,0.67,0.3,0.93,0.53c0.26,0.24,0.46,0.53,0.61,0.89c0.14,0.35,0.21,0.77,0.2,1.24c0,0.16-0.02,0.38-0.06,0.66
		c-0.04,0.28-0.08,0.54-0.15,0.79H126.97z"/>
	<path class="st6" d="M140.58,58.5l-0.55,2.79h1.89c0.21,0,0.43-0.03,0.66-0.08c0.23-0.05,0.45-0.15,0.64-0.27
		c0.2-0.13,0.36-0.29,0.48-0.5c0.13-0.21,0.19-0.46,0.2-0.75c0.01-0.43-0.15-0.74-0.46-0.92c-0.32-0.18-0.72-0.27-1.2-0.27H140.58z
		 M139.72,62.82l-0.59,3.1h1.82c0.33,0,0.64-0.03,0.93-0.1c0.3-0.06,0.56-0.16,0.8-0.3c0.23-0.14,0.42-0.32,0.56-0.56
		c0.14-0.23,0.21-0.51,0.21-0.83c0.01-0.41-0.14-0.74-0.44-0.97c-0.3-0.23-0.74-0.35-1.31-0.35H139.72z M142.74,56.99
		c0.36,0,0.72,0.04,1.08,0.12c0.36,0.08,0.68,0.21,0.97,0.39c0.29,0.18,0.52,0.42,0.69,0.71c0.17,0.29,0.26,0.65,0.25,1.07
		c-0.01,0.7-0.23,1.28-0.66,1.74c-0.43,0.46-0.99,0.77-1.68,0.94v0.03c0.57,0.09,1.03,0.33,1.39,0.72c0.36,0.39,0.53,0.89,0.52,1.51
		c-0.01,0.53-0.13,1-0.36,1.4c-0.23,0.41-0.54,0.74-0.94,1.01c-0.4,0.27-0.87,0.48-1.42,0.61c-0.55,0.14-1.15,0.21-1.8,0.21h-3.71
		l2.03-10.47H142.74z"/>
	<path class="st6" d="M151.1,64.21c-0.34,0-0.68,0.01-1.04,0.04c-0.36,0.03-0.69,0.08-0.99,0.17c-0.3,0.09-0.55,0.21-0.74,0.38
		c-0.2,0.16-0.29,0.38-0.3,0.66c0,0.17,0.03,0.31,0.09,0.42c0.06,0.11,0.15,0.2,0.26,0.27c0.11,0.07,0.23,0.12,0.37,0.15
		c0.14,0.03,0.28,0.04,0.43,0.04c0.27,0,0.52-0.04,0.75-0.13c0.23-0.09,0.44-0.21,0.61-0.36c0.17-0.15,0.32-0.33,0.44-0.53
		c0.12-0.2,0.2-0.42,0.26-0.66l0.09-0.44H151.1z M151.49,62.97c0.02-0.12,0.03-0.21,0.04-0.27c0.01-0.06,0.01-0.13,0.01-0.19
		c0.01-0.34-0.1-0.59-0.32-0.74c-0.22-0.15-0.55-0.22-0.98-0.22c-0.34,0-0.7,0.07-1.08,0.2c-0.37,0.13-0.7,0.3-0.99,0.51l-0.64-1.17
		c0.41-0.29,0.87-0.51,1.4-0.67c0.52-0.16,1.05-0.24,1.59-0.24c0.34,0,0.67,0.04,1,0.11s0.62,0.19,0.88,0.36
		c0.26,0.17,0.46,0.39,0.62,0.66c0.15,0.27,0.23,0.61,0.22,1.01c0,0.09-0.01,0.2-0.02,0.33c-0.01,0.13-0.03,0.24-0.05,0.34
		l-0.57,2.88c-0.05,0.28-0.1,0.56-0.14,0.86c-0.04,0.29-0.06,0.54-0.07,0.74h-1.6c0.01-0.27,0.04-0.55,0.1-0.84h-0.03
		c-0.57,0.66-1.34,0.99-2.33,0.99c-0.25,0-0.5-0.03-0.77-0.09c-0.27-0.06-0.51-0.16-0.72-0.3c-0.22-0.14-0.39-0.34-0.52-0.58
		c-0.14-0.24-0.2-0.54-0.19-0.91c0.01-0.58,0.17-1.05,0.49-1.41c0.32-0.36,0.73-0.64,1.22-0.84c0.5-0.2,1.05-0.34,1.66-0.41
		C150.31,63,150.91,62.97,151.49,62.97"/>
	<path class="st6" d="M157.14,61.47c0.25-0.38,0.57-0.7,0.95-0.94c0.38-0.24,0.84-0.36,1.37-0.36c0.4,0,0.74,0.06,1.03,0.18
		c0.29,0.12,0.53,0.28,0.71,0.47c0.19,0.2,0.33,0.43,0.42,0.7c0.09,0.27,0.13,0.55,0.12,0.85c-0.01,0.25-0.03,0.47-0.07,0.66
		l-0.86,4.42h-1.73l0.75-3.9c0.02-0.12,0.04-0.24,0.06-0.36c0.02-0.12,0.03-0.24,0.03-0.35c0.01-0.31-0.07-0.59-0.24-0.84
		c-0.16-0.24-0.47-0.36-0.91-0.36c-0.28,0-0.54,0.06-0.76,0.16c-0.22,0.11-0.41,0.25-0.58,0.44c-0.17,0.18-0.3,0.39-0.41,0.61
		c-0.11,0.23-0.18,0.46-0.23,0.7l-0.76,3.9h-1.73l1.07-5.58c0.04-0.19,0.09-0.43,0.14-0.72c0.05-0.29,0.09-0.56,0.11-0.8h1.63
		c-0.01,0.11-0.03,0.28-0.07,0.51c-0.03,0.23-0.06,0.43-0.08,0.6H157.14z"/>
	<path class="st6" d="M168.73,62.37c-0.12-0.22-0.32-0.4-0.58-0.55c-0.26-0.15-0.55-0.23-0.87-0.23c-0.37,0-0.7,0.07-1.02,0.22
		c-0.32,0.15-0.58,0.35-0.81,0.61c-0.23,0.26-0.41,0.55-0.54,0.89c-0.14,0.34-0.21,0.69-0.21,1.05c-0.01,0.25,0.03,0.48,0.09,0.7
		c0.06,0.22,0.17,0.42,0.32,0.59c0.14,0.17,0.33,0.31,0.55,0.42c0.22,0.1,0.49,0.15,0.81,0.15c0.44,0,0.8-0.08,1.08-0.23
		c0.28-0.15,0.53-0.34,0.76-0.57l0.97,1c-0.38,0.37-0.81,0.67-1.29,0.89c-0.48,0.22-1.03,0.33-1.65,0.33
		c-0.51,0-0.98-0.07-1.39-0.22c-0.42-0.15-0.77-0.36-1.07-0.63c-0.3-0.27-0.52-0.59-0.68-0.97c-0.16-0.37-0.23-0.79-0.22-1.26
		c0.01-0.57,0.12-1.12,0.34-1.66c0.22-0.53,0.52-1,0.9-1.41c0.38-0.41,0.84-0.73,1.39-0.98c0.54-0.24,1.14-0.36,1.79-0.36
		c0.53,0,1.04,0.1,1.51,0.29c0.47,0.19,0.84,0.49,1.09,0.91L168.73,62.37z"/>
	<path class="st6" d="M176.16,63.43c0.01-0.53-0.14-0.97-0.46-1.32c-0.32-0.35-0.76-0.52-1.32-0.52c-0.38,0-0.72,0.07-1.02,0.23
		c-0.3,0.15-0.56,0.36-0.78,0.62c-0.22,0.26-0.39,0.55-0.51,0.89c-0.12,0.34-0.19,0.69-0.2,1.07c-0.01,0.53,0.14,0.97,0.45,1.32
		c0.31,0.35,0.75,0.52,1.32,0.52c0.37,0,0.72-0.07,1.02-0.22c0.31-0.15,0.57-0.35,0.79-0.61c0.22-0.26,0.39-0.56,0.51-0.9
		C176.09,64.16,176.16,63.81,176.16,63.43 M173.53,67.65c-0.49,0-0.95-0.07-1.36-0.22c-0.42-0.15-0.78-0.36-1.08-0.64
		c-0.3-0.27-0.54-0.6-0.7-0.98s-0.25-0.79-0.24-1.26c0.01-0.58,0.12-1.14,0.33-1.66c0.21-0.53,0.51-0.99,0.89-1.4
		c0.38-0.4,0.84-0.73,1.37-0.97c0.53-0.24,1.12-0.36,1.77-0.36c0.5,0,0.96,0.07,1.38,0.22c0.42,0.15,0.78,0.36,1.08,0.63
		c0.3,0.27,0.53,0.6,0.7,0.98c0.16,0.38,0.24,0.8,0.23,1.25c-0.01,0.59-0.12,1.15-0.33,1.69c-0.21,0.53-0.51,1-0.89,1.4
		c-0.38,0.41-0.84,0.73-1.38,0.96C174.78,67.54,174.18,67.65,173.53,67.65"/>
	<polygon class="st6" points="178.9,67.46 180.94,56.99 187.53,56.99 187.22,58.59 182.4,58.59 181.88,61.29 186.48,61.29 
		186.17,62.83 181.59,62.83 181,65.83 186.24,65.83 185.93,67.46 	"/>
	<path class="st6" d="M188.1,65.42c0.14,0.29,0.36,0.51,0.65,0.66s0.61,0.23,0.96,0.23c0.4,0,0.73-0.08,0.97-0.24
		c0.24-0.16,0.37-0.38,0.37-0.65c0.01-0.26-0.09-0.45-0.28-0.57c-0.19-0.12-0.5-0.25-0.92-0.39c-0.33-0.11-0.62-0.22-0.88-0.33
		c-0.25-0.11-0.46-0.25-0.62-0.4c-0.16-0.15-0.29-0.33-0.37-0.53c-0.08-0.2-0.12-0.43-0.11-0.69c0.01-0.35,0.09-0.66,0.25-0.95
		c0.16-0.29,0.39-0.53,0.67-0.74c0.28-0.21,0.61-0.37,0.98-0.48c0.38-0.11,0.79-0.17,1.23-0.17c0.55,0,1.05,0.1,1.49,0.3
		c0.45,0.2,0.79,0.51,1.04,0.92l-1.36,0.8c-0.12-0.2-0.29-0.36-0.49-0.49c-0.21-0.13-0.48-0.2-0.84-0.2c-0.15,0-0.3,0.01-0.45,0.04
		c-0.15,0.03-0.29,0.07-0.41,0.14c-0.12,0.06-0.22,0.15-0.29,0.26c-0.08,0.11-0.11,0.24-0.12,0.4c0,0.23,0.09,0.39,0.28,0.5
		c0.19,0.11,0.47,0.22,0.84,0.32c0.66,0.19,1.16,0.44,1.53,0.76c0.36,0.32,0.53,0.77,0.52,1.37c-0.01,0.39-0.1,0.74-0.27,1.04
		c-0.17,0.3-0.4,0.55-0.69,0.76c-0.28,0.21-0.61,0.36-0.98,0.46c-0.37,0.11-0.76,0.16-1.18,0.16c-0.77,0-1.39-0.13-1.85-0.41
		c-0.46-0.27-0.81-0.61-1.05-1.01L188.1,65.42z"/>
	<path class="st6" d="M193.91,61.78l0.27-1.42h1.23l0.39-2.07h1.72l-0.39,2.07h1.6l-0.28,1.42h-1.57l-0.68,3.32
		c-0.03,0.15-0.05,0.28-0.05,0.41c-0.01,0.25,0.07,0.43,0.22,0.53c0.15,0.1,0.35,0.15,0.61,0.15c0.12,0,0.23-0.01,0.35-0.02
		c0.12-0.02,0.22-0.04,0.32-0.06l-0.12,1.32c-0.15,0.06-0.33,0.11-0.53,0.14c-0.2,0.04-0.39,0.05-0.55,0.05
		c-0.75,0-1.28-0.15-1.59-0.45c-0.31-0.3-0.46-0.7-0.45-1.19c0-0.14,0.01-0.29,0.03-0.45c0.02-0.16,0.04-0.31,0.07-0.45l0.66-3.29
		H193.91z"/>
	<path class="st6" d="M203.42,64.21c-0.34,0-0.68,0.01-1.04,0.04c-0.36,0.03-0.69,0.08-0.99,0.17c-0.3,0.09-0.55,0.21-0.75,0.38
		c-0.19,0.16-0.29,0.38-0.3,0.66c0,0.17,0.03,0.31,0.09,0.42c0.06,0.11,0.15,0.2,0.26,0.27c0.11,0.07,0.23,0.12,0.37,0.15
		c0.14,0.03,0.28,0.04,0.43,0.04c0.27,0,0.52-0.04,0.75-0.13c0.23-0.09,0.44-0.21,0.61-0.36c0.17-0.15,0.32-0.33,0.44-0.53
		c0.12-0.2,0.2-0.42,0.26-0.66l0.09-0.44H203.42z M203.81,62.97c0.02-0.12,0.03-0.21,0.04-0.27c0.01-0.06,0.01-0.13,0.01-0.19
		c0.01-0.34-0.1-0.59-0.32-0.74c-0.22-0.15-0.55-0.22-0.98-0.22c-0.34,0-0.7,0.07-1.08,0.2c-0.37,0.13-0.7,0.3-0.99,0.51l-0.64-1.17
		c0.41-0.29,0.87-0.51,1.4-0.67c0.52-0.16,1.05-0.24,1.59-0.24c0.34,0,0.67,0.04,1,0.11c0.33,0.07,0.62,0.19,0.88,0.36
		c0.26,0.17,0.46,0.39,0.62,0.66c0.15,0.27,0.23,0.61,0.22,1.01c0,0.09-0.01,0.2-0.02,0.33c-0.01,0.13-0.03,0.24-0.05,0.34
		l-0.57,2.88c-0.05,0.28-0.1,0.56-0.14,0.86c-0.04,0.29-0.06,0.54-0.07,0.74h-1.6c0.01-0.27,0.04-0.55,0.1-0.84h-0.03
		c-0.57,0.66-1.34,0.99-2.33,0.99c-0.24,0-0.5-0.03-0.77-0.09c-0.26-0.06-0.51-0.16-0.72-0.3c-0.22-0.14-0.39-0.34-0.52-0.58
		c-0.14-0.24-0.2-0.54-0.19-0.91c0.01-0.58,0.17-1.05,0.49-1.41c0.32-0.36,0.73-0.64,1.22-0.84c0.5-0.2,1.05-0.34,1.66-0.41
		C202.64,63,203.23,62.97,203.81,62.97"/>
	<path class="st6" d="M208.55,64.38c-0.01,0.52,0.13,0.96,0.43,1.31c0.3,0.35,0.72,0.53,1.29,0.53c0.34,0,0.67-0.07,0.98-0.22
		c0.31-0.15,0.58-0.35,0.8-0.61c0.23-0.26,0.41-0.55,0.54-0.89c0.14-0.34,0.21-0.7,0.21-1.07c0.01-0.54-0.15-0.98-0.46-1.33
		c-0.32-0.34-0.76-0.52-1.31-0.52c-0.36,0-0.7,0.07-1,0.22c-0.3,0.15-0.56,0.35-0.78,0.6c-0.22,0.25-0.39,0.54-0.5,0.88
		C208.62,63.63,208.56,63.99,208.55,64.38 M214.22,56.3h1.74l-2.18,11.17h-1.64l0.2-1.12h-0.04c-0.3,0.42-0.67,0.74-1.11,0.96
		c-0.45,0.23-0.94,0.34-1.47,0.34c-0.45,0-0.86-0.07-1.23-0.22c-0.37-0.15-0.68-0.36-0.94-0.63c-0.26-0.27-0.45-0.6-0.59-0.97
		c-0.14-0.38-0.2-0.79-0.19-1.24c0.01-0.61,0.12-1.18,0.32-1.72c0.2-0.53,0.48-1,0.83-1.4c0.35-0.4,0.77-0.72,1.25-0.95
		c0.48-0.23,1.01-0.35,1.58-0.35c0.65,0,1.17,0.12,1.57,0.36c0.39,0.24,0.69,0.57,0.89,0.99h0.03L214.22,56.3z"/>
	<path class="st6" d="M222.05,63.43c0.01-0.53-0.14-0.97-0.46-1.32c-0.32-0.35-0.76-0.52-1.32-0.52c-0.37,0-0.72,0.07-1.02,0.23
		c-0.3,0.15-0.56,0.36-0.78,0.62c-0.22,0.26-0.39,0.55-0.51,0.89c-0.12,0.34-0.19,0.69-0.2,1.07c-0.01,0.53,0.14,0.97,0.45,1.32
		c0.31,0.35,0.75,0.52,1.32,0.52c0.38,0,0.71-0.07,1.02-0.22c0.31-0.15,0.57-0.35,0.79-0.61c0.22-0.26,0.39-0.56,0.51-0.9
		C221.98,64.16,222.05,63.81,222.05,63.43 M219.42,67.65c-0.49,0-0.95-0.07-1.36-0.22c-0.42-0.15-0.78-0.36-1.08-0.64
		c-0.3-0.27-0.54-0.6-0.7-0.98s-0.24-0.79-0.24-1.26c0.01-0.58,0.12-1.14,0.33-1.66c0.21-0.53,0.51-0.99,0.89-1.4
		c0.38-0.4,0.84-0.73,1.37-0.97c0.53-0.24,1.12-0.36,1.77-0.36c0.5,0,0.96,0.07,1.38,0.22c0.42,0.15,0.77,0.36,1.08,0.63
		c0.3,0.27,0.53,0.6,0.7,0.98c0.16,0.38,0.24,0.8,0.23,1.25c-0.01,0.59-0.12,1.15-0.33,1.69c-0.21,0.53-0.51,1-0.89,1.4
		c-0.38,0.41-0.84,0.73-1.38,0.96S220.07,67.65,219.42,67.65"/>
	<path class="st6" d="M71.69,37.79c0-6.68,4.76-11.51,11.15-11.51c3.39,0,6.3,1.31,8.24,3.74l-2.5,2.52
		c-1.52-1.76-3.39-2.62-5.56-2.62c-4.31,0-7.44,3.26-7.44,7.87c0,4.6,3.12,7.87,7.44,7.87c2.17,0,4.04-0.87,5.56-2.65l2.5,2.56
		c-1.93,2.43-4.85,3.74-8.27,3.74C76.45,49.3,71.69,44.47,71.69,37.79"/>
	<path class="st6" d="M101.64,31.71v3.8c-0.33-0.06-0.59-0.1-0.86-0.1c-2.82,0-4.61,1.79-4.61,5.27v8.28h-3.72V31.91h3.54v2.49
		C97.06,32.61,98.99,31.71,101.64,31.71"/>
	<path class="st6" d="M105.65,39.07h9.01c-0.29-2.46-2.05-4.16-4.49-4.16C107.76,34.91,106.01,36.57,105.65,39.07 M118.15,41.72
		h-12.46c0.45,2.49,2.38,4.09,5.15,4.09c1.78,0,3.18-0.61,4.31-1.86l1.99,2.46c-1.43,1.82-3.66,2.78-6.4,2.78
		c-5.33,0-8.78-3.68-8.78-8.76c0-5.08,3.48-8.73,8.21-8.73c4.64,0,8.03,3.48,8.03,8.82C118.2,40.86,118.18,41.34,118.15,41.72"/>
	<path class="st6" d="M119.1,40.44c0-5.11,3.57-8.73,8.59-8.73c3.1,0,5.56,1.37,6.78,3.97l-2.85,1.79
		c-0.95-1.63-2.38-2.37-3.96-2.37c-2.74,0-4.82,2.05-4.82,5.34c0,3.33,2.08,5.34,4.82,5.34c1.58,0,3-0.74,3.96-2.37l2.85,1.79
		c-1.22,2.56-3.69,4-6.78,4C122.66,49.2,119.1,45.56,119.1,40.44"/>
	<path class="st6" d="M138.46,39.07h9.01c-0.3-2.46-2.05-4.16-4.49-4.16C140.57,34.91,138.81,36.57,138.46,39.07 M150.95,41.72
		h-12.46c0.45,2.49,2.38,4.09,5.15,4.09c1.78,0,3.18-0.61,4.31-1.86l1.99,2.46c-1.43,1.82-3.66,2.78-6.4,2.78
		c-5.33,0-8.78-3.68-8.78-8.76c0-5.08,3.48-8.73,8.21-8.73c4.64,0,8.03,3.48,8.03,8.82C151.01,40.86,150.98,41.34,150.95,41.72"/>
	<polygon class="st6" points="172.69,48.98 172.67,34.14 165.82,46.42 164.1,46.42 157.26,34.34 157.26,48.98 153.57,48.98 
		153.57,26.6 156.75,26.6 165.02,41.43 173.14,26.6 176.32,26.6 176.35,48.98 	"/>
	<path class="st6" d="M195,31.91v17.07h-3.54v-2.17c-1.19,1.57-3.06,2.4-5.12,2.4c-4.08,0-6.84-2.4-6.84-7.55v-9.75h3.72v9.21
		c0,3.1,1.37,4.57,3.72,4.57c2.59,0,4.34-1.73,4.34-5.15v-8.63H195z"/>
	<path class="st6" d="M197.53,26.69c0-1.34,1.01-2.4,2.38-2.4c1.37,0,2.38,0.99,2.38,2.3c0,1.41-0.98,2.49-2.38,2.49
		C198.54,29.09,197.53,28.04,197.53,26.69 M192.68,54.42l1.07-2.97c0.56,0.45,1.34,0.67,2.17,0.67c1.37,0,2.14-0.9,2.14-2.72V31.91
		h3.72V49.3c0,3.74-1.99,6.11-5.53,6.11C194.88,55.41,193.54,55.12,192.68,54.42"/>
	<path class="st6" d="M207.04,39.07h9.01c-0.29-2.46-2.05-4.16-4.49-4.16C209.15,34.91,207.4,36.57,207.04,39.07 M219.54,41.72
		h-12.46c0.45,2.49,2.38,4.09,5.15,4.09c1.78,0,3.18-0.61,4.31-1.86l1.99,2.46c-1.43,1.82-3.66,2.78-6.4,2.78
		c-5.33,0-8.78-3.68-8.78-8.76c0-5.08,3.48-8.73,8.21-8.73c4.64,0,8.03,3.48,8.03,8.82C219.59,40.86,219.57,41.34,219.54,41.72"/>
	<path class="st6" d="M230.36,31.71v3.8c-0.33-0.06-0.6-0.1-0.86-0.1c-2.83,0-4.61,1.79-4.61,5.27v8.28h-3.72V31.91h3.54v2.49
		C225.78,32.61,227.71,31.71,230.36,31.71"/>
</g>
</svg>
