<?xml version="1.0" encoding="UTF-8"?>
<svg id="Capa_1" xmlns="http://www.w3.org/2000/svg" version="1.1" xmlns:xlink="http://www.w3.org/1999/xlink" viewBox="0 0 494 205">
  <!-- Generator: Adobe Illustrator 29.2.1, SVG Export Plug-In . SVG Version: 2.1.0 Build 116)  -->
  <defs>
    <style>
      .st0, .st1 {
        fill: #ff7900;
      }

      .st2 {
        fill: #fff;
      }

      .st3 {
        fill: none;
      }

      .st1, .st4 {
        fill-rule: evenodd;
      }

      .st4 {
        fill: #343e46;
      }

      .st5 {
        clip-path: url(#clippath);
      }
    </style>
    <clipPath id="clippath">
      <polyline class="st3" points="-698 0 491 0 491 205 -698 205"/>
    </clipPath>
  </defs>
  <g class="st5">
    <g>
      <path class="st0" d="M362.8,26.4H60.8c-20.2,0-36.6,16.4-36.6,36.6h0c0,20.2,16.4,36.6,36.6,36.6h302c20.2,0,36.6-16.4,36.6-36.6h0c0-20.2-16.4-36.6-36.6-36.6Z"/>
      <path class="st2" d="M88.4,79.2v4.6h-27.1v-42.8h26.7v4.6h-21.5v13.7h19.4v4.6h-19.4v15.2h21.9Z"/>
      <path class="st2" d="M125.3,38.8v45h-4.9v-6c-2.5,4.1-6.8,6.7-12.2,6.7-9.2,0-16-7.2-16-16.9s6.7-16.9,15.8-16.9,9.4,2.3,11.9,6.2v-18h5.2ZM120.3,67.5c0-7.2-4.6-12.2-11.4-12.2s-11.4,5.3-11.4,12.2,4.9,12.3,11.4,12.3,11.4-5,11.4-12.3Z"/>
      <path class="st2" d="M162.4,51.3v32.4h-5v-4.6c-2.1,3-6,5.3-10.8,5.3-8.3,0-12.9-5.4-12.9-13.1v-20h5.2v19.4c0,5.5,3.5,9.1,9,9.1,5.5,0,9.2-3.9,9.2-8.1v-20.4h5.2Z"/>
      <path class="st2" d="M169.1,67.6c0-9.6,7-16.9,16.6-16.9s13.1,4.7,14.8,10.1l-4.7,1.8c-1.4-4.5-5.1-7.3-10-7.3s-11.5,5-11.5,12.2,4.9,12.2,11.5,12.2,8.7-2.8,10.1-7.3l4.7,1.9c-1.7,5.3-7,10-14.9,10s-16.7-7.1-16.7-16.9Z"/>
      <path class="st2" d="M237.5,51.3v32.4h-4.9v-6.2c-2.5,4.3-6.7,6.9-12.2,6.9-9.2,0-16-7.2-16-16.9s6.8-16.6,16-16.6,9.7,2.5,12.2,6.7v-6.3h4.9ZM232.4,67.5c0-7.2-4.6-12.3-11.4-12.3s-11.4,5.3-11.4,12.3,4.9,12.3,11.4,12.3,11.4-5.1,11.4-12.3Z"/>
      <path class="st2" d="M244.2,67.6c0-9.6,7-16.9,16.6-16.9s13.1,4.7,14.8,10.1l-4.7,1.8c-1.4-4.5-5.1-7.3-10-7.3s-11.5,5-11.5,12.2,4.9,12.2,11.5,12.2,8.7-2.8,10.1-7.3l4.7,1.9c-1.7,5.3-7,10-14.9,10s-16.7-7.1-16.7-16.9Z"/>
      <path class="st2" d="M280,41.4c0-2.4,1.8-4.1,4.1-4.1s4.1,1.7,4.1,4.1-1.8,4-4.1,4-4.1-1.7-4.1-4ZM281.5,51.3h5.2v32.4h-5.2v-32.4Z"/>
      <path class="st2" d="M293.4,67.6c0-9.7,7-16.9,16.9-16.9s16.9,7.2,16.9,16.9-7,16.9-16.9,16.9-16.9-7.2-16.9-16.9ZM321.9,67.6c0-7.1-4.7-12.2-11.6-12.2s-11.6,5.1-11.6,12.2,4.7,12.2,11.6,12.2,11.6-5.1,11.6-12.2ZM303,43.8l12.8-8.1,2.4,3.8-13.1,7.6-2.1-3.4h0Z"/>
      <path class="st2" d="M363.3,64v19.8h-5.2v-18.9c0-6-3.5-9.6-9.3-9.5-5.5,0-9.5,4-9.5,8.4v20.1h-5.2v-32.4h4.9v4.7c2.1-3.1,6-5.4,11.2-5.4,8.3,0,13.2,5.2,13.2,13.3h0Z"/>
      <path class="st4" d="M80,175.2v.4c0,.9.8,1.6,2.1,1.6h17.4c1.3,0,2.2-.7,2.2-1.6v-.4c0-1-.8-1.7-1.6-2.6-1.1-1.1-2.4-2.3-2.4-4.6v-34.9c0-1.6-1.4-2.9-3.8-1.8l-11.9,5.9c-1.1.7-1.9,1.1-1.9,2v.3c0,.9.6,1.5,1.3,2.3,1,1.1,2.3,2.5,2.3,4.9v21.3c0,2.3-1.2,3.5-2.2,4.6-.8.8-1.4,1.5-1.4,2.6ZM99.8,116.9c0-4.7-3.6-8.2-9.2-8.2s-9.3,3.4-9.3,8.2,3.8,8.3,9.3,8.3,9.2-3.6,9.2-8.3ZM25.6,175.3v.3c0,1,.9,1.6,2.2,1.6h17.8c1.3,0,2.2-.6,2.2-1.6v-.3c0-1-.8-1.8-1.6-2.6-1.1-1.1-2.4-2.3-2.4-4.6v-19.5h12.7c2.2,0,3.5,2.1,4.7,3.9.9,1.4,1.7,2.7,2.8,2.7h.8c1,0,1.6-.9,1.6-2v-15.2c0-1.2-.6-2.1-1.6-2.1h-.8c-1.1,0-1.9,1.4-2.8,2.9-1.1,1.9-2.4,4.1-4.7,4.1h-12.7v-23c0-3,1.7-4,3.8-4h12.5c3.2,0,5.5,3,7.7,5.8,1.8,2.4,3.6,4.7,5.7,4.7h.5c1.3,0,2.2-.8,1.9-2.4l-2.3-11c-.3-1.9-1-2.7-2.9-2.7H27.7c-1.2,0-2.1.6-2.1,1.5v.4c0,1,.7,1.7,1.5,2.6,1,1.1,2.2,2.3,2.2,4.6v48.9c0,2.2-1.2,3.5-2.2,4.6-.8.8-1.5,1.6-1.5,2.6ZM138.9,175.7v-.4c0-1,.7-1.7,1.4-2.5,1-1.1,2.2-2.4,2-4.8l-.9-17.5c-.5-10.1-3.2-14.2-8.2-14.2s-8,4.2-8,10.4v21.4c0,2.3,1.3,3.5,2.4,4.6.9.8,1.6,1.5,1.6,2.6v.4c0,.9-.8,1.6-2.2,1.6h-17.5c-1.3,0-2.1-.7-2.1-1.6v-.4c0-1,.7-1.7,1.6-2.6,1.1-1.1,2.4-2.3,2.4-4.6v-22c0-2.4-1.5-3.6-2.8-4.6-1-.7-1.8-1.4-1.8-2.4v-.4c0-.9.8-1.4,2-2l11.1-5.5c2.2-1.1,3.3.2,3.3,2v5.2c2.6-4.7,7.6-7.6,13.9-7.6s17,5.1,18,20.1l1.1,17c.2,2.3,1.2,3.6,2.1,4.7.7.8,1.3,1.6,1.3,2.6v.4c0,.9-.8,1.6-2.2,1.6h-16.3c-1.3,0-2.2-.7-2.2-1.6h0ZM186,131c-12.1,0-22.3,9.5-22.3,23.5h0c0,15.2,10.7,23.7,22.2,23.7s9.5-1.8,12.5-5.3v2.3c0,1.2.9,2.1,2.2,2.1h11.6c1.2,0,1.9-.6,1.9-1.6v-.3c0-1-.7-1.7-1.5-2.5-1-1.1-2.2-2.4-2.2-4.6v-24.7c0-2.8,1.5-4.4,2.7-5.5.7-.7,1.3-1.3,1.3-2v-.3c0-1.3-.7-2.1-2-2.4l-9.9-1.7c-2.5-.5-4.1.5-4.1,2.4v1.9c-2.9-2.9-7-4.8-12.4-4.8ZM197,164c0,6.7-4.2,10.1-8,10.1-7.8-.3-12.2-14.8-11.8-25.2.2-8.8,4-13.9,9.5-13.9s10.3,5.8,10.3,12.4v16.6ZM252.5,175.7v-.4c0-1,.7-1.7,1.4-2.5,1-1.1,2.2-2.4,2-4.8l-.9-17.5c-.5-10.1-3.2-14.2-8.2-14.2s-8,4.2-8,10.4v21.4c0,2.3,1.3,3.5,2.4,4.6.9.8,1.6,1.5,1.6,2.6v.4c0,.9-.8,1.6-2.2,1.6h-17.5c-1.3,0-2.1-.7-2.1-1.6v-.4c0-1,.7-1.7,1.6-2.6,1.1-1.1,2.4-2.3,2.4-4.6v-22c0-2.4-1.5-3.6-2.8-4.6-1-.7-1.8-1.4-1.8-2.4v-.4c0-.9.8-1.4,2-2l11.1-5.5c2.2-1.1,3.3.2,3.3,2v5.2c2.6-4.7,7.6-7.6,13.9-7.6s17,5.1,18,20.1l1.1,17c.2,2.3,1.2,3.6,2.1,4.7.7.8,1.3,1.6,1.3,2.6v.4c0,.9-.9,1.6-2.2,1.6h-16.3c-1.3,0-2.2-.7-2.2-1.6h0ZM301.1,131c-12.8,0-23.9,9-23.9,23.5h0c0,12.7,10.1,23.7,24.4,23.7s18.6-7.6,19.2-15.4c.2-2.1-2.3-2.4-3.3-.9-2,3.4-5.6,6.6-11.3,6.6-9.7,0-16-8.2-16-20.8s3.4-12.6,8.7-12.6c4.1,0,6.1,3.3,8,6.8,1.9,3.4,3.8,6.8,7.9,7,4.2.2,5.8-2.3,5.8-4.7,0-7.4-8.7-13.3-19.5-13.2ZM326.2,175.6v-.4c0-1,.7-1.7,1.4-2.6,1-1.1,2.2-2.3,2.2-4.6v-21.3c0-2.4-1.2-3.8-2.2-4.9-.7-.8-1.3-1.5-1.3-2.3v-.3c0-.8.8-1.3,1.9-2l11.9-5.9c2.4-1.1,3.8.2,3.8,1.8v34.9c0,2.3,1.3,3.5,2.4,4.6.9.8,1.6,1.5,1.6,2.6v.4c0,.9-.8,1.6-2.2,1.6h-17.4c-1.3,0-2.1-.7-2.1-1.6h0ZM336.9,108.7c5.6,0,9.2,3.5,9.2,8.2s-3.6,8.3-9.2,8.3-9.3-3.5-9.3-8.3,3.8-8.2,9.3-8.2ZM375.8,130.9c-12.8.1-23.1,9.4-23.1,23.2h0c0,14.3,9.7,24,23.7,24s18.2-8.8,18.8-14.2c0-2-2.1-2.5-3.2-1-1.8,2.9-5.8,5.5-11.3,5.5s-11-3.9-13.6-9.9c3.4.3,7.4.3,11.6-.6,8.9-1.6,15.2-6.9,15.2-13.7s-7.5-13.3-18-13.2ZM374.4,153.4c-2.4.6-5.8.7-8.7.5h0c-.4-1.9-.6-3.9-.6-5.9,0-7.3,3.6-12.6,8.9-12.6s6.9,3.8,6.9,8.3c0,6.5-2.4,9.1-6.5,9.8ZM400.9,175.6v-.4c0-1,.7-1.8,1.5-2.6,1-1.1,2.2-2.3,2.2-4.5v-22.1c0-2.4-1.4-3.5-2.6-4.4-.9-.7-1.7-1.3-1.7-2.4v-.4c0-.9.7-1.7,1.9-2.3l11.3-5.3c2.2-1,3,0,3,1.8v7.2c2.1-6,6.5-9.3,12.8-9.3s8.8,3.8,8.8,8.6-1.6,7.5-6.1,7.5-4.8-2.4-5.6-4.6c-.6-1.8-1.2-3.5-3.5-3.5-3.8,0-5,5.2-5,10.4v18.9c0,2.2,1.5,3.5,2.8,4.5,1,.8,1.9,1.5,1.9,2.6v.4c0,1-.8,1.6-2.1,1.6h-17.5c-1.3,0-2.2-.6-2.2-1.6h0ZM462.3,131c-12.1,0-22.3,9.5-22.3,23.5h0c0,15.2,10.7,23.7,22.2,23.7s9.5-1.8,12.5-5.3v2.3c0,1.2.9,2.1,2.2,2.1h11.6c1.2,0,1.9-.6,1.9-1.6v-.3c0-1-.7-1.7-1.5-2.5-1-1.1-2.2-2.4-2.2-4.6v-24.7c0-2.8,1.5-4.4,2.7-5.5.7-.7,1.3-1.3,1.3-2v-.3c0-1.3-.7-2.1-2-2.4l-9.9-1.7c-2.5-.5-4.1.5-4.1,2.4v1.9c-2.9-2.9-7-4.8-12.4-4.8ZM473.4,164c0,6.7-4.2,10.1-8,10.1-7.8-.3-12.2-14.8-11.8-25.2.2-8.8,4-13.9,9.5-13.9s10.3,5.8,10.3,12.4v16.6Z"/>
      <path class="st1" d="M416.9,62.8c0-20.2,16.4-36.6,36.6-36.6s36.6,16.4,36.6,36.6-3.8,18.9-10.7,25.8c-6.9,6.9-16.1,10.7-25.8,10.7-20.2,0-36.6-16.4-36.6-36.6ZM453.4,96.3c18.5,0,33.5-15,33.5-33.5s-15-33.5-33.5-33.5-33.5,15-33.5,33.5,15,33.5,33.5,33.5ZM462.1,73.4l-7.4,11.6h0c-.3.4-.8.7-1.3.7s-1-.3-1.3-.7l-7.4-11.6c-.2-.2-.2-.5-.2-.8,0-.5.3-1,.7-1.3.3-.2.7-.3,1.1-.2.4,0,.7.3.9.7l4.7,7.4v-38.5c0-.8.6-1.4,1.4-1.4s1.4.6,1.4,1.4v38.5l4.7-7.4c.2-.3.5-.6.9-.7.4,0,.8,0,1.1.2.7.4.9,1.4.5,2.1Z"/>
    </g>
  </g>
</svg>