<svg xmlns="http://www.w3.org/2000/svg" viewBox="0 0 400 105.79"><defs><style>.cls-1{fill:#2c3d46;}.cls-2{fill:#ee811e;}</style></defs><title>Chilenos exterior400</title><g id="Capa_2" data-name="Capa 2"><g id="Capa_1-2" data-name="Capa 1"><path class="cls-1" d="M.55,24.9C.55,11.05,9.89,1.83,23.87,1.83c7.38,0,13.12,2.63,17.39,7.33l-4.09,4.15A16.49,16.49,0,0,0,24.05,7.2C14,7.2,7.32,14.28,7.32,24.9s6.72,18,16.67,18a16.35,16.35,0,0,0,14.22-7.57l4.45,4C38.45,44.92,32,48.22,23.93,48.22,10,48.22.55,38.88.55,24.9Z"/><path class="cls-1" d="M79.34,27.1V47.61H73.12V28.2c0-5.07-3.61-8.42-9-8.42s-9,3.35-9,8.42V47.61H48.82V0h6.23V19.65c2.32-3.35,6.17-5.25,11.11-5.25C74,14.4,79.34,19.47,79.34,27.1Z"/><path class="cls-1" d="M87.46,4.33a3.88,3.88,0,1,1,7.75,0,3.88,3.88,0,1,1-7.75,0ZM88.25,15h6.23V47.61H88.25Z"/><path class="cls-1" d="M103.87,0h6.23V47.61h-6.23Z"/><path class="cls-1" d="M149,33.57H124.14c.6,5.92,3.72,9.71,9.4,9.71a11.52,11.52,0,0,0,9.33-4.77l4.77,2.57a16.47,16.47,0,0,1-14,7.14c-9.59,0-16.06-6.72-16.06-16.79s6.29-17,15.81-17S149.1,21,149.1,30.88A19.67,19.67,0,0,1,149,33.57ZM124.14,29.3h18.55c-.55-6.23-4-9.95-9.34-9.95S124.69,23.13,124.14,29.3Z"/><path class="cls-1" d="M186.7,27.1V47.61h-6.23V28.2c0-5.07-3.6-8.42-9-8.42s-9,3.35-9,8.42V47.61h-6.22V15h6l.12,4.82c2.32-3.48,6.23-5.44,11.23-5.44C181.39,14.4,186.7,19.47,186.7,27.1Z"/><path class="cls-1" d="M193.53,31.31c0-10.13,6.83-16.91,17-16.91s17,6.78,17,16.91-6.84,16.91-17,16.91S193.53,41.44,193.53,31.31Zm27.53,0c0-6.89-4.22-11.53-10.5-11.53S200,24.42,200,31.31s4.21,11.54,10.56,11.54S221.06,38.21,221.06,31.31Z"/><path class="cls-1" d="M233.07,44.62l2.45-3.85a16.84,16.84,0,0,0,9.4,2.57c3.84,0,6.41-1.77,6.41-4.46s-2.63-4-6.23-5L242,33c-5.31-1.46-9-3.48-9-8.54,0-6.05,4.88-10.08,12.14-10.08a20.4,20.4,0,0,1,11.66,3.12l-2.69,4.15a15.77,15.77,0,0,0-8.54-2.32c-3.66,0-6.17,1.65-6.17,4.21s2.32,3.6,5.5,4.52l3.11.85c5.25,1.41,9.7,4,9.7,9.46,0,5.92-5.06,9.83-12.87,9.83C240,48.22,235.82,47,233.07,44.62Z"/><path class="cls-2" d="M32.59,91.69H8.79c.61,4.64,3.05,7.57,7.87,7.57a10.21,10.21,0,0,0,8.06-3.9l6.41,3.23a16.85,16.85,0,0,1-14.34,7.2C6.71,105.79,0,99.08,0,89,0,78.57,6.53,71.67,16.42,71.67s16.42,6.6,16.42,16.55A28.14,28.14,0,0,1,32.59,91.69ZM8.79,86.08H24.11c-.61-5-3.23-7.87-7.69-7.87S9.46,81.07,8.79,86.08Z"/><path class="cls-2" d="M71.17,84.49v20.69H62.86V85.83c0-4.27-3-7.08-7.69-7.08s-7.69,2.81-7.69,7.08v19.35h-8.3V72.28h8l.12,4.15A13.41,13.41,0,0,1,58,71.67C65.92,71.67,71.17,76.8,71.17,84.49Z"/><path class="cls-2" d="M125,91.69H101.19c.61,4.64,3,7.57,7.87,7.57a10.21,10.21,0,0,0,8.06-3.9l6.41,3.23a16.85,16.85,0,0,1-14.34,7.2C99.12,105.79,92.4,99.08,92.4,89c0-10.38,6.53-17.28,16.42-17.28s16.42,6.6,16.42,16.55A30.34,30.34,0,0,1,125,91.69Zm-23.81-5.61h15.32c-.61-5-3.23-7.87-7.69-7.87S101.86,81.07,101.19,86.08Z"/><path class="cls-2" d="M131.64,57.57H140v47.61h-8.31Z"/><path class="cls-2" d="M194.26,91.69h-23.8c.61,4.64,3,7.57,7.87,7.57a10.21,10.21,0,0,0,8.06-3.9l6.41,3.23a16.85,16.85,0,0,1-14.34,7.2c-10.08,0-16.79-6.71-16.79-16.84,0-10.38,6.53-17.28,16.42-17.28s16.42,6.6,16.42,16.55A28.14,28.14,0,0,1,194.26,91.69Zm-23.8-5.61h15.32c-.61-5-3.23-7.87-7.69-7.87S171.13,81.07,170.46,86.08Z"/><path class="cls-2" d="M220.51,105.18l-7.63-10.8-7.63,10.8h-9.89l12.57-16.84L196.09,72.28H206l6.9,10,6.89-10h9.89L217.82,88.34l12.58,16.84Z"/><path class="cls-2" d="M255.66,97.55v6.72a22.07,22.07,0,0,1-8.36,1.52c-6,0-10.13-4.15-10.13-10.37V79.06h-5.44V72.28h5.44V62.64h8.3v9.64h9.7v6.78h-9.7V93.71c0,3,1.83,4.94,4.52,4.94A14.3,14.3,0,0,0,255.66,97.55Z"/><path class="cls-2" d="M291.67,91.69h-23.8c.61,4.64,3.05,7.57,7.87,7.57a10.22,10.22,0,0,0,8.06-3.9l6.41,3.23c-2.93,4.4-8.12,7.2-14.35,7.2-10.07,0-16.78-6.71-16.78-16.84,0-10.38,6.53-17.28,16.42-17.28s16.42,6.6,16.42,16.55A30.24,30.24,0,0,1,291.67,91.69Zm-23.8-5.61h15.32c-.61-5-3.24-7.87-7.69-7.87S268.54,81.07,267.87,86.08Z"/><path class="cls-2" d="M318.46,71.67l-.55,7.63c-6.83,0-11.35,3.3-11.35,8.24v17.64h-8.3V72.28h8l.12,4.4C309,73.44,313.15,71.67,318.46,71.67Z"/><path class="cls-2" d="M322.43,62a4.92,4.92,0,1,1,9.83,0,4.92,4.92,0,0,1-9.83,0Zm.79,10.25h8.3v32.9h-8.3Z"/><path class="cls-2" d="M338.05,88.7c0-10.19,7.08-17,17.64-17s17.58,6.84,17.58,17-7.08,17.09-17.58,17.09S338.05,99,338.05,88.7Zm26.61,0c0-6-3.6-10-9-10s-9,4-9,10,3.6,10,9,10S364.66,94.68,364.66,88.7Z"/><path class="cls-2" d="M400,71.67l-.55,7.63c-6.83,0-11.35,3.3-11.35,8.24v17.64h-8.3V72.28h8l.13,4.4C390.54,73.44,394.69,71.67,400,71.67Z"/></g></g></svg>