<?xml version="1.0" encoding="utf-8"?>
<!-- Generator: Adobe Illustrator 25.0.0, SVG Export Plug-In . SVG Version: 6.00 Build 0)  -->
<svg version="1.1" id="Capa_1" xmlns="http://www.w3.org/2000/svg" xmlns:xlink="http://www.w3.org/1999/xlink" x="0px" y="0px"
	 viewBox="0 0 600.77 193.16" style="enable-background:new 0 0 600.77 193.16;" xml:space="preserve">
<style type="text/css">
	.st0{fill:#323E48;}
	.st1{fill:#FFFFFF;}
	.st2{fill:#DB0B34;}
	.st3{fill:#F08019;}
	.st4{fill:#EC760A;}
	.st5{fill:#074D96;}
	.st6{fill:#005AA6;}
</style>
<g>
	<g>
		<path class="st0" d="M247.7,74.77l-3.72,20.16c-4.75,2.1-11.49,3.66-17.72,3.66c-10.9,0-15.43-4.59-14.06-11.99
			c1.41-7.63,8.79-11.76,17.72-11.68c3.5,0,6.46,0.47,8.85,1.4l0.39-2.1c0.82-4.44-1.65-7.09-7.57-7.09
			c-4.44,0-8.49,1.71-10.88,3.27c-1.98-1.09-3.08-3.11-3-5.68c2.57-2.1,8.74-5.21,15.91-5.21C243.35,59.51,249.71,63.87,247.7,74.77
			 M229.02,91.72c2.78,0,5.43-0.47,7.8-1.16l1.45-7.91c-2.22-1.01-5-1.47-8.1-1.47c-4.34,0-7.55,1.47-8.2,4.96
			C221.37,89.48,223.59,91.72,229.02,91.72"/>
		<path class="st0" d="M497.38,74.77l-3.72,20.16c-4.75,2.1-11.49,3.66-17.72,3.66c-10.9,0-15.43-4.59-14.06-11.99
			c1.41-7.63,8.79-11.76,17.72-11.68c3.5,0,6.46,0.47,8.85,1.4l0.39-2.1c0.82-4.44-1.65-7.09-7.57-7.09
			c-4.44,0-8.49,1.71-10.88,3.27c-1.98-1.09-3.08-3.11-3-5.68c2.57-2.1,8.74-5.21,15.91-5.21
			C493.03,59.51,499.39,63.87,497.38,74.77 M478.7,91.72c2.78,0,5.43-0.47,7.8-1.16l1.45-7.91c-2.22-1.01-5-1.47-8.1-1.47
			c-4.34,0-7.55,1.47-8.2,4.96C471.06,89.48,473.28,91.72,478.7,91.72"/>
		<path class="st0" d="M290.34,79.13c2.18-11.84,12.04-19.7,23.17-19.7c5.53,0,9.8,2.18,11.68,4.21c-1.08,2.49-3.32,4.9-5.91,6.31
			c-1.58-1.56-3.75-2.88-7.1-2.88c-7.24,0-11.68,5.53-12.87,11.99c-1.16,6.31,1.15,11.91,8.55,11.91c4.36,0,6.95-1.79,8.75-3.11
			c2.04,1.17,3.29,3.27,3.56,6c-2.85,2.34-7.96,4.75-13.8,4.75C294.62,98.59,288.07,91.43,290.34,79.13"/>
		<path class="st0" d="M322.66,79.05c2.11-11.45,11.95-19.62,23.31-19.62c11.37,0,17.9,8.1,15.77,19.62
			c-2.1,11.37-11.93,19.54-23.3,19.54C327.08,98.59,320.54,90.58,322.66,79.05 M352.87,79.05c1.31-7.08-1.84-11.99-8.46-11.99
			c-6.61,0-11.57,4.91-12.88,11.99c-1.29,7.01,1.87,11.84,8.49,11.84C346.65,90.89,351.58,86.06,352.87,79.05"/>
		<path class="st0" d="M398.93,94c1.22-2.8,3.09-4.91,5.17-6.08c1.96,1.64,4.85,3.66,10.69,3.66c5.22,0,7.45-1.95,7.9-4.44
			c0.46-2.49-1.39-3.89-7.82-4.9c-6.35-1.01-12.13-3.42-10.7-11.21c1.26-6.85,8.27-11.52,17.62-11.52c6.7,0,11.1,1.87,13.2,3.58
			c-0.89,2.72-2.46,4.9-4.51,6.31c-2.3-1.48-5.87-2.8-10.3-2.8c-4.68,0-6.97,1.48-7.4,3.82c-0.44,2.41,0.98,3.58,7.1,4.59
			c7.79,1.24,13.13,3.97,11.77,11.29c-1.42,7.71-8.19,12.38-18.32,12.38C405.07,98.67,400.7,95.79,398.93,94"/>
		<path class="st0" d="M540.1,79.05c2.11-11.45,11.94-19.62,23.31-19.62c11.37,0,17.9,8.1,15.77,19.62
			c-2.1,11.37-11.93,19.54-23.3,19.54C544.52,98.59,537.98,90.58,540.1,79.05 M570.3,79.05c1.31-7.08-1.83-11.99-8.45-11.99
			s-11.57,4.91-12.88,11.99c-1.3,7.01,1.86,11.84,8.48,11.84C564.08,90.89,569.02,86.06,570.3,79.05"/>
		<path class="st0" d="M532.8,49.8l-2.02,10.95c-1.88-0.78-4.14-1.16-7.26-1.16c-11.06,0-21.48,7.55-23.72,19.7
			c-2.29,12.45,4.69,19.31,16.84,19.31c5.99,0,12.44-1.63,16.63-3.66l8.79-47.69L532.8,49.8z M525.45,89.72
			c-2.5,0.86-4.98,1.25-7.53,1.17c-6.7,0-10.46-4.52-9.13-11.76c1.32-7.16,7.08-11.76,13.61-11.76c2.65,0,5.01,0.31,6.86,1.63
			L525.45,89.72z"/>
		<path class="st0" d="M463.98,61.07H450.2l1.77-9.6l-9.18,2.54l-5.91,32.05c-1.64,8.87,3.54,12.45,11.48,12.45
			c5.06,0,9.18-2.02,11.79-3.97c0.13-2.41-0.96-4.91-2.6-6.15c-1.37,1.09-3.96,2.5-6.61,2.5c-3.66,0-5.97-1.4-4.97-6.86l2.91-15.8
			h13.78c0.54-1.24,0.84-2.41,1.06-3.66C463.94,63.4,464.08,62.24,463.98,61.07"/>
		<path class="st0" d="M404.55,47.44h-31.99l0,0.02h-3.15l1.76,5.65c0.09,0.28,0.14,0.58,0.14,0.89c0,0.15-0.02,0.3-0.03,0.44
			l-7.92,42.99h32.7c0.63-1.33,1.04-2.73,1.3-4.13c0.23-1.25,0.32-2.57,0.16-3.82h-23.9l2.52-13.7h20.63
			c0.57-1.4,0.95-2.65,1.2-3.97c0.25-1.32,0.33-2.64,0.26-3.97h-20.63l2.28-12.38h23.2c0.56-1.32,0.94-2.57,1.2-3.97
			C404.52,50.17,404.64,48.69,404.55,47.44"/>
		<path class="st0" d="M273.26,59.43c-3.55,0-6.92,0.63-9.89,1.56c-0.23,0.07-0.48,0.12-0.74,0.12c-0.28,0-0.55-0.05-0.8-0.13v0.01
			l-6.18-1.84l-1.13,6.12l-0.02,0.01l-5.93,32.16c1.42,0.31,2.89,0.39,4.29,0.39c1.48,0,3.05-0.08,4.51-0.39l5.14-27.87
			c1.9-1.02,5.12-2.03,8.55-2.03c5.68,0,8.48,2.57,7.24,9.35l-3.79,20.55c1.5,0.31,2.89,0.39,4.37,0.39c1.4,0,2.98-0.08,4.51-0.39
			l4.18-22.66C289.12,66.28,285.17,59.43,273.26,59.43"/>
		<path class="st0" d="M211.74,60.68c1.62-8.8-3.23-13.78-16.38-13.78c-0.1,0-0.2,0-0.3,0l-18.45-0.08l2.02,6.02
			c0.1,0.3,0.15,0.62,0.15,0.95c0,0.22-0.02,0.43-0.07,0.63l-7.91,42.92c3.83,0.78,8.73,1.25,15.34,1.25
			c14.09,0,21.94-5.84,23.69-15.33c1.16-6.31-1.42-10.05-6.38-11.84C207.61,69.56,210.71,66.28,211.74,60.68 M200.99,83.1
			c-1.02,5.61-4.91,8.1-13.17,8.1c-2.72,0-5.03-0.16-7.01-0.39l2.8-15.19h8.41C198.71,75.62,201.9,78.12,200.99,83.1 M203.13,60.91
			c-0.86,4.67-3.92,7.32-10.46,7.32h-7.71l2.53-13.78c2.46-0.23,4.81-0.31,7.07-0.31C201.03,54.14,203.92,56.63,203.13,60.91"/>
	</g>
	<g>
		<path class="st0" d="M571.04,117.15l-0.21-0.2c-0.24-0.22-0.56-0.52-1.02-0.84c-3.76-2.56-9.33-4.03-15.28-4.03
			c-5.78,0-11.01,1.34-14.7,3.77c-1.45,0.95-2.69,2.02-3.74,3.19c-0.61-1.56-1.81-2.82-3.58-3.75c-4.07-2.13-8.7-3.18-14.18-3.19
			h-0.13c-4.93,0-12.14,0.68-17.76,6.58c-0.98,1.03-1.79,2.14-2.46,3.31c-1.7-3.87-4.88-6.78-9.21-8.27
			c-3.23-1.11-6.42-1.67-9.47-1.67c-4.47,0-8.6,1.19-12.33,3.49l-5.39-1.93c-0.26-0.08-0.51-0.17-0.74-0.25
			c-0.67-0.23-1.43-0.5-2.32-0.68c-2.44-0.47-4.89-0.71-7.3-0.71c-5.11,0-10.18,1.08-15.09,3.2c-3.01,1.3-4.81,3.62-5.34,6.88
			c-0.24,1.44-0.49,2.9-0.73,4.36c-2.12-6.9-7.49-11.91-14.92-13.56c-2.51-0.56-5.07-0.84-7.59-0.84c-3.78,0-7.55,0.64-11.26,1.88
			l-11.6-0.64c-1.8-0.1-3.41-0.18-5.03-0.29c-0.24-0.02-0.47-0.02-0.7-0.02c-2.17,0-5.26,0.71-7.71,4.08
			c-0.98,1.35-1.98,2.68-3.01,4.03c-0.58-1.2-1.17-2.39-1.76-3.57c-1.61-3.22-3.81-4.12-5.36-4.31c-1.31-0.16-2.59-0.24-3.82-0.24
			c-2.64,0-5.12,0.35-7.58,1.08l-6.08,1.8c-1.2-0.84-2.54-1.53-4.02-2.04c-3.28-1.15-6.51-1.73-9.6-1.73
			c-6.3,0-11.93,2.32-16.75,6.88c-6.92,6.55-9.74,15.38-8.4,26.23c0.97,7.87,5.4,13.56,12.46,16c3.3,1.14,6.62,1.72,9.88,1.72
			c4.31,0,8.5-1.02,12.5-3.01c0.25,1.1,1.22,1.9,2.36,1.91l2.28,0.03c0.74,0.01,1.48,0.03,2.23,0.05c1.2,0.03,2.41,0.06,3.61,0.06
			c0.9,0,1.79-0.02,2.68-0.06c2.73-0.13,5-1.73,6.23-3.18c1.47-1.75,2.9-3.49,4.34-5.27c0.71,1.42,1.43,2.85,2.16,4.26
			c1.33,2.58,3.35,4.04,5.68,4.12c1.83,0.07,3.6,0.07,5.08,0.07l3.99-0.01c-0.29,1.69-0.58,3.4-0.88,5.17l-1.26,7.43
			c-0.2,1.18,0.71,2.26,1.9,2.26h3.94l4.35-0.01c0.93,0,1.84,0.01,2.75,0.03l0.22,0c3.9,0,6.69-2.47,7.28-6.44
			c0.37-2.52,0.8-5.03,1.24-7.64c1.21,0.12,2.39,0.18,3.55,0.18c4.99,0,9.61-1.17,13.72-3.47c3.46-1.94,6.27-4.34,8.44-7.17
			c-0.49,2.84-0.96,5.59-1.28,7.43c-0.2,1.18,0.71,2.26,1.9,2.26h3.94l4.44-0.01c0.93,0,1.84,0.01,2.74,0.03l0.23,0
			c3.85,0,6.64-2.42,7.29-6.32c0.69-4.21,1.43-8.42,2.16-12.63c0.58-3.32,1.16-6.64,1.72-9.97c0.15-0.91,0.29-1.63,0.41-2.14
			c0.4-0.02,0.96-0.04,1.76-0.04l0.46,0c0.23,0,0.6,0.05,0.99,0.09l0.32,0.04c0.9,0.11,1.66,0.17,2.37,0.19
			c-1.31,4.45-1.56,9.42-0.73,14.87c1.24,8.13,6.31,13.74,14.29,15.8c2.68,0.69,5.34,1.04,7.92,1.04c5.3,0,10.33-1.46,14.96-4.33
			c0.36-0.23,0.98-0.62,1.64-1.16c0.55,0.53,1.21,1.04,2.07,1.5c5.11,2.76,10.32,4.16,15.5,4.16c4.35,0,8.69-0.99,12.9-2.95
			c1.89-0.88,3.54-2.03,4.92-3.4c0.5,0.6,1.13,1.17,1.91,1.69c4.14,2.77,9.01,4.25,14.9,4.51c0.64,0.03,1.28,0.04,1.91,0.04
			c6.21,0,11.24-1.54,15.37-4.7c5.03-3.84,7.41-9.36,6.88-15.93c-0.41-5.07-3.07-8.2-5.73-10.12c3.48-0.29,5.21-2.97,6.39-4.77
			c0.65-1.01,1.15-2.01,1.59-2.9c0.16-0.33,0.33-0.66,0.5-0.99C573.34,121.38,572.86,118.75,571.04,117.15"/>
		<path class="st1" d="M395.56,156.6c-0.75,4.48-1.52,8.7-2.15,12.95c-0.21,1.4-0.78,1.98-2.18,1.95c-2.32-0.05-4.63-0.01-7.22-0.01
			c0.65-3.79,1.21-7.2,1.81-10.61c2.25-12.82,4.5-25.64,6.81-38.45c0.12-0.69,0.64-1.59,1.22-1.87c6.41-3.09,13.18-4.09,20.12-2.54
			c7.09,1.57,11.39,6.84,11.78,14.2c0.51,9.58-2.38,17.66-11.2,22.6c-5.61,3.14-11.69,3.34-17.88,2.07
			C396.38,156.82,396.09,156.73,395.56,156.6 M396.95,148.52c3.56,1.2,6.93,1.53,10.31,0.61c6.66-1.8,10.41-8.84,8.97-16.68
			c-0.75-4.1-3.65-6.73-7.8-6.99c-1.32-0.08-2.66-0.07-3.98,0.06c-3.44,0.34-3.68,0.61-4.21,3.98c-0.06,0.37-0.14,0.74-0.2,1.12
			C399.02,136.52,398,142.42,396.95,148.52"/>
		<path class="st1" d="M468.5,140.19c-1.05,6.53,3.94,11.15,10.85,9.73c2.88-0.59,8.65-4.24,10.1-2.4c2.42,3.07,2.51,4.54-0.74,6.55
			c-5.87,3.64-12.21,4.37-18.8,2.66c-5.92-1.53-9.49-5.49-10.41-11.51c-1.28-8.43,0.22-16.26,6.59-22.38
			c6-5.77,13.26-6.78,20.98-4.14c4.17,1.43,6.63,4.61,7,9.08c0.38,4.55-1.31,8.21-5.29,10.59c-5.22,3.12-10.95,3.17-16.76,2.46
			C470.84,140.7,469.67,140.41,468.5,140.19 M468.89,134.31c3.41,0.23,6.52,0.58,9.63,0.58c1.39,0,2.86-0.52,4.13-1.14
			c1.98-0.96,2.62-2.8,2.4-4.93c-0.21-2.02-1.48-3.25-3.32-3.67c-1.44-0.33-3.03-0.47-4.46-0.21
			C472.47,125.82,470.35,129.35,468.89,134.31"/>
		<path class="st1" d="M567.56,121.09c-0.61,1.16-1.13,2.37-1.84,3.47c-1.83,2.83-2.12,2.86-5.18,1.63
			c-3.47-1.4-7.05-2.02-10.76-1.13c-1.7,0.41-3.05,1.27-3.25,3.23c-0.21,1.98,1.14,2.87,2.65,3.48c2.05,0.82,4.17,1.45,6.26,2.17
			c0.48,0.16,0.94,0.36,1.41,0.55c3.85,1.51,7.01,3.7,7.38,8.26c0.37,4.58-1.11,8.49-4.83,11.34c-4.09,3.13-8.91,3.8-13.85,3.58
			c-4.33-0.19-8.51-1.15-12.21-3.63c-1.16-0.78-1.54-1.58-0.76-2.8c0.51-0.8,0.94-1.66,1.54-2.39c1.9-2.33,2.37-2.38,4.88-0.84
			c3.69,2.26,7.72,2.71,11.89,2.06c2.4-0.37,3.87-1.94,4.07-3.9c0.2-2-0.69-3.33-3.22-4.32c-2.29-0.9-4.68-1.54-6.99-2.39
			c-4.05-1.49-7.14-3.88-7.44-8.61c-0.3-4.59,1.63-8.09,5.42-10.58c6.04-3.97,18.18-3.85,24.13,0.21
			C567.05,120.6,567.22,120.79,567.56,121.09"/>
		<path class="st1" d="M518.31,117.37c4.11,0.01,8.06,0.65,11.75,2.59c1.2,0.63,1.57,1.32,0.84,2.52c-0.46,0.75-0.83,1.57-1.33,2.3
			c-1.81,2.62-2.03,2.65-4.93,1.46c-3.4-1.4-6.92-2.02-10.58-1.25c-1.85,0.39-3.38,1.25-3.56,3.38c-0.18,2.07,1.35,2.9,2.9,3.51
			c2.88,1.13,5.89,1.96,8.72,3.19c4.5,1.96,6.43,5.06,6.16,9.47c-0.3,4.87-2.48,8.75-6.91,10.81c-8,3.72-15.96,3.11-23.69-1.07
			c-1.61-0.87-1.98-1.96-0.9-3.48c0.47-0.67,0.87-1.4,1.39-2.03c1.89-2.26,2.3-2.31,4.75-0.79c3.68,2.28,7.71,2.71,11.89,2.1
			c0.84-0.12,1.71-0.54,2.42-1.03c2.39-1.65,2.35-5-0.16-6.47c-1.4-0.82-3-1.3-4.54-1.88c-1.66-0.62-3.39-1.06-5-1.77
			c-6.88-3.03-8.5-11.13-3.29-16.6C508.06,118.31,513.04,117.36,518.31,117.37"/>
		<path class="st1" d="M381.17,156.62c-3.6,0-6.67,0.05-9.74-0.06c-0.42-0.01-0.93-0.76-1.19-1.28c-1.65-3.2-3.24-6.44-4.85-9.66
			c-0.27-0.55-0.58-1.08-0.98-1.82c-3.2,3.97-6.22,7.79-9.35,11.51c-0.57,0.67-1.61,1.28-2.46,1.32c-2.72,0.13-6.15-0.02-8.88-0.06
			c-0.04-0.21,2.68-3.11,3.75-4.34c4.06-4.7,8.09-9.41,12.21-14.06c0.84-0.95,0.98-1.61,0.33-2.76c-2.97-5.36-5.83-10.79-8.81-16.35
			c3.14-0.93,6.2-1.04,9.27-0.66c0.49,0.06,1.01,0.87,1.3,1.44c1.8,3.61,3.53,7.25,5.41,11.15c2.9-3.76,5.7-7.25,8.31-10.86
			c1.01-1.4,2.16-2.01,3.81-1.9c2.37,0.15,4.75,0.27,7.7,0.43c-0.86,1.06-1.3,1.63-1.76,2.18c-4.47,5.26-8.92,10.54-13.43,15.76
			c-0.79,0.91-0.88,1.57-0.28,2.64C374.67,144.8,377.73,150.41,381.17,156.62"/>
		<path class="st1" d="M430.14,156.65c0.9-5.22,1.71-9.94,2.53-14.66c1.1-6.35,2.25-12.7,3.29-19.06c0.24-1.47,0.87-2.3,2.24-2.9
			c6.23-2.7,12.64-3.45,19.3-2.15c0.78,0.15,1.53,0.48,2.48,0.78c-0.36,1.29-0.59,2.46-1.01,3.56c-1.43,3.76-1.83,3.98-5.7,3.53
			c-0.63-0.07-1.26-0.16-1.89-0.17c-6.21-0.03-6.82,0.52-7.84,6.56c-1.27,7.54-2.64,15.07-3.88,22.62
			c-0.23,1.42-0.84,1.94-2.21,1.91C435.12,156.61,432.79,156.65,430.14,156.65"/>
		<path class="st1" d="M319.16,140.19c-1.05,6.53,3.94,11.15,10.85,9.73c2.88-0.59,8.65-4.24,10.1-2.4
			c2.42,3.07,2.51,4.54-0.74,6.55c-5.87,3.64-12.21,4.37-18.8,2.66c-5.92-1.53-9.49-5.49-10.41-11.51
			c-1.28-8.43,0.22-16.26,6.59-22.38c6-5.77,13.26-6.78,20.98-4.14c4.17,1.43,6.63,4.61,7,9.08c0.38,4.55-1.31,8.21-5.29,10.59
			c-5.22,3.12-10.95,3.17-16.76,2.46C321.5,140.7,320.33,140.41,319.16,140.19 M319.55,134.31c3.41,0.23,6.52,0.58,9.63,0.58
			c1.39,0,2.86-0.52,4.13-1.14c1.98-0.96,2.62-2.8,2.4-4.93c-0.21-2.02-1.48-3.25-3.32-3.67c-1.44-0.33-3.03-0.47-4.46-0.21
			C323.13,125.82,321,129.35,319.55,134.31"/>
	</g>
	<g>
		<path class="st2" d="M18.59,96.6l45.76-19.88V62l0.02-0.01c14.72-2.27,26.54-9.24,36.8-20.56v0.02l45.78,37.38V32.05H18.59V96.6z"
			/>
		<path class="st1" d="M64.42,139.03h36.76V41.45v-0.02C90.92,52.76,79.1,59.72,64.37,61.99L64.35,62v14.72L18.59,96.6v14.36
			l45.79-20.07v-14.2l14.7-6.42v14.2l-14.65,6.41v14.01l14.68-6.42v14.04l-14.7,6.43v-14.02l-45.82,20.09v14.03l45.83-20.1V139.03z"
			/>
		<polygon class="st3" points="64.4,104.88 64.42,104.88 64.42,90.87 64.37,90.88 64.37,90.88 18.59,110.95 18.59,124.99 
			64.4,104.91 		"/>
		<polygon class="st3" points="64.42,118.93 18.59,139.03 18.59,139.03 64.42,139.03 		"/>
		<polygon class="st3" points="64.42,90.87 79.07,84.46 79.07,70.31 64.37,76.74 64.37,90.88 64.42,90.86 		"/>
		<rect x="64.37" y="90.87" class="st4" width="0.05" height="0"/>
		<polygon class="st3" points="64.4,104.91 64.4,118.93 79.1,112.5 79.1,98.46 64.42,104.88 64.42,104.9 		"/>
		<polygon class="st4" points="64.4,104.91 64.42,104.9 64.42,104.88 64.4,104.88 		"/>
		<polygon class="st3" points="101.22,139.03 146.96,139.03 146.96,78.83 101.18,41.45 		"/>
		<polygon class="st4" points="101.18,139.03 101.22,139.03 101.18,41.45 		"/>
		<rect x="18.59" y="160.41" class="st5" width="128.37" height="0.02"/>
		<polygon class="st6" points="101.22,139.03 101.18,139.03 64.42,139.03 18.59,139.03 18.59,160.41 146.96,160.41 146.96,139.03 		
			"/>
		<line class="st5" x1="101.22" y1="139.03" x2="101.18" y2="139.03"/>
	</g>
</g>
</svg>
