<?xml version="1.0" encoding="utf-8"?>
<!-- Generator: Adobe Illustrator 25.0.0, SVG Export Plug-In . SVG Version: 6.00 Build 0)  -->
<svg version="1.1" id="Capa_1" xmlns="http://www.w3.org/2000/svg" xmlns:xlink="http://www.w3.org/1999/xlink" x="0px" y="0px"
	 viewBox="0 0 260 90" style="enable-background:new 0 0 260 90;" xml:space="preserve">
<style type="text/css">
	.st0{fill:#1F2C36;}
	.st1{fill:#DE7D1E;}
	.st2{fill:#FF8300;}
	.st3{fill:#ED8500;}
</style>
<g>
	<g>
		<path class="st0" d="M438.1,51.06v17.46h-1.57l-0.04-2.55c-0.81,1.68-2.37,2.78-4.72,2.78c-3.31,0-5.69-2.44-5.69-6.11
			c0-3.69,2.37-6.18,5.69-6.18c2.35,0,3.92,1.1,4.72,2.78v-8.17H438.1z M436.49,62.61c0-2.84-1.75-4.75-4.34-4.75
			c-2.62,0-4.36,1.9-4.36,4.77c0,2.82,1.75,4.72,4.36,4.72C434.74,67.35,436.49,65.45,436.49,62.61z"/>
		<path class="st0" d="M452.19,63.19h-9.45c0.2,2.57,1.59,4.25,3.94,4.25c1.59,0,2.91-0.78,3.83-2.01l1.23,0.69
			c-1.14,1.7-2.95,2.62-5.06,2.62c-3.38,0-5.66-2.46-5.66-6.16c0-3.67,2.24-6.13,5.62-6.13c3.34,0,5.57,2.39,5.57,6
			C452.21,62.65,452.21,63.01,452.19,63.19z M442.74,62.05h7.79c-0.13-2.64-1.61-4.3-3.89-4.3
			C444.35,57.75,442.9,59.41,442.74,62.05z"/>
		<path class="st0" d="M473.26,63.91c0,2.78-2.13,4.61-5.33,4.61h-6.56V51.95h6.16c2.98,0,4.97,1.68,4.97,4.18
			c0,1.75-1.01,3.05-2.69,3.72C471.94,60.37,473.26,61.87,473.26,63.91z M463.07,59.29h4.1c2.15,0,3.56-1.19,3.56-2.95
			c0-1.79-1.46-2.98-3.65-2.98h-4.01V59.29z M471.49,63.91c0-1.9-1.5-3.18-3.74-3.18h-4.68v6.38h4.68
			C469.99,67.11,471.49,65.83,471.49,63.91z"/>
		<path class="st0" d="M485.13,61.06v7.45h-1.57l-0.04-2.48c-0.83,1.72-2.51,2.71-4.39,2.71c-2.33,0-3.89-1.37-3.89-3.45
			c0-2.15,1.92-3.6,4.83-3.6c1.1,0,2.33,0.13,3.45,0.4v-0.83c0-2.15-1.37-3.51-3.54-3.51c-1.41,0-2.42,0.47-3.24,1.32L476,58.09
			c1.07-1.05,2.46-1.63,4.36-1.63C483.25,56.45,485.13,58.29,485.13,61.06z M483.52,63.23c-1.05-0.25-2.22-0.38-3.25-0.38
			c-2.01,0-3.36,0.96-3.36,2.39c0,1.39,1.01,2.28,2.66,2.28C481.46,67.53,483.52,65.99,483.52,63.23z"/>
		<path class="st0" d="M499.37,61.06v7.45h-1.61v-7.14c0-2.13-1.5-3.51-3.74-3.51c-2.26,0-3.76,1.39-3.76,3.51v7.14h-1.61V56.68
			h1.57l0.02,1.99c0.78-1.39,2.22-2.22,4.28-2.22C497.42,56.45,499.37,58.29,499.37,61.06z"/>
		<path class="st0" d="M502.11,62.58c0-3.67,2.44-6.13,6.09-6.13c1.52,0,2.75,0.45,3.83,1.3l-0.92,1.12
			c-0.85-0.69-1.77-1.01-2.91-1.01c-2.64,0-4.39,1.88-4.39,4.75c0,2.84,1.77,4.74,4.41,4.74c1.23,0,2.39-0.42,3.22-1.28l0.94,1.1
			c-1.07,1.03-2.57,1.57-4.28,1.57C504.53,68.74,502.11,66.28,502.11,62.58z"/>
		<path class="st0" d="M513.75,62.61c0-3.69,2.44-6.16,6.07-6.16c3.6,0,6.02,2.46,6.02,6.16c0,3.67-2.42,6.13-6.02,6.13
			C516.19,68.74,513.75,66.28,513.75,62.61z M524.14,62.61c0-2.86-1.72-4.75-4.32-4.75c-2.62,0-4.36,1.88-4.36,4.75
			c0,2.84,1.75,4.74,4.36,4.74C522.42,67.35,524.14,65.45,524.14,62.61z"/>
		<path class="st0" d="M539.55,67.11v1.41h-10.41V51.95h10.21v1.41h-8.5v6h7.95v1.41h-7.95v6.33H539.55z"/>
		<path class="st0" d="M542.04,67.49l0.67-1.01c0.99,0.72,2.17,0.96,3.4,0.96c1.68,0,2.8-0.78,2.8-1.99c0-1.12-1.05-1.74-2.48-2.15
			l-1.28-0.38c-1.86-0.52-3.13-1.25-3.13-3.02c0-2.08,1.66-3.45,4.16-3.45c1.59,0,2.89,0.34,4.03,1.08l-0.69,1.1
			c-1.01-0.63-2.08-0.87-3.22-0.87c-1.57,0-2.62,0.74-2.62,1.9c0,1.1,0.92,1.59,2.19,1.95l1.28,0.38c1.79,0.49,3.42,1.39,3.42,3.34
			c0,2.06-1.72,3.42-4.45,3.42C544.43,68.74,542.96,68.31,542.04,67.49z"/>
		<path class="st0" d="M560.02,66.93v1.32c-0.78,0.34-1.75,0.49-2.86,0.49c-1.9,0-3.2-1.32-3.2-3.27v-7.45h-2.06v-1.34h2.06v-3.47
			h1.61v3.47h4.27v1.34h-4.27v7.14c0,1.3,0.85,2.19,2.08,2.19C558.47,67.35,559.26,67.22,560.02,66.93z"/>
		<path class="st0" d="M571.01,61.06v7.45h-1.57l-0.04-2.48c-0.83,1.72-2.51,2.71-4.39,2.71c-2.33,0-3.89-1.37-3.89-3.45
			c0-2.15,1.92-3.6,4.83-3.6c1.1,0,2.33,0.13,3.45,0.4v-0.83c0-2.15-1.37-3.51-3.54-3.51c-1.41,0-2.42,0.47-3.25,1.32l-0.74-0.98
			c1.07-1.05,2.46-1.63,4.36-1.63C569.13,56.45,571.01,58.29,571.01,61.06z M569.4,63.23c-1.05-0.25-2.22-0.38-3.25-0.38
			c-2.01,0-3.36,0.96-3.36,2.39c0,1.39,1.01,2.28,2.66,2.28C567.34,67.53,569.4,65.99,569.4,63.23z"/>
		<path class="st0" d="M585.77,51.06v17.46h-1.57l-0.04-2.55c-0.81,1.68-2.37,2.78-4.72,2.78c-3.31,0-5.69-2.44-5.69-6.11
			c0-3.69,2.37-6.18,5.69-6.18c2.35,0,3.92,1.1,4.72,2.78v-8.17H585.77z M584.16,62.61c0-2.84-1.75-4.75-4.34-4.75
			c-2.62,0-4.36,1.9-4.36,4.77c0,2.82,1.75,4.72,4.36,4.72C582.41,67.35,584.16,65.45,584.16,62.61z"/>
		<path class="st0" d="M588.67,62.61c0-3.69,2.44-6.16,6.07-6.16c3.6,0,6.02,2.46,6.02,6.16c0,3.67-2.42,6.13-6.02,6.13
			C591.11,68.74,588.67,66.28,588.67,62.61z M599.05,62.61c0-2.86-1.72-4.75-4.32-4.75c-2.62,0-4.36,1.88-4.36,4.75
			c0,2.84,1.75,4.74,4.36,4.74C597.33,67.35,599.05,65.45,599.05,62.61z"/>
	</g>
	<g>
		<path class="st1" d="M587.36,18.38l-2.43,23.15c-2.67,1.22-6.69,2.65-12.25,2.65c-7.84,0-10.93-3.87-10.29-9.96l1.66-15.84
			c1.08-0.21,2.09-0.26,3.1-0.26c0.95,0,2.01,0.05,2.94,0.26l-1.48,14.09c-0.43,4.08,0.39,6.36,5.42,6.36
			c1.96,0,3.64-0.32,5.24-0.95l2.05-19.5c1.03-0.21,2.09-0.26,3.05-0.26C585.38,18.12,586.38,18.17,587.36,18.38"/>
		<path class="st1" d="M591.84,13.88l5.36-6.17c2.04,0.79,3.19,2.38,3.55,4.56l-7.29,3.79C592.56,15.63,592.05,14.94,591.84,13.88
			 M588.74,43.39l2.63-25.01c1.03-0.21,2.04-0.26,3.05-0.26c0.95,0,2.01,0.05,2.94,0.26l-2.63,25.01c-0.98,0.21-1.99,0.27-3,0.27
			C590.78,43.65,589.72,43.6,588.74,43.39"/>
		<path class="st1" d="M560.94,21.35l-3.15,29.48c-1.03,0.21-2.04,0.27-3.05,0.27c-0.95,0-2.01-0.05-2.94-0.27l0.8-7.6
			c-1.55,0.64-3.33,0.95-5.29,0.95c-7.58,0-13.04-4.5-12.15-12.93c0.91-8.64,7.74-13.67,15.21-13.67
			C555.08,17.59,558.82,19.28,560.94,21.35 M553.23,37.72l1.41-13.46c-1.5-0.85-3.1-1.27-4.79-1.27c-4.5,0-8.12,3.13-8.63,8
			c-0.52,4.93,2.36,7.79,6.86,7.79C550.1,38.78,551.78,38.41,553.23,37.72"/>
		<path class="st1" d="M533.69,21.35l-2.41,22.43c-1.03,0.21-3.88,0.21-4.82,0l-0.24-2.48c0,0-2.66,2.88-7.42,2.88
			c-6.22,0-11.78-4.5-10.9-12.93c0.91-8.63,7.74-13.67,15.21-13.67C527.83,17.59,531.57,19.28,533.69,21.35 M526.22,35.42
			l1.17-11.16c-1.5-0.85-3.1-1.27-4.79-1.27c-4.5,0-8.12,3.13-8.63,8c-0.52,4.93,2.49,7.79,6.56,7.79
			C524.05,38.78,526.22,35.42,526.22,35.42"/>
	</g>
	<g>
		<path class="st0" d="M448.19,21.35l-2.41,22.43c-1.03,0.21-3.88,0.21-4.82,0l-0.24-2.48c0,0-2.66,2.88-7.42,2.88
			c-6.22,0-11.78-4.5-10.9-12.93c0.91-8.63,7.74-13.67,15.21-13.67C442.33,17.59,446.08,19.28,448.19,21.35 M440.72,35.42
			l1.17-11.16c-1.5-0.85-3.1-1.27-4.79-1.27c-4.5,0-8.12,3.13-8.63,8c-0.52,4.93,2.49,7.79,6.56,7.79
			C438.55,38.78,440.72,35.42,440.72,35.42"/>
		<path class="st0" d="M400.89,18.4c-0.17,1.95-0.88,3.89-2.08,5.3c-1.22-0.32-2.5-0.49-3.85-0.49c-2,0-3.71,0.38-4.9,1.03
			l-1.72,19.68c-0.99,0.22-2.08,0.27-3.1,0.27c-1.03,0-2.05-0.06-3.06-0.27l1.98-22.65c2.1-1.73,6.21-3.68,11.13-3.68
			C397.5,17.59,399.32,17.8,400.89,18.4"/>
		<path class="st0" d="M399.19,30.97c0.7-8.04,6.88-13.38,14.44-13.38c3.75,0,6.8,1.48,8.21,2.85c-0.57,1.69-1.93,3.33-3.6,4.28
			c-1.18-1.06-2.74-1.96-5.01-1.96c-4.92,0-7.57,3.76-7.96,8.14c-0.37,4.28,1.57,8.09,6.59,8.09c2.96,0,4.6-1.22,5.74-2.11
			c1.46,0.79,2.45,2.22,2.82,4.07c-1.78,1.59-5.09,3.22-9.06,3.22C403.38,44.18,398.46,39.32,399.19,30.97"/>
		<path class="st0" d="M477.38,30.91c0.68-7.77,6.82-13.32,14.54-13.32c7.72,0,12.68,5.5,12,13.32
			c-0.68,7.72-6.82,13.27-14.54,13.27C481.66,44.18,476.69,38.74,477.38,30.91 M497.89,30.91c0.42-4.81-2.04-8.14-6.53-8.14
			c-4.49,0-7.54,3.33-7.96,8.14c-0.42,4.76,2.05,8.04,6.54,8.04C494.44,38.95,497.48,35.67,497.89,30.91"/>
		<path class="st0" d="M354.3,27.68l-1.42,16.24c-0.99,0.22-2.07,0.27-3.04,0.27c-1.08,0-2.1-0.05-3.05-0.27l1.26-14.4
			c0.32-3.67-1.07-6.31-5.22-6.31c-2.43,0-4.24,1.03-5.63,2.05c0.09,0.81,0.13,1.62,0.06,2.43l-1.42,16.24
			c-0.99,0.22-2.07,0.27-3.04,0.27c-1.08,0-2.1-0.05-3.11-0.27l1.26-14.4c0.32-3.67-1.01-6.31-5.17-6.31c-2,0-3.94,0.59-5.36,1.4
			l-1.69,19.31c-0.99,0.22-2.07,0.27-3.1,0.27c-0.97,0-1.99-0.05-3-0.27l1.95-22.28c2.21-1.78,7.04-4.05,12.38-4.05
			c3.67,0,6.37,1.13,8.1,2.97c2.25-1.62,5.49-2.97,8.94-2.97C351.41,17.59,354.79,22.12,354.3,27.68"/>
		<path class="st0" d="M376.17,35.89c0.81,0.36,1.48,0.86,2,1.5c0.52,0.65,0.85,1.37,0.99,2.18c-0.75,0.81-1.67,1.58-2.78,2.29
			c-1.11,0.72-2.28,1.26-3.51,1.61c-1.23,0.36-2.37,0.58-3.43,0.67c-2.57,0.23-4.73-0.05-6.47-0.82c-1.74-0.77-3.1-1.91-4.08-3.43
			c-0.98-1.51-1.58-3.43-1.78-5.76c-0.2-2.26-0.04-4.37,0.48-6.36c0.52-1.98,1.34-3.71,2.48-5.2c1.13-1.48,2.5-2.67,4.11-3.56
			c1.61-0.89,3.35-1.41,5.22-1.58c2.96-0.26,5.35,0.23,7.16,1.45c1.81,1.23,2.82,2.99,3.02,5.28c0.15,1.69-0.18,3.17-0.97,4.43
			c-0.8,1.26-2,2.31-3.62,3.14c-1.61,0.83-3.64,1.36-6.07,1.57c-2.01,0.18-3.94,0.08-5.78-0.29l0.02,0.26
			c0.2,2.26,0.86,3.84,1.99,4.75c1.13,0.91,2.71,1.28,4.76,1.1c1.06-0.09,2.07-0.37,3.04-0.83C373.92,37.87,375,37.06,376.17,35.89z
			 M369.44,22.3c-1.66,0.15-3.02,0.82-4.09,2.01c-1.07,1.19-1.77,2.75-2.1,4.66c1.41,0.3,3.21,0.39,5.41,0.27
			c1.66-0.14,2.93-0.58,3.83-1.29c0.9-0.72,1.29-1.69,1.18-2.93c-0.08-0.92-0.51-1.62-1.28-2.13
			C371.63,22.4,370.64,22.2,369.44,22.3z"/>
		<path class="st0" d="M450.06,30.99c0.9-8.53,7.72-13.46,14.71-13.46c2.12,0,3.79,0.21,5.33,0.74l0.74-6
			c0.98-0.21,1.99-0.26,2.99-0.26s1.95,0.05,2.99,0.26l-3.05,28.04c-2.65,2.01-6.82,3.87-11.58,3.87
			C454.5,44.18,449.15,39.68,450.06,30.99 M456.11,30.89c-0.51,4.87,2.31,7.79,6.92,7.79c1.75,0,3.43-0.37,5.05-1.22l1.42-13.56
			c-1.36-0.69-2.91-1.01-4.87-1.01C460.08,22.89,456.64,25.91,456.11,30.89"/>
	</g>
</g>
<g>
	<g>
		<path class="st0" d="M-216.6,35.26c-0.9,8.53-7.72,13.46-14.71,13.46c-2.12,0-3.79-0.21-5.33-0.74l-0.74,7
			c-0.98,0.21-1.99,0.26-2.99,0.26c-1.01,0-1.95-0.05-2.99-0.26l3.05-29.04c2.65-2.01,6.82-3.87,11.58-3.87
			C-221.04,22.07-215.68,26.57-216.6,35.26 M-222.65,35.37c0.51-4.87-2.31-7.79-6.92-7.79c-1.75,0-3.43,0.37-5.05,1.22l-1.43,13.56
			c1.36,0.69,2.91,1.01,4.87,1.01C-226.62,43.37-223.17,40.35-222.65,35.37"/>
		<path class="st1" d="M-82.07,22.92l-2.43,23.15c-2.67,1.22-6.69,2.65-12.25,2.65c-7.84,0-10.93-3.87-10.29-9.96l1.66-15.84
			c1.08-0.21,2.09-0.26,3.1-0.26c0.95,0,2.01,0.05,2.94,0.26l-1.48,14.09c-0.43,4.08,0.39,6.36,5.42,6.36
			c1.96,0,3.64-0.32,5.24-0.95l2.05-19.5c1.03-0.21,2.09-0.26,3.05-0.26C-84.06,22.65-83.06,22.71-82.07,22.92"/>
		<path class="st1" d="M-77.6,18.41l5.36-6.17c2.04,0.79,3.19,2.38,3.55,4.56l-7.29,3.79C-76.88,20.16-77.39,19.48-77.6,18.41
			 M-80.7,47.92l2.63-25.01c1.03-0.21,2.04-0.26,3.05-0.26c0.95,0,2.01,0.05,2.94,0.26l-2.63,25.01c-0.98,0.21-1.99,0.27-3,0.27
			C-78.66,48.19-79.72,48.14-80.7,47.92"/>
		<path class="st1" d="M-108.5,25.89l-3.15,29.48c-1.03,0.21-2.04,0.27-3.05,0.27c-0.95,0-2.01-0.05-2.94-0.27l0.8-7.6
			c-1.55,0.64-3.33,0.95-5.29,0.95c-7.58,0-13.04-4.5-12.15-12.93c0.91-8.64,7.74-13.67,15.21-13.67
			C-114.36,22.12-110.62,23.82-108.5,25.89 M-116.21,42.26l1.41-13.46c-1.5-0.85-3.1-1.27-4.79-1.27c-4.5,0-8.12,3.13-8.63,8
			c-0.52,4.93,2.36,7.79,6.86,7.79C-119.34,43.32-117.66,42.94-116.21,42.26"/>
		<path class="st1" d="M-135.75,25.89l-2.41,22.43c-1.03,0.21-3.88,0.21-4.82,0l-0.24-2.48c0,0-2.66,2.88-7.42,2.88
			c-6.22,0-11.78-4.5-10.9-12.93c0.91-8.63,7.74-13.67,15.21-13.67C-141.61,22.12-137.86,23.82-135.75,25.89 M-143.22,39.95
			l1.17-11.16c-1.5-0.85-3.1-1.27-4.79-1.27c-4.5,0-8.12,3.13-8.63,8c-0.52,4.93,2.49,7.79,6.56,7.79
			C-145.39,43.31-143.22,39.95-143.22,39.95"/>
		<path class="st0" d="M-189.25,25.89l-2.41,22.43c-1.03,0.21-3.88,0.21-4.82,0l-0.24-2.48c0,0-2.66,2.88-7.42,2.88
			c-6.22,0-11.78-4.5-10.9-12.93c0.91-8.63,7.74-13.67,15.21-13.67C-195.1,22.12-191.36,23.82-189.25,25.89 M-196.71,39.95
			l1.17-11.16c-1.5-0.85-3.1-1.27-4.79-1.27c-4.5,0-8.12,3.13-8.63,8c-0.52,4.93,2.49,7.79,6.56,7.79
			C-198.89,43.31-196.71,39.95-196.71,39.95"/>
		<path class="st0" d="M-171.27,47.7c-2.65,0.18-5.13,0.65-7.56,0.46c-4.57-0.34-7.58-3.41-8.32-7.95
			c-1.54-9.45,5.01-17.4,14.73-17.56c2.78-0.04,5.59,0.67,8.35,1.22c0.47,0.09,1.12,1.18,1.06,1.75c-0.7,7.39-1.31,14.8-2.33,22.15
			c-1.44,10.27-14.5,12.45-20.84,6.71c-0.75-0.68-1.88-2.02-1.68-2.32c0.82-1.28,2.06-2.31,3.23-3.33c0.12-0.1,0.86,0.72,1.27,1.06
			c2.77,2.33,6.06,3.08,9.1,1.73C-172.33,50.77-171.39,49.79-171.27,47.7z M-169.27,28.59c-7.02-2.46-12.89,2.55-11.86,9.77
			c0.3,2.08,1.19,3.71,3.22,4.45c2.35,0.86,4.64,0.48,6.77-0.75c0.33-0.19,0.51-0.81,0.56-1.25
			C-170.11,36.77-169.7,32.71-169.27,28.59z"/>
	</g>
	<g>
		<path class="st0" d="M-231.34,57.76v17.46h-1.57l-0.04-2.55c-0.81,1.68-2.37,2.78-4.72,2.78c-3.31,0-5.69-2.44-5.69-6.11
			c0-3.69,2.37-6.18,5.69-6.18c2.35,0,3.92,1.1,4.72,2.78v-8.17H-231.34z M-232.95,69.31c0-2.84-1.75-4.75-4.34-4.75
			c-2.62,0-4.36,1.9-4.36,4.77c0,2.82,1.75,4.72,4.36,4.72C-234.7,74.06-232.95,72.16-232.95,69.31z"/>
		<path class="st0" d="M-217.25,69.9h-9.45c0.2,2.57,1.59,4.25,3.94,4.25c1.59,0,2.91-0.78,3.83-2.01l1.23,0.69
			c-1.14,1.7-2.95,2.62-5.06,2.62c-3.38,0-5.66-2.46-5.66-6.16c0-3.67,2.24-6.13,5.62-6.13c3.34,0,5.57,2.39,5.57,6
			C-217.23,69.36-217.23,69.72-217.25,69.9z M-226.7,68.75h7.79c-0.13-2.64-1.61-4.3-3.89-4.3
			C-225.09,64.46-226.54,66.11-226.7,68.75z"/>
		<path class="st0" d="M-196.18,70.61c0,2.78-2.13,4.61-5.33,4.61h-6.56V58.66h6.16c2.98,0,4.97,1.68,4.97,4.18
			c0,1.75-1.01,3.05-2.69,3.72C-197.5,67.08-196.18,68.57-196.18,70.61z M-206.36,66h4.1c2.15,0,3.56-1.19,3.56-2.95
			c0-1.79-1.46-2.98-3.65-2.98h-4.01V66z M-197.95,70.61c0-1.9-1.5-3.18-3.74-3.18h-4.68v6.38h4.68
			C-199.45,73.81-197.95,72.54-197.95,70.61z"/>
		<path class="st0" d="M-184.31,67.77v7.45h-1.57l-0.04-2.48c-0.83,1.72-2.51,2.71-4.39,2.71c-2.33,0-3.89-1.37-3.89-3.45
			c0-2.15,1.92-3.6,4.83-3.6c1.1,0,2.33,0.13,3.45,0.4v-0.83c0-2.15-1.37-3.51-3.54-3.51c-1.41,0-2.42,0.47-3.24,1.32l-0.74-0.98
			c1.07-1.05,2.46-1.63,4.36-1.63C-186.19,63.16-184.31,64.99-184.31,67.77z M-185.92,69.94c-1.05-0.25-2.22-0.38-3.25-0.38
			c-2.01,0-3.36,0.96-3.36,2.39c0,1.39,1.01,2.28,2.66,2.28C-187.98,74.24-185.92,72.69-185.92,69.94z"/>
		<path class="st0" d="M-170.07,67.77v7.45h-1.61v-7.14c0-2.13-1.5-3.51-3.74-3.51c-2.26,0-3.76,1.39-3.76,3.51v7.14h-1.61V63.38
			h1.57l0.02,1.99c0.78-1.39,2.22-2.22,4.28-2.22C-172.01,63.16-170.07,64.99-170.07,67.77z"/>
		<path class="st0" d="M-167.33,69.29c0-3.67,2.44-6.13,6.09-6.13c1.52,0,2.75,0.45,3.83,1.3l-0.92,1.12
			c-0.85-0.69-1.77-1.01-2.91-1.01c-2.64,0-4.39,1.88-4.39,4.75c0,2.84,1.77,4.74,4.41,4.74c1.23,0,2.39-0.42,3.22-1.28l0.94,1.1
			c-1.07,1.03-2.57,1.57-4.28,1.57C-164.91,75.45-167.33,72.98-167.33,69.29z"/>
		<path class="st0" d="M-155.68,69.31c0-3.69,2.44-6.16,6.07-6.16c3.6,0,6.02,2.46,6.02,6.16c0,3.67-2.42,6.13-6.02,6.13
			C-153.24,75.45-155.68,72.98-155.68,69.31z M-145.3,69.31c0-2.86-1.72-4.75-4.32-4.75c-2.62,0-4.36,1.88-4.36,4.75
			c0,2.84,1.75,4.74,4.36,4.74C-147.02,74.06-145.3,72.16-145.3,69.31z"/>
		<path class="st0" d="M-129.89,73.81v1.41h-10.41V58.66h10.21v1.41h-8.5v6h7.95v1.41h-7.95v6.33H-129.89z"/>
		<path class="st0" d="M-127.4,74.19l0.67-1.01c0.99,0.72,2.17,0.96,3.4,0.96c1.68,0,2.8-0.78,2.8-1.99c0-1.12-1.05-1.74-2.48-2.15
			l-1.28-0.38c-1.86-0.52-3.13-1.25-3.13-3.02c0-2.08,1.66-3.45,4.16-3.45c1.59,0,2.89,0.34,4.03,1.08l-0.69,1.1
			c-1.01-0.63-2.08-0.87-3.22-0.87c-1.57,0-2.62,0.74-2.62,1.9c0,1.1,0.92,1.59,2.19,1.95l1.28,0.38c1.79,0.49,3.42,1.39,3.42,3.34
			c0,2.06-1.72,3.42-4.45,3.42C-125,75.45-126.48,75.02-127.4,74.19z"/>
		<path class="st0" d="M-109.42,73.63v1.32c-0.78,0.34-1.75,0.49-2.86,0.49c-1.9,0-3.2-1.32-3.2-3.27v-7.45h-2.06v-1.34h2.06v-3.47
			h1.61v3.47h4.27v1.34h-4.27v7.14c0,1.3,0.85,2.19,2.08,2.19C-110.96,74.06-110.18,73.92-109.42,73.63z"/>
		<path class="st0" d="M-98.42,67.77v7.45h-1.57l-0.04-2.48c-0.83,1.72-2.51,2.71-4.39,2.71c-2.33,0-3.89-1.37-3.89-3.45
			c0-2.15,1.92-3.6,4.83-3.6c1.1,0,2.33,0.13,3.45,0.4v-0.83c0-2.15-1.37-3.51-3.54-3.51c-1.41,0-2.42,0.47-3.25,1.32l-0.74-0.98
			c1.07-1.05,2.46-1.63,4.36-1.63C-100.3,63.16-98.42,64.99-98.42,67.77z M-100.04,69.94c-1.05-0.25-2.22-0.38-3.25-0.38
			c-2.01,0-3.36,0.96-3.36,2.39c0,1.39,1.01,2.28,2.66,2.28C-102.09,74.24-100.04,72.69-100.04,69.94z"/>
		<path class="st0" d="M-83.67,57.76v17.46h-1.57l-0.04-2.55c-0.81,1.68-2.37,2.78-4.72,2.78c-3.31,0-5.69-2.44-5.69-6.11
			c0-3.69,2.37-6.18,5.69-6.18c2.35,0,3.92,1.1,4.72,2.78v-8.17H-83.67z M-85.28,69.31c0-2.84-1.75-4.75-4.34-4.75
			c-2.62,0-4.36,1.9-4.36,4.77c0,2.82,1.75,4.72,4.36,4.72C-87.02,74.06-85.28,72.16-85.28,69.31z"/>
		<path class="st0" d="M-80.77,69.31c0-3.69,2.44-6.16,6.07-6.16c3.6,0,6.02,2.46,6.02,6.16c0,3.67-2.42,6.13-6.02,6.13
			C-78.33,75.45-80.77,72.98-80.77,69.31z M-70.39,69.31c0-2.86-1.72-4.75-4.32-4.75c-2.62,0-4.36,1.88-4.36,4.75
			c0,2.84,1.75,4.74,4.36,4.74C-72.11,74.06-70.39,72.16-70.39,69.31z"/>
	</g>
</g>
<g>
	<g>
		<path class="st2" d="M225.64,23.88l-1.89,21.65c-2.48,1.14-6.21,2.48-11.42,2.48c-7.33,0-10.29-3.62-9.79-9.31l1.3-14.82
			c1.01-0.2,1.95-0.25,2.9-0.25c0.89,0,1.88,0.05,2.75,0.25l-1.15,13.18c-0.33,3.81,0.47,5.95,5.18,5.95c1.83,0,3.4-0.3,4.89-0.89
			l1.6-18.24c0.96-0.2,1.95-0.25,2.85-0.25C223.77,23.64,224.71,23.68,225.64,23.88"/>
		<path class="st2" d="M226.43,47.27l2.04-23.39c0.96-0.2,1.91-0.25,2.85-0.25c0.89,0,1.88,0.05,2.75,0.25l-2.05,23.39
			c-0.91,0.2-1.86,0.25-2.8,0.25C228.34,47.52,227.35,47.47,226.43,47.27 M228.84,19.67l4.92-5.77c1.92,0.74,3.03,2.23,3.39,4.26
			l-6.75,3.54C229.54,21.31,229.06,20.66,228.84,19.67"/>
		<path class="st2" d="M193.85,41.97l1.1-12.59c-1.42-0.79-2.92-1.19-4.51-1.19c-4.21,0-7.54,2.92-7.94,7.48
			c-0.4,4.61,2.34,7.28,6.55,7.28C190.94,42.96,192.51,42.61,193.85,41.97 M200.79,26.66l-2.46,27.57c-0.96,0.2-1.91,0.25-2.85,0.25
			c-0.89,0-1.88-0.05-2.75-0.25l0.62-7.11c-1.44,0.6-3.1,0.89-4.93,0.89c-7.09,0-12.27-4.21-11.58-12.09
			c0.71-8.08,7.01-12.78,14-12.78C195.25,23.14,198.78,24.73,200.79,26.66"/>
		<path class="st2" d="M168.1,39.82l0.91-10.43c-1.42-0.79-2.92-1.19-4.5-1.19c-4.21,0-7.54,2.92-7.94,7.48
			c-0.4,4.61,2.46,7.28,6.27,7.28C166.12,42.96,168.1,39.82,168.1,39.82 M174.85,26.66l-1.89,20.98c-0.96,0.2-3.63,0.2-4.5,0
			l-0.27-2.32c0,0-2.44,2.7-6.89,2.7c-5.82,0-11.1-4.21-10.41-12.09c0.71-8.08,7.02-12.78,14-12.78
			C169.31,23.14,172.84,24.73,174.85,26.66"/>
		<path class="st0" d="M152.08,23.88c-0.16,1.78-0.81,3.57-1.91,4.86c-1.11-0.3-2.29-0.45-3.53-0.45c-1.83,0-3.4,0.35-4.49,0.94
			l-1.58,18.04c-0.91,0.2-1.91,0.25-2.85,0.25c-0.94,0-1.88-0.05-2.8-0.25l1.82-20.76c1.92-1.59,5.7-3.37,10.2-3.37
			C148.97,23.14,150.64,23.34,152.08,23.88"/>
		<path class="st0" d="M22.31,35.63c0.66-7.53,6.45-12.54,13.54-12.54c3.52,0,6.37,1.39,7.69,2.68c-0.53,1.59-1.81,3.12-3.37,4.01
			c-1.1-0.99-2.56-1.83-4.7-1.83c-4.61,0-7.1,3.52-7.46,7.63c-0.35,4.01,1.47,7.58,6.17,7.58c2.78,0,4.31-1.14,5.38-1.98
			c1.37,0.74,2.3,2.08,2.64,3.82c-1.67,1.49-4.78,3.02-8.49,3.02C26.23,48.02,21.62,43.46,22.31,35.63"/>
		<path class="st0" d="M61.83,35.58c0.39-4.51-1.91-7.63-6.12-7.63c-4.21,0-7.06,3.12-7.46,7.63c-0.39,4.46,1.92,7.53,6.13,7.53
			C58.6,43.11,61.44,40.04,61.83,35.58 M42.61,35.58c0.64-7.28,6.4-12.49,13.63-12.49c7.23,0,11.89,5.15,11.25,12.49
			c-0.63,7.23-6.39,12.44-13.62,12.44C46.62,48.02,41.97,42.91,42.61,35.58"/>
		<path class="st0" d="M107.53,32.36l-1.31,14.92c-0.91,0.2-1.91,0.25-2.8,0.25c-0.99,0-1.93-0.05-2.8-0.25l1.16-13.23
			c0.29-3.37-0.98-5.8-4.79-5.8c-2.23,0-3.9,0.94-5.17,1.88c0.08,0.74,0.12,1.49,0.05,2.23l-1.31,14.92c-0.91,0.2-1.9,0.25-2.8,0.25
			c-0.99,0-1.93-0.05-2.85-0.25l1.16-13.23c0.29-3.37-0.93-5.8-4.74-5.8c-1.83,0-3.62,0.55-4.92,1.29l-1.55,17.74
			c-0.91,0.2-1.91,0.25-2.85,0.25c-0.89,0-1.83-0.05-2.75-0.25l1.79-20.47c2.03-1.63,6.47-3.72,11.37-3.72
			c3.37,0,5.86,1.04,7.44,2.73c2.06-1.49,5.05-2.73,8.22-2.73C104.87,23.09,107.98,27.25,107.53,32.36"/>
		<path class="st0" d="M127.5,35.53c0.4-4.56-2.29-7.28-6.6-7.28c-1.63,0-3.2,0.35-4.71,1.14l-1.11,12.69
			c1.28,0.64,2.74,0.94,4.58,0.94C123.92,43.01,127.09,40.19,127.5,35.53 M133.15,35.43c-0.7,7.98-7,12.59-13.54,12.59
			c-1.98,0-3.55-0.2-4.99-0.69l-0.57,6.55c-0.91,0.2-1.86,0.25-2.8,0.25c-0.94,0-1.83-0.05-2.8-0.25l2.38-27.16
			c2.44-1.88,6.31-3.62,10.77-3.62C128.78,23.09,133.86,27.3,133.15,35.43"/>
	</g>
	<g>
		<path class="st0" d="M35.28,66.43c0-3.5-2.15-5.84-5.35-5.84c-3.22,0-5.38,2.34-5.38,5.87c0,3.47,2.15,5.82,5.38,5.82
			C33.13,72.27,35.28,69.93,35.28,66.43 M37.26,52.21v21.5h-1.93l-0.05-3.14c-0.99,2.07-2.92,3.42-5.82,3.42c-4.08,0-7-3.01-7-7.53
			c0-4.55,2.92-7.61,7-7.61c2.89,0,4.82,1.35,5.82,3.42V52.21H37.26z"/>
		<path class="st0" d="M42.98,65.74h9.59c-0.16-3.25-1.98-5.29-4.8-5.29C44.96,60.45,43.17,62.49,42.98,65.74 M54.61,67.14H42.98
			c0.25,3.17,1.96,5.24,4.85,5.24c1.96,0,3.58-0.96,4.71-2.48l1.52,0.86c-1.41,2.09-3.64,3.23-6.23,3.23
			c-4.16,0-6.97-3.03-6.97-7.58c0-4.52,2.76-7.55,6.92-7.55c4.11,0,6.86,2.95,6.86,7.39C54.64,66.48,54.64,66.92,54.61,67.14"/>
		<path class="st0" d="M78.38,68.03c0-2.34-1.85-3.91-4.6-3.91h-5.76v7.85h5.76C76.54,71.97,78.38,70.4,78.38,68.03 M68.02,62.35
			h5.04c2.65,0,4.38-1.46,4.38-3.64c0-2.21-1.79-3.67-4.49-3.67h-4.93V62.35z M80.56,68.03c0,3.42-2.62,5.68-6.56,5.68h-8.08v-20.4
			h7.58c3.67,0,6.12,2.07,6.12,5.15c0,2.15-1.24,3.75-3.31,4.58C78.94,63.67,80.56,65.52,80.56,68.03"/>
		<path class="st0" d="M93.2,67.2c-1.29-0.3-2.73-0.47-4-0.47c-2.48,0-4.13,1.19-4.13,2.95c0,1.71,1.24,2.81,3.28,2.81
			C90.66,72.49,93.2,70.59,93.2,67.2 M95.18,64.52v9.18h-1.93l-0.05-3.06c-1.02,2.12-3.09,3.33-5.4,3.33c-2.87,0-4.8-1.68-4.8-4.24
			c0-2.65,2.37-4.44,5.95-4.44c1.35,0,2.87,0.17,4.24,0.5v-1.02c0-2.65-1.68-4.33-4.36-4.33c-1.74,0-2.98,0.58-4,1.62l-0.91-1.21
			c1.32-1.3,3.03-2.01,5.38-2.01C92.86,58.85,95.18,61.11,95.18,64.52"/>
		<path class="st0" d="M112.72,64.52v9.18h-1.99v-8.79c0-2.62-1.85-4.33-4.6-4.33c-2.78,0-4.63,1.71-4.63,4.33v8.79h-1.99V59.12
			h1.93l0.03,2.45c0.97-1.71,2.73-2.73,5.27-2.73C110.32,58.85,112.72,61.11,112.72,64.52"/>
		<path class="st0" d="M116.09,66.4c0-4.52,3.01-7.55,7.5-7.55c1.87,0,3.39,0.55,4.71,1.6l-1.13,1.38
			c-1.05-0.86-2.18-1.24-3.58-1.24c-3.25,0-5.4,2.32-5.4,5.84c0,3.5,2.18,5.84,5.43,5.84c1.52,0,2.95-0.52,3.97-1.57l1.16,1.35
			c-1.32,1.27-3.17,1.93-5.26,1.93C119.07,73.98,116.09,70.95,116.09,66.4"/>
		<path class="st0" d="M143.22,66.43c0-3.53-2.12-5.84-5.32-5.84c-3.23,0-5.38,2.32-5.38,5.84c0,3.5,2.15,5.84,5.38,5.84
			C141.1,72.27,143.22,69.93,143.22,66.43 M130.43,66.43c0-4.55,3.01-7.58,7.47-7.58c4.44,0,7.41,3.03,7.41,7.58
			c0,4.52-2.98,7.55-7.41,7.55C133.44,73.98,130.43,70.95,130.43,66.43"/>
		<polygon class="st0" points="162.2,71.97 162.2,73.7 149.38,73.7 149.38,53.31 161.95,53.31 161.95,55.04 151.47,55.04 
			151.47,62.43 161.26,62.43 161.26,64.17 151.47,64.17 151.47,71.97 		"/>
		<path class="st0" d="M165.27,72.44l0.83-1.24c1.21,0.88,2.68,1.19,4.19,1.19c2.07,0,3.45-0.96,3.45-2.45
			c0-1.38-1.29-2.15-3.06-2.65l-1.57-0.47c-2.29-0.64-3.86-1.54-3.86-3.72c0-2.56,2.04-4.25,5.13-4.25c1.96,0,3.56,0.41,4.96,1.32
			l-0.86,1.35c-1.24-0.77-2.56-1.08-3.97-1.08c-1.93,0-3.23,0.91-3.23,2.34c0,1.35,1.13,1.96,2.7,2.4l1.57,0.47
			c2.2,0.61,4.22,1.71,4.22,4.11c0,2.54-2.12,4.22-5.49,4.22C168.21,73.98,166.4,73.46,165.27,72.44"/>
		<path class="st0" d="M187.41,71.75v1.63c-0.96,0.41-2.15,0.61-3.53,0.61c-2.34,0-3.94-1.63-3.94-4.02v-9.18h-2.54v-1.65h2.54
			v-4.27h1.98v4.27h5.26v1.65h-5.26v8.79c0,1.6,1.05,2.7,2.56,2.7C185.51,72.27,186.47,72.11,187.41,71.75"/>
		<path class="st0" d="M198.96,67.2c-1.3-0.3-2.73-0.47-4-0.47c-2.48,0-4.13,1.19-4.13,2.95c0,1.71,1.24,2.81,3.28,2.81
			C196.43,72.49,198.96,70.59,198.96,67.2 M200.95,64.52v9.18h-1.93l-0.05-3.06c-1.02,2.12-3.09,3.33-5.4,3.33
			c-2.87,0-4.8-1.68-4.8-4.24c0-2.65,2.37-4.44,5.95-4.44c1.35,0,2.87,0.17,4.24,0.5v-1.02c0-2.65-1.68-4.33-4.36-4.33
			c-1.74,0-2.98,0.58-4,1.62l-0.91-1.21c1.32-1.3,3.03-2.01,5.38-2.01C198.63,58.85,200.95,61.11,200.95,64.52"/>
		<path class="st0" d="M217.14,66.43c0-3.5-2.15-5.84-5.35-5.84c-3.22,0-5.38,2.34-5.38,5.87c0,3.47,2.15,5.82,5.38,5.82
			C214.99,72.27,217.14,69.93,217.14,66.43 M219.12,52.21v21.5h-1.93l-0.05-3.14c-0.99,2.07-2.92,3.42-5.82,3.42
			c-4.08,0-7-3.01-7-7.53c0-4.55,2.92-7.61,7-7.61c2.89,0,4.82,1.35,5.82,3.42V52.21H219.12z"/>
		<path class="st0" d="M235.47,66.43c0-3.53-2.12-5.84-5.32-5.84c-3.23,0-5.38,2.32-5.38,5.84c0,3.5,2.15,5.84,5.38,5.84
			C233.35,72.27,235.47,69.93,235.47,66.43 M222.69,66.43c0-4.55,3.01-7.58,7.47-7.58c4.44,0,7.41,3.03,7.41,7.58
			c0,4.52-2.98,7.55-7.41,7.55C225.69,73.98,222.69,70.95,222.69,66.43"/>
	</g>
</g>
<g>
	<g>
		<path class="st0" d="M715.47,11.14c-0.17,1.99-0.9,3.98-2.13,5.42c-1.24-0.33-2.56-0.5-3.94-0.5c-2.05,0-3.79,0.39-5.01,1.05
			l-1.76,20.12c-1.01,0.22-2.12,0.28-3.18,0.28c-1.05,0-2.1-0.06-3.13-0.28l2.03-23.16c2.14-1.77,6.35-3.76,11.39-3.76
			C712,10.31,713.86,10.53,715.47,11.14"/>
		<path class="st0" d="M672.72,24.24c0.73-8.4,7.19-13.99,15.1-13.99c3.93,0,7.11,1.55,8.58,2.98c-0.6,1.77-2.02,3.48-3.76,4.48
			c-1.23-1.11-2.86-2.05-5.24-2.05c-5.14,0-7.92,3.93-8.32,8.51c-0.39,4.48,1.64,8.46,6.89,8.46c3.1,0,4.81-1.27,6-2.21
			c1.53,0.83,2.56,2.32,2.94,4.26c-1.86,1.66-5.33,3.37-9.47,3.37C677.09,38.07,671.95,32.98,672.72,24.24"/>
		<path class="st0" d="M738.79,24.24c0.73-8.4,7.19-13.99,15.1-13.99c3.93,0,7.11,1.55,8.58,2.98c-0.6,1.77-2.02,3.48-3.76,4.48
			c-1.23-1.11-2.86-2.05-5.24-2.05c-5.14,0-7.92,3.93-8.32,8.51c-0.39,4.48,1.64,8.46,6.89,8.46c3.1,0,4.81-1.27,6-2.21
			c1.53,0.83,2.56,2.32,2.94,4.26c-1.86,1.66-5.33,3.37-9.47,3.37C743.17,38.07,738.03,32.98,738.79,24.24"/>
		<path class="st3" d="M872.03,11.14l-2.11,24.16c-2.76,1.27-6.93,2.76-12.74,2.76c-8.18,0-11.48-4.04-10.92-10.39l1.45-16.53
			c1.12-0.22,2.18-0.28,3.23-0.28c1,0,2.1,0.05,3.07,0.28l-1.29,14.71c-0.37,4.26,0.53,6.63,5.78,6.63c2.05,0,3.79-0.33,5.45-0.99
			l1.78-20.35c1.07-0.22,2.18-0.28,3.18-0.28C869.96,10.87,871,10.92,872.03,11.14"/>
		<path class="st3" d="M875.61,6.44L881.1,0c2.14,0.83,3.38,2.49,3.79,4.75l-7.53,3.96C876.39,8.27,875.85,7.55,875.61,6.44
			 M872.92,37.24l2.28-26.09c1.07-0.22,2.12-0.28,3.18-0.28c1,0,2.1,0.05,3.07,0.28l-2.28,26.09c-1.01,0.22-2.07,0.28-3.12,0.28
			C875.05,37.51,873.95,37.46,872.92,37.24"/>
		<path class="st3" d="M844.31,14.24L841.57,45c-1.07,0.22-2.12,0.28-3.18,0.28c-0.99,0-2.1-0.06-3.07-0.28l0.69-7.93
			c-1.61,0.66-3.46,1-5.5,1c-7.91,0-13.69-4.7-12.92-13.49c0.79-9.01,7.83-14.26,15.62-14.26
			C838.13,10.31,842.07,12.08,844.31,14.24 M836.57,31.32l1.23-14.04c-1.58-0.88-3.26-1.33-5.03-1.33c-4.7,0-8.41,3.26-8.86,8.35
			c-0.45,5.14,2.61,8.13,7.3,8.13C833.32,32.43,835.07,32.04,836.57,31.32"/>
		<path class="st3" d="M815.37,14.24l-2.1,23.41c-1.07,0.22-4.05,0.22-5.02,0l-0.3-2.59c0,0-2.72,3.01-7.68,3.01
			c-6.49,0-12.38-4.7-11.61-13.49c0.79-9.01,7.83-14.26,15.62-14.26C809.19,10.31,813.13,12.08,815.37,14.24 M807.84,28.92
			l1.02-11.64c-1.58-0.88-3.26-1.33-5.03-1.33c-4.7,0-8.41,3.26-8.86,8.35c-0.45,5.14,2.74,8.13,6.99,8.13
			C805.63,32.43,807.84,28.92,807.84,28.92"/>
		<path class="st0" d="M782.24,29.42c0.84,0.37,1.53,0.89,2.07,1.56c0.54,0.67,0.88,1.42,1.03,2.26c-0.77,0.84-1.73,1.63-2.88,2.38
			c-1.15,0.75-2.36,1.3-3.64,1.67c-1.27,0.37-2.46,0.6-3.56,0.7c-2.67,0.23-4.9-0.05-6.7-0.85c-1.8-0.8-3.21-1.98-4.23-3.55
			c-1.02-1.57-1.64-3.56-1.85-5.97c-0.2-2.34-0.04-4.53,0.5-6.59c0.54-2.05,1.39-3.85,2.57-5.39c1.17-1.54,2.59-2.77,4.26-3.69
			c1.67-0.92,3.47-1.46,5.41-1.63c3.07-0.27,5.54,0.23,7.42,1.5c1.88,1.27,2.92,3.09,3.13,5.47c0.15,1.75-0.18,3.28-1.01,4.59
			c-0.82,1.31-2.07,2.39-3.75,3.25c-1.67,0.86-3.77,1.41-6.29,1.63c-2.08,0.18-4.08,0.08-5.99-0.3l0.02,0.27
			c0.2,2.34,0.89,3.98,2.06,4.93c1.17,0.95,2.81,1.33,4.93,1.14c1.1-0.1,2.15-0.38,3.15-0.86
			C779.91,31.48,781.02,30.64,782.24,29.42z M775.27,15.35c-1.72,0.15-3.13,0.84-4.24,2.08c-1.11,1.24-1.83,2.85-2.17,4.83
			c1.46,0.31,3.33,0.41,5.6,0.28c1.72-0.15,3.04-0.6,3.97-1.34c0.93-0.74,1.34-1.75,1.23-3.03c-0.08-0.95-0.53-1.68-1.33-2.2
			C777.53,15.45,776.51,15.24,775.27,15.35z"/>
		<path class="st0" d="M734.1,29.42c0.84,0.37,1.53,0.89,2.07,1.56c0.54,0.67,0.88,1.42,1.03,2.26c-0.77,0.84-1.73,1.63-2.88,2.38
			c-1.15,0.75-2.36,1.3-3.64,1.67c-1.27,0.37-2.46,0.6-3.56,0.7c-2.67,0.23-4.9-0.05-6.7-0.85c-1.8-0.8-3.21-1.98-4.23-3.55
			c-1.02-1.57-1.64-3.56-1.85-5.97c-0.2-2.34-0.04-4.53,0.5-6.59c0.54-2.05,1.39-3.85,2.57-5.39c1.17-1.54,2.59-2.77,4.26-3.69
			c1.67-0.92,3.47-1.46,5.41-1.63c3.07-0.27,5.54,0.23,7.42,1.5c1.88,1.27,2.92,3.09,3.13,5.47c0.15,1.75-0.18,3.28-1.01,4.59
			c-0.82,1.31-2.07,2.39-3.75,3.25c-1.67,0.86-3.77,1.41-6.29,1.63c-2.08,0.18-4.08,0.08-5.99-0.3l0.02,0.27
			c0.2,2.34,0.89,3.98,2.06,4.93c1.17,0.95,2.81,1.33,4.93,1.14c1.1-0.1,2.15-0.38,3.15-0.86C731.77,31.48,732.88,30.64,734.1,29.42
			z M727.13,15.35c-1.72,0.15-3.13,0.84-4.24,2.08c-1.11,1.24-1.83,2.85-2.17,4.83c1.46,0.31,3.33,0.41,5.6,0.28
			c1.72-0.15,3.04-0.6,3.97-1.34c0.93-0.74,1.34-1.75,1.23-3.03c-0.08-0.95-0.53-1.68-1.33-2.2
			C729.39,15.45,728.37,15.24,727.13,15.35z"/>
	</g>
	<g>
		<path class="st0" d="M685.29,59.38c0-3.46-2.12-5.77-5.28-5.77c-3.18,0-5.3,2.31-5.3,5.79c0,3.43,2.12,5.74,5.3,5.74
			C683.17,65.15,685.29,62.84,685.29,59.38 M687.25,45.35v21.21h-1.9l-0.05-3.1c-0.98,2.04-2.88,3.37-5.74,3.37
			c-4.02,0-6.91-2.97-6.91-7.43c0-4.49,2.88-7.51,6.91-7.51c2.86,0,4.76,1.33,5.74,3.37v-9.92H687.25z"/>
		<path class="st0" d="M692.89,58.7h9.46c-0.16-3.21-1.96-5.22-4.73-5.22C694.84,53.48,693.08,55.5,692.89,58.7 M704.36,60.09
			h-11.48c0.24,3.13,1.93,5.17,4.79,5.17c1.93,0,3.54-0.95,4.65-2.45l1.5,0.84c-1.39,2.07-3.59,3.18-6.15,3.18
			c-4.11,0-6.88-2.99-6.88-7.48c0-4.46,2.72-7.45,6.83-7.45c4.05,0,6.77,2.91,6.77,7.29C704.39,59.44,704.39,59.87,704.36,60.09"/>
		<path class="st0" d="M727.82,60.96c0-2.31-1.82-3.86-4.54-3.86h-5.68v7.75h5.68C726,64.85,727.82,63.3,727.82,60.96 M717.59,55.36
			h4.98c2.61,0,4.33-1.44,4.33-3.59c0-2.18-1.77-3.62-4.43-3.62h-4.87V55.36z M729.97,60.96c0,3.37-2.58,5.6-6.47,5.6h-7.97V46.44
			h7.48c3.62,0,6.04,2.04,6.04,5.08c0,2.12-1.22,3.7-3.26,4.52C728.36,56.66,729.97,58.48,729.97,60.96"/>
		<path class="st0" d="M742.43,60.15c-1.28-0.3-2.69-0.46-3.94-0.46c-2.45,0-4.08,1.17-4.08,2.91c0,1.69,1.22,2.77,3.24,2.77
			C739.93,65.37,742.43,63.49,742.43,60.15 M744.39,57.51v9.06h-1.9l-0.05-3.02c-1.01,2.09-3.05,3.29-5.33,3.29
			c-2.83,0-4.73-1.66-4.73-4.19c0-2.61,2.34-4.38,5.87-4.38c1.33,0,2.83,0.16,4.19,0.49v-1.01c0-2.61-1.66-4.27-4.3-4.27
			c-1.71,0-2.94,0.57-3.94,1.6l-0.9-1.19c1.31-1.28,2.99-1.99,5.3-1.99C742.11,51.9,744.39,54.13,744.39,57.51"/>
		<path class="st0" d="M761.7,57.51v9.06h-1.96v-8.68c0-2.58-1.82-4.27-4.54-4.27c-2.75,0-4.57,1.69-4.57,4.27v8.68h-1.96V52.18
			h1.91l0.03,2.42c0.95-1.68,2.69-2.69,5.2-2.69C759.33,51.9,761.7,54.13,761.7,57.51"/>
		<path class="st0" d="M765.02,59.35c0-4.46,2.97-7.45,7.4-7.45c1.85,0,3.35,0.54,4.65,1.58l-1.12,1.36
			c-1.03-0.84-2.15-1.22-3.54-1.22c-3.21,0-5.33,2.29-5.33,5.77c0,3.45,2.15,5.77,5.36,5.77c1.5,0,2.91-0.52,3.92-1.55l1.14,1.33
			c-1.31,1.25-3.13,1.9-5.19,1.9C767.96,66.83,765.02,63.84,765.02,59.35"/>
		<path class="st0" d="M791.79,59.38c0-3.48-2.09-5.77-5.25-5.77c-3.18,0-5.3,2.29-5.3,5.77c0,3.45,2.12,5.76,5.3,5.76
			C789.7,65.15,791.79,62.84,791.79,59.38 M779.17,59.38c0-4.49,2.97-7.48,7.37-7.48c4.38,0,7.32,2.99,7.32,7.48
			c0,4.46-2.94,7.45-7.32,7.45C782.14,66.84,779.17,63.84,779.17,59.38"/>
		<polygon class="st0" points="810.51,64.85 810.51,66.56 797.87,66.56 797.87,46.44 810.27,46.44 810.27,48.15 799.94,48.15 
			799.94,55.44 809.59,55.44 809.59,57.15 799.94,57.15 799.94,64.85 		"/>
		<path class="st0" d="M813.54,65.31l0.82-1.22c1.2,0.87,2.64,1.17,4.13,1.17c2.04,0,3.4-0.95,3.4-2.42c0-1.36-1.28-2.12-3.02-2.61
			l-1.55-0.46c-2.26-0.63-3.81-1.52-3.81-3.67c0-2.53,2.01-4.19,5.06-4.19c1.93,0,3.51,0.41,4.9,1.31l-0.84,1.33
			c-1.22-0.76-2.53-1.06-3.92-1.06c-1.9,0-3.18,0.9-3.18,2.31c0,1.33,1.12,1.93,2.67,2.36l1.55,0.46c2.18,0.6,4.16,1.68,4.16,4.05
			c0,2.5-2.1,4.16-5.41,4.16C816.45,66.83,814.66,66.32,813.54,65.31"/>
		<path class="st0" d="M835.39,64.63v1.61c-0.95,0.41-2.12,0.6-3.48,0.6c-2.31,0-3.89-1.61-3.89-3.97v-9.06h-2.5v-1.63h2.5v-4.21
			h1.96v4.21h5.19v1.63h-5.19v8.68c0,1.58,1.03,2.66,2.53,2.66C833.51,65.15,834.46,64.99,835.39,64.63"/>
		<path class="st0" d="M846.79,60.15c-1.28-0.3-2.69-0.46-3.94-0.46c-2.45,0-4.08,1.17-4.08,2.91c0,1.69,1.22,2.77,3.24,2.77
			C844.29,65.37,846.79,63.49,846.79,60.15 M848.75,57.51v9.06h-1.9l-0.05-3.02c-1.01,2.09-3.05,3.29-5.33,3.29
			c-2.83,0-4.73-1.66-4.73-4.19c0-2.61,2.34-4.38,5.87-4.38c1.33,0,2.83,0.16,4.19,0.49v-1.01c0-2.61-1.66-4.27-4.3-4.27
			c-1.71,0-2.94,0.57-3.94,1.6l-0.9-1.19c1.31-1.28,2.99-1.99,5.3-1.99C846.46,51.9,848.75,54.13,848.75,57.51"/>
		<path class="st0" d="M864.72,59.38c0-3.46-2.12-5.77-5.28-5.77c-3.18,0-5.3,2.31-5.3,5.79c0,3.43,2.12,5.74,5.3,5.74
			C862.6,65.15,864.72,62.84,864.72,59.38 M866.68,45.35v21.21h-1.9l-0.05-3.1c-0.98,2.04-2.88,3.37-5.74,3.37
			c-4.02,0-6.91-2.97-6.91-7.43c0-4.49,2.88-7.51,6.91-7.51c2.86,0,4.76,1.33,5.74,3.37v-9.92H866.68z"/>
		<path class="st0" d="M882.82,59.38c0-3.48-2.09-5.77-5.25-5.77c-3.18,0-5.3,2.29-5.3,5.77c0,3.45,2.12,5.76,5.3,5.76
			C880.72,65.15,882.82,62.84,882.82,59.38 M870.2,59.38c0-4.49,2.97-7.48,7.37-7.48c4.38,0,7.32,2.99,7.32,7.48
			c0,4.46-2.94,7.45-7.32,7.45C873.16,66.84,870.2,63.84,870.2,59.38"/>
	</g>
</g>
</svg>
