<?xml version="1.0" encoding="utf-8"?>
<!-- Generator: Adobe Illustrator 16.0.0, SVG Export Plug-In . SVG Version: 6.00 Build 0)  -->
<!DOCTYPE svg PUBLIC "-//W3C//DTD SVG 1.1//EN" "http://www.w3.org/Graphics/SVG/1.1/DTD/svg11.dtd">
<svg version="1.1" id="Capa_1" xmlns="http://www.w3.org/2000/svg" xmlns:xlink="http://www.w3.org/1999/xlink" x="0px" y="0px"
	 width="780.5px" height="197.25px" viewBox="0 0 780.5 197.25" enable-background="new 0 0 780.5 197.25" xml:space="preserve">
<g>
	<path fill="#232323" d="M19.361,87.332V28.5c0-4.77-4.303-5.792-4.303-8.632v-0.453c0-1.136,1.02-1.816,2.492-1.816h21.177
		c1.586,0,2.604,0.681,2.604,1.816v0.453c0,2.84-4.869,3.862-4.869,8.632v58.832c0,4.883,4.869,5.906,4.869,8.631v0.342
		c0,1.248-1.02,1.93-2.604,1.93H17.55c-1.474,0-2.492-0.682-2.492-1.93v-0.342C15.058,93.238,19.361,92.215,19.361,87.332z"/>
	<path fill="#232323" d="M123.549,96.418v-0.455c0-2.838,4.303-3.746,3.962-8.629l-1.131-20.785
		c-0.568-12.836-3.853-17.493-9.854-17.493c-5.55,0-9.06,5.227-9.172,12.379c0.227,1.588,0.339,3.178,0.339,4.883v21.014
		c0,4.883,4.078,5.791,4.078,8.631v0.453c0,1.252-1.018,1.93-2.604,1.93H89.693c-1.475,0-2.604-0.678-2.604-1.93v-0.453
		c0-2.84,4.076-3.748,4.076-8.631V65.184c0-10.559-4.076-16.127-9.854-16.127c-6.227,0-9.735,5.452-9.735,12.61v25.666
		c0,4.883,4.755,5.791,4.755,8.631v0.453c0,1.252-0.906,1.93-2.492,1.93H52.774c-1.472,0-2.604-0.678-2.604-1.93v-0.453
		c0-2.84,4.755-3.748,4.755-8.631V60.869c0-4.996-5.435-5.566-5.435-8.404v-0.451c0-1.14,1.018-1.705,2.377-2.386l14.268-6.588
		c2.604-1.362,3.962,0.227,3.962,2.384v5.341c3.285-4.999,8.947-8.18,15.628-8.18c8.039,0,14.945,3.522,18.798,10.335
		c3.058-6.587,9.625-10.335,17.212-10.335c10.308,0,19.705,5.906,21.063,24.419l1.357,20.213c0.343,5,4.076,5.906,4.076,8.748v0.453
		c0,1.25-1.018,1.93-2.49,1.93h-19.702C124.569,98.348,123.549,97.668,123.549,96.418z"/>
	<path fill="#232323" d="M174.296,94.941v16.922c0,4.881,4.869,5.793,4.869,8.631v0.342c0,1.363-1.133,2.045-2.604,2.045h-20.609
		c-1.584,0-2.604-0.682-2.604-2.045v-0.342c0-2.836,4.417-3.746,4.417-8.631V60.754c0-4.654-5.209-4.994-5.209-7.949v-0.568
		c0-1.136,0.909-2.045,2.379-2.725l12.684-6.248c3.056-1.59,4.188-0.111,4.188,1.933l-0.111,4.883
		c3.058-4.77,8.721-7.494,15.74-7.494c13.25,0,26.498,9.539,26.498,27.484c0,17.605-12.229,29.303-26.384,29.303
		C181.996,99.371,177.693,97.781,174.296,94.941z M185.846,94.486c7.359,0,11.439-6.246,11.439-17.604
		c0-14.311-4.869-29.416-13.815-29.416c-4.755,0-8.493,3.748-9.172,9.199v21.693C174.296,87.332,179.842,94.486,185.846,94.486z"/>
	<path fill="#232323" d="M220.054,70.863c0-16.809,12.23-28.279,26.724-28.279c6.454,0,11.325,2.271,14.835,5.792v-2.273
		c0-2.27,1.927-3.405,4.869-2.837l11.891,2.046c1.586,0.339,2.379,1.248,2.379,2.837v0.342c0,2.157-4.755,3.523-4.755,9.087v29.756
		c0,4.77,4.416,5.904,4.416,8.629v0.342c0,1.254-0.793,1.932-2.267,1.932h-13.927c-1.475,0-2.604-1.02-2.604-2.5v-2.725
		c-3.51,4.205-9.06,6.359-14.947,6.359C232.85,99.371,220.054,89.15,220.054,70.863z M250.403,94.486
		c4.646,0,9.624-4.088,9.624-12.152V62.346c0-7.949-5.659-14.876-12.341-14.876c-6.909,0-11.212,6.132-11.438,16.693
		C235.794,76.654,241.004,94.145,250.403,94.486z"/>
	<path fill="#232323" d="M287.555,70.863c0-17.492,13.248-28.166,28.647-28.279c13.022-0.114,23.439,7.041,23.439,15.898
		c0,2.953-1.924,5.906-7.021,5.68c-9.851-0.568-9.172-16.695-19.021-16.583c-6.344,0-10.417,6.704-10.417,15.106
		c0,15.105,7.588,24.988,19.252,24.988c6.909,0,11.21-3.865,13.589-7.953c1.247-1.816,4.191-1.361,3.962,1.137
		c-0.793,9.313-8.379,18.514-23.101,18.514C299.671,99.371,287.555,86.195,287.555,70.863z"/>
	<path fill="#232323" d="M351.091,79.721V50.309h-5.32c-1.361,0-2.268-0.912-2.268-2.274v-2.042c0-1.362,0.793-2.273,2.268-2.273
		h2.828c6.341,0,10.871-4.544,12.005-11.245c0.341-1.702,1.359-2.725,2.718-2.725h2.151c1.586,0,2.604,1.022,2.604,2.725V43.72
		h13.022c1.247,0,2.268,1.021,2.268,2.273v2.042c0,1.362-1.021,2.274-2.268,2.274h-13.022v29.642c0,4.543,2.492,7.266,5.891,7.266
		c4.526,0,6.793-2.496,7.702-5.107c1.241-1.932,3.962-1.477,3.962,0.68c0,8.178-6.115,16.582-17.325,16.582
		C357.996,99.371,351.091,92.668,351.091,79.721z"/>
	<path fill="#232323" d="M388.464,70.637c0-16.471,13.478-28.052,29.331-28.052c17.439,0,30.464,12.492,30.464,28.619
		c0,16.129-12.345,28.168-28.767,28.168C401.149,99.371,388.464,86.42,388.464,70.637z M421.531,94.373
		c6.114,0,9.737-6.021,9.737-16.471c0-12.377-6.113-30.326-15.854-30.326c-6.682,0-10.306,5.794-10.306,16.582
		C405.114,75.748,411.227,94.373,421.531,94.373z"/>
	<path fill="#232323" d="M504.889,93.803l-29.896-65.186c-2.49-5.453-6.114-5.906-6.114-8.748v-0.453
		c0-1.136,1.021-1.816,2.604-1.816h25.365c1.586,0,2.718,0.681,2.718,1.816v0.453c0,2.84-6.68,3.977-4.755,8.748l20.951,50.651
		L535.576,28.5c1.813-4.77-4.867-5.904-4.867-8.632v-0.453c0-1.136,0.904-1.816,2.488-1.816H548.6c1.586,0,2.604,0.681,2.604,1.816
		v0.453c0,2.728-3.851,2.953-6.228,8.632l-27.179,64.964c-1.477,3.41-3.513,4.77-6.798,4.77
		C508.058,98.234,506.245,96.756,504.889,93.803z"/>
	<path fill="#232323" d="M544.758,70.521c0-16.695,12.344-27.824,27.742-27.937c12.683-0.114,21.63,5.904,21.63,15.898
		c0,8.178-7.584,14.537-18.232,16.469c-5.096,1.023-9.852,1.023-13.927,0.682c3.058,7.27,8.717,11.926,16.308,11.926
		c6.684,0,11.438-3.066,13.588-6.586c1.359-1.705,3.966-1.137,3.854,1.248c-0.682,6.588-7.361,17.15-22.535,17.15
		C556.422,99.371,544.758,87.787,544.758,70.521z M560.385,70.18c3.51,0.229,7.475,0.117,10.417-0.566
		c4.873-0.908,7.929-3.975,7.813-11.813c0-5.453-3.396-9.994-8.268-9.994c-6.342,0-10.646,6.472-10.646,15.216
		C559.705,65.525,559.933,67.91,560.385,70.18z"/>
	<path fill="#232323" d="M602.633,96.305V95.85c0-2.84,4.416-3.746,4.416-8.518V60.754c0-4.994-5.098-5.336-5.098-8.176v-0.455
		c0-1.135,0.793-2.044,2.27-2.726l13.588-6.357c2.604-1.25,3.624,0.114,3.624,2.156v8.63c2.492-7.266,7.813-11.242,15.401-11.242
		c6.682,0,10.528,4.543,10.528,10.335c0,4.768-1.924,8.971-7.358,8.971c-8.831,0-4.756-9.768-10.869-9.768
		c-4.53,0-6.003,6.248-6.003,12.496v22.715c0,4.77,5.549,5.678,5.549,8.52v0.451c0,1.254-1.02,1.932-2.49,1.932h-20.952
		C603.653,98.234,602.633,97.553,602.633,96.305z"/>
	<path fill="#232323" d="M649.636,70.863c0-16.809,12.229-28.279,26.723-28.279c5.549,0,9.854,1.588,13.25,4.43V28.842
		c0-5.225-5.663-5.566-5.663-8.405v-0.341c0-1.137,0.906-2.157,2.376-2.611l14.838-4.543c3.058-1.021,4.417-0.341,4.417,2.271
		v72.122c0,4.77,4.529,5.904,4.529,8.629v0.342c0,1.254-0.906,1.932-2.267,1.932h-14.041c-1.587,0-2.605-1.02-2.605-2.5
		l-0.226-2.498c-3.398,3.973-8.944,6.133-14.724,6.133C662.432,99.371,649.636,89.15,649.636,70.863z M679.985,94.486
		c4.644,0,9.626-4.088,9.626-12.152V62.346c0-7.266-5.663-14.876-12.341-14.876c-6.909,0-11.212,6.132-11.441,16.693
		C665.375,76.654,670.586,94.145,679.985,94.486z"/>
	<path fill="#232323" d="M715.781,70.521c0-16.695,12.341-27.824,27.743-27.937c12.684-0.114,21.631,5.904,21.631,15.898
		c0,8.178-7.589,14.537-18.23,16.469c-5.098,1.023-9.854,1.023-13.932,0.682c3.061,7.27,8.722,11.926,16.308,11.926
		c6.682,0,11.438-3.066,13.591-6.586c1.356-1.705,3.963-1.137,3.849,1.248c-0.679,6.588-7.356,17.15-22.535,17.15
		C727.445,99.371,715.781,87.787,715.781,70.521z M731.406,70.18c3.511,0.229,7.477,0.117,10.42-0.566
		c4.868-0.908,7.929-3.975,7.813-11.813c0-5.453-3.396-9.994-8.27-9.994c-6.341,0-10.644,6.472-10.644,15.216
		C730.726,65.525,730.952,67.91,731.406,70.18z"/>
</g>
<g>
	<path fill="#232323" d="M189.451,133.467v48.111h-5.186v-6.385c-2.69,4.41-7.286,7.107-12.996,7.107
		c-9.845,0-16.996-7.697-16.996-18.1c0-10.27,7.087-18.033,16.865-18.033c5.512,0,9.977,2.436,12.73,6.58v-19.283L189.451,133.467
		L189.451,133.467z M184.07,164.203c0-7.697-4.921-13.098-12.142-13.098c-6.955,0-12.14,5.66-12.14,13.098
		c0,7.568,5.185,13.162,12.14,13.162C179.081,177.365,184.07,171.969,184.07,164.203z"/>
	<path fill="#232323" d="M214.397,177.102c5.643,0,8.794-2.17,10.499-6.186l4.856,2.961c-2.562,4.939-7.353,8.492-15.557,8.492
		c-10.632,0-17.85-7.766-17.85-18.102c0-10.068,7.679-18.164,17.456-18.164c10.434,0,17.063,8.227,17.063,17.375
		c0,0.984-0.066,2.172-0.131,2.83H201.99C202.977,172.76,208.031,177.102,214.397,177.102z M225.16,161.439
		c-0.854-6.518-5.384-10.465-11.157-10.465c-5.84,0-10.894,3.883-11.943,10.465H225.16z"/>
	<path fill="#232323" d="M285.675,168.877c0,7.766-5.314,12.701-14.568,12.701h-17.852v-45.742h18.242
		c8.2,0,12.601,4.541,12.601,11.123c0,4.736-2.82,8.555-7.088,10.396C282.459,159.07,285.675,163.217,285.675,168.877z
		 M270.252,140.441h-11.485v15.072h11.225c4.726,0,8.528-2.896,8.528-7.568C278.522,143.535,275.699,140.441,270.252,140.441z
		 M280.097,168.482c0-5.334-3.807-8.361-9.714-8.361h-11.616v16.852h11.684C276.554,176.973,280.097,173.811,280.097,168.482z"/>
	<path fill="#232323" d="M326.306,146.891v34.688h-5.188v-6.647c-2.625,4.608-7.15,7.373-12.992,7.373
		c-9.846,0-16.995-7.699-16.995-18.101c0-10.269,7.219-17.705,16.995-17.705c5.842,0,10.367,2.633,12.992,7.108v-6.713h5.188
		V146.891z M320.924,164.203c0-7.697-4.922-13.098-12.144-13.098c-6.953,0-12.14,5.66-12.14,13.098
		c0,7.568,5.187,13.162,12.14,13.162C315.935,177.365,320.924,171.969,320.924,164.203z"/>
	<path fill="#232323" d="M366.867,160.387v21.191h-5.578v-20.205c0-6.449-3.739-10.268-9.91-10.203
		c-5.905,0-10.105,4.281-10.17,8.955v21.455h-5.578v-34.686h5.25v5.064c2.229-3.291,6.431-5.791,11.941-5.791
		C361.685,146.17,366.867,151.764,366.867,160.387z"/>
	<path fill="#232323" d="M373.568,164.268c0-10.264,7.483-18.033,17.722-18.033c8.335,0,13.979,5.006,15.748,10.793l-4.984,1.979
		c-1.443-4.805-5.382-7.766-10.634-7.766c-6.955,0-12.207,5.328-12.207,13.027c0,7.701,5.252,13.035,12.271,13.035
		c5.314,0,9.319-2.965,10.764-7.768l4.989,2.039c-1.771,5.662-7.481,10.729-15.882,10.729
		C381.115,182.303,373.568,174.666,373.568,164.268z"/>
	<path fill="#232323" d="M411.241,164.268c0-10.396,7.483-18.098,17.984-18.098s17.979,7.699,17.979,18.098
		c0,10.336-7.479,18.035-17.979,18.035S411.241,174.604,411.241,164.268z M441.63,164.268c0-7.635-4.988-13.098-12.339-13.098
		c-7.353,0-12.402,5.463-12.402,13.098c0,7.57,5.054,13.035,12.402,13.035C436.574,177.303,441.63,171.838,441.63,164.268z"/>
	<path fill="#232323" d="M483.504,176.643v4.938H454.63v-45.742h28.479v4.936h-22.902v14.676h20.673v4.938h-20.673v16.258h23.298
		V176.643L483.504,176.643z"/>
	<path fill="#232323" d="M487.517,173.877l5.313-2.105c1.117,3.559,4.333,5.662,9.124,5.662c4.33,0,7.152-1.844,7.152-5.064
		c0-8.359-19.885-4.607-19.885-16.521c0-5.992,4.921-9.674,12.534-9.674c6.301,0,10.827,2.564,12.337,7.176l-5.314,2.105
		c-1.114-3.094-3.607-4.545-7.088-4.545c-4.002,0-6.299,1.779-6.299,4.607c0,7.77,20.016,3.688,20.016,16.389
		c0,6.582-5.445,10.398-13.647,10.398C494.605,182.303,489.355,179.408,487.517,173.877z"/>
	<path fill="#232323" d="M523.878,169.928v-18.229h-6.301v-4.809h3.608c2.102,0,3.086-1.053,3.086-3.16v-5.725h5.382v8.885h10.236
		v4.809h-10.436v17.639c0,4.674,2.429,7.309,6.892,7.309h4.067v4.936h-5.054C527.88,181.578,523.878,177.102,523.878,169.928z"/>
	<path fill="#232323" d="M577.761,146.891v34.688h-5.187v-6.647c-2.624,4.608-7.15,7.373-12.992,7.373
		c-9.842,0-16.994-7.699-16.994-18.101c0-10.269,7.218-17.705,16.994-17.705c5.842,0,10.368,2.633,12.992,7.108v-6.713h5.187
		V146.891z M572.381,164.203c0-7.697-4.926-13.098-12.144-13.098c-6.955,0-12.142,5.66-12.142,13.098
		c0,7.568,5.187,13.162,12.142,13.162C567.393,177.365,572.381,171.969,572.381,164.203z"/>
	<path fill="#232323" d="M620.16,133.467v48.111h-5.184v-6.385c-2.692,4.41-7.285,7.107-12.991,7.107c-9.845,0-17-7.697-17-18.1
		c0-10.27,7.088-18.033,16.865-18.033c5.515,0,9.976,2.436,12.73,6.58v-19.283L620.16,133.467L620.16,133.467z M614.781,164.203
		c0-7.697-4.921-13.098-12.14-13.098c-6.957,0-12.141,5.66-12.141,13.098c0,7.568,5.182,13.162,12.141,13.162
		C609.794,177.365,614.781,171.969,614.781,164.203z"/>
	<path fill="#232323" d="M627.324,164.268c0-10.396,7.48-18.098,17.979-18.098c10.501,0,17.982,7.699,17.982,18.098
		c0,10.336-7.481,18.035-17.982,18.035S627.324,174.604,627.324,164.268z M657.71,164.268c0-7.635-4.988-13.098-12.341-13.098
		c-7.351,0-12.402,5.463-12.402,13.098c0,7.57,5.054,13.035,12.402,13.035C652.655,177.303,657.71,171.838,657.71,164.268z"/>
</g>
</svg>
