<?xml version="1.0" encoding="UTF-8"?>
<svg id="Capa_1" xmlns="http://www.w3.org/2000/svg" version="1.1" viewBox="0 0 891 263">
  <!-- Generator: Adobe Illustrator 29.6.1, SVG Export Plug-In . SVG Version: 2.1.1 Build 9)  -->
  <defs>
    <style>
      .st0 {
        fill: #ff9000;
      }
    </style>
  </defs>
  <g>
    <path d="M340.7,78.8l-3.4-49.4-17.5,46.9h-6.2l-17.5-46.9-3.3,49.4h-6.9l4.1-60.3h8.5l18.4,49.3,18.3-49.3h8.5l4.1,60.3h-7.1Z"/>
    <path d="M399.4,33.1v45.7h-7v-6.5c-3,4.3-8.5,7.5-15.3,7.5-11.7,0-18.2-7.6-18.2-18.5v-28.2h7.4v27.3c0,7.7,4.9,12.8,12.8,12.8s12.9-5.6,13-11.4v-28.7h7.4,0Z"/>
    <path d="M407.9,68.7l7-2.8c1.5,4.7,5.7,7.5,12.1,7.5s9.5-2.4,9.5-6.7c0-11-26.3-6.1-26.3-21.8s6.5-12.8,16.6-12.8,14.3,3.4,16.3,9.5l-7,2.8c-1.5-4.1-4.8-6-9.4-6s-8.3,2.3-8.3,6.1c0,10.2,26.5,4.9,26.5,21.6s-7.2,13.7-18,13.7-16.4-3.8-18.8-11.1h-.2Z"/>
    <path d="M474.5,72.9c7.5,0,11.6-2.9,13.9-8.2l6.4,3.9c-3.4,6.5-9.7,11.2-20.6,11.2s-23.6-10.2-23.6-23.9,10.1-23.9,23.1-23.9,22.6,10.8,22.6,22.9,0,2.9-.2,3.7h-38c1.3,8.5,8,14.2,16.4,14.2h0ZM488.8,52.3c-1.1-8.6-7.1-13.8-14.7-13.8s-14.4,5.1-15.8,13.8h30.5Z"/>
    <path d="M503.2,56c0-13.7,9.9-23.9,23.8-23.9s23.8,10.1,23.8,23.9-9.9,23.8-23.8,23.8-23.8-10.1-23.8-23.8ZM543.3,56c0-10.1-6.6-17.3-16.3-17.3s-16.4,7.2-16.4,17.3,6.7,17.2,16.4,17.2,16.3-7.2,16.3-17.2Z"/>
  </g>
  <g>
    <path d="M330.4,91.8v63.4h-6.9v-8.4c-3.6,5.8-9.6,9.4-17.2,9.4-13,0-22.5-10.1-22.5-23.9s9.4-23.8,22.3-23.8,13.2,3.2,16.8,8.7v-25.4h7.5ZM323.2,132.3c0-10.1-6.5-17.3-16-17.3s-16,7.5-16,17.3,6.9,17.3,16,17.3,16-7.1,16-17.3Z"/>
    <path d="M363.8,149.3c7.5,0,11.6-2.9,13.9-8.2l6.4,3.9c-3.4,6.5-9.7,11.2-20.6,11.2s-23.6-10.2-23.6-23.9,10.1-23.9,23.1-23.9,22.6,10.8,22.6,22.9,0,2.9-.2,3.7h-38c1.3,8.5,8,14.2,16.4,14.2h0ZM378,128.7c-1.1-8.6-7.1-13.8-14.7-13.8s-14.4,5.1-15.8,13.8h30.5Z"/>
    <path d="M395.2,91.8h7.4v63.4h-7.4v-63.4Z"/>
    <path d="M481.5,109.5v45.7h-6.9v-8.8c-3.5,6.1-9.5,9.7-17.2,9.7-13,0-22.5-10.1-22.5-23.9s9.5-23.3,22.5-23.3,13.7,3.5,17.2,9.4v-8.8s6.9,0,6.9,0ZM474.4,132.3c0-10.1-6.5-17.3-16-17.3s-16,7.5-16,17.3,6.9,17.3,16,17.3,16-7.1,16-17.3Z"/>
    <path d="M535.2,127.3v27.9h-7.4v-26.6c0-8.5-4.9-13.5-13.1-13.4-7.8,0-13.4,5.6-13.4,11.8v28.3h-7.4v-63.4h7.4v23.8c3-4,8.4-7,15.4-7,11.7,0,18.6,7.4,18.6,18.7h0Z"/>
    <path d="M544.2,132.4c0-13.7,9.9-23.9,23.8-23.9s23.8,10.1,23.8,23.9-9.9,23.8-23.8,23.8-23.8-10.1-23.8-23.8ZM584.3,132.4c0-10.1-6.6-17.3-16.3-17.3s-16.4,7.2-16.4,17.3,6.7,17.2,16.4,17.2,16.3-7.2,16.3-17.2Z"/>
    <path d="M622.9,108.6v6.9c-8.3,0-14.1,5.7-14.1,12.2v27.6h-7.4v-45.7h6.9v6.7c2.9-4.3,8.2-7.6,14.6-7.6h0Z"/>
    <path d="M651.7,108.6v6.9c-8.3,0-14.1,5.7-14.1,12.2v27.6h-7.4v-45.7h6.9v6.7c2.9-4.3,8.2-7.6,14.6-7.6h0Z"/>
    <path d="M654.6,132.4c0-13.7,9.9-23.9,23.8-23.9s23.8,10.1,23.8,23.9-9.9,23.8-23.8,23.8-23.8-10.1-23.8-23.8ZM694.8,132.4c0-10.1-6.6-17.3-16.3-17.3s-16.4,7.2-16.4,17.3,6.7,17.2,16.4,17.2,16.3-7.2,16.3-17.2Z"/>
  </g>
  <g>
    <path d="M284.9,238.7v-.4c0-2.3,3.6-3.1,3.6-7.2v-49.4c0-4-3.6-4.9-3.6-7.3v-.4c0-1,.9-1.5,2.1-1.5h24.9c16.6,0,24.9,7.4,24.9,17.1s-4.6,12.6-11.7,14.2c11.5,1.5,18.3,8.2,18.3,17.4s-10.5,19.1-29.8,19.1h-26.6c-1.2,0-2.1-.6-2.1-1.6h0ZM307.6,201.7h6.7c6,0,9.9-4.1,9.9-9.8,0-8.6-5-13.5-12.8-13.5h-4.6c-2.1,0-3.9,1-3.9,4.3v14.4c0,2.8,1.9,4.6,4.7,4.6h0ZM309,234.5h6.2c8.8,0,13.2-4.1,13.2-11.1s-6.4-16.1-18.8-16.1h-6.7v20.3c0,3.9,2.5,6.9,6.1,6.9h0Z"/>
    <path d="M349.1,217.3c0-14.1,10.3-23.8,22.5-23.8s9.5,1.9,12.5,4.9v-1.9c0-1.9,1.6-2.9,4.1-2.4l10,1.7c1.3.3,2,1,2,2.4v.3c0,1.8-4,3-4,7.6v25c0,4,3.7,5,3.7,7.3v.3c0,1-.7,1.6-1.9,1.6h-11.7c-1.2,0-2.2-.9-2.2-2.1v-2.3c-3,3.5-7.6,5.3-12.6,5.3-11.6,0-22.4-8.6-22.4-24h0ZM374.7,237.2c3.9,0,8.1-3.4,8.1-10.2v-16.8c0-6.7-4.8-12.5-10.4-12.5s-9.4,5.2-9.6,14c-.4,10.5,4,25.2,11.9,25.5Z"/>
    <path d="M438.8,238.8v-.4c0-2.4,3.7-3.1,3.4-7.3l-1-17.7c-.5-10.2-3.2-14.4-8.3-14.4s-8.1,4.3-8.1,10.5v21.7c0,4.1,4.1,4.9,4.1,7.3v.4c0,1-.9,1.6-2.2,1.6h-17.7c-1.3,0-2.1-.7-2.1-1.6v-.4c0-2.4,4-3.1,4-7.3v-22.2c0-4.3-4.7-4.7-4.7-7.1v-.4c0-1,.8-1.4,2-2l11.3-5.5c2.2-1.1,3.3.2,3.3,2v5.2c2.7-4.8,7.7-7.6,14-7.6s17.2,5.2,18.2,20.3l1.1,17.2c.3,4.2,3.4,5,3.4,7.3v.4c0,1-.9,1.6-2.2,1.6h-16.5c-1.3,0-2.2-.7-2.2-1.6h.2Z"/>
    <path d="M463.4,217.3c0-14.7,11.2-23.7,24.1-23.8,11,0,19.8,5.9,19.8,13.4s-1.6,5-5.9,4.8c-8.3-.5-7.7-14-16-13.9-5.3,0-8.8,5.6-8.8,12.7,0,12.7,6.4,21,16.2,21s9.4-3.2,11.5-6.7c1-1.5,3.5-1.1,3.3,1-.7,7.8-7.1,15.6-19.5,15.6s-24.7-11.1-24.7-24h0Z"/>
    <path d="M512.3,217.2c0-13.8,11.4-23.6,24.7-23.6s25.7,10.5,25.7,24-10.4,23.7-24.2,23.7-26.1-10.9-26.1-24.1h-.1ZM540.2,237.1c5.2,0,8.2-5.1,8.2-13.8s-5.2-25.5-13.4-25.5-8.7,4.9-8.7,13.9,5.2,25.4,13.8,25.4h.1Z"/>
    <path d="M569.1,238.7v-.3c0-2.4,3.7-3.1,3.7-7.3v-49.2c0-4.2-3.7-5.1-3.7-7.3v-.4c0-1,.9-1.5,2.1-1.5h42.6c1.9,0,2.7.8,3,2.7l2.3,11.2c.3,1.6-.5,2.5-1.9,2.5h-.5c-4.6,0-7.3-10.6-13.5-10.6h-12.2c-2.1,0-3.8,1-3.8,4.1v20.5h12.4c4.6,0,5.1-7,7.5-7h.7c1,0,1.6.8,1.6,2v15.4c0,1.1-.6,2-1.6,2h-.7c-2.5,0-3-6.6-7.5-6.6h-12.4v19.9c0,2.8,1.3,5.9,5,5.9h14.1c6.2,0,7.9-11.1,12.8-11.1h.8c1.3,0,2,1.2,1.8,2.5l-2.2,11.5c-.4,1.8-1.1,2.8-3.1,2.8h-45c-1.2,0-2.2-.6-2.2-1.6h0Z"/>
    <path d="M626.8,230.1c0-3.6,2.5-5.2,5.8-5.2,8.3,0,5.2,12.6,14.7,12.6s7-2,7-6.3c0-12.7-26.6-4.8-26.6-23.6s8-14,19.5-14,19.6,5.5,19.6,11.5-2.4,5-5.3,5c-8,0-5.2-12.5-13.5-12.5s-6.3,3-6.3,6.4c0,13.1,26.1,5.4,26.1,23.7s-7.6,13.6-20.4,13.6-20.5-5.2-20.5-11.1h0Z"/>
    <path d="M677.7,224.8v-24.7h-4.5c-1.1,0-1.9-.8-1.9-1.9v-1.7c0-1.1.7-1.9,1.9-1.9h2.4c5.3,0,9.2-3.8,10.1-9.4.3-1.4,1.1-2.3,2.3-2.3h1.8c1.3,0,2.2.9,2.2,2.3v9.4h11c1.1,0,1.9.9,1.9,1.9v1.7c0,1.1-.9,1.9-1.9,1.9h-11v24.9c0,3.8,2.1,6.1,5,6.1s5.7-2.1,6.5-4.3c1-1.6,3.3-1.2,3.3.6,0,6.9-5.2,13.9-14.6,13.9s-14.5-5.6-14.5-16.5Z"/>
    <path d="M710.7,217.3c0-14.1,10.3-23.8,22.5-23.8s9.5,1.9,12.5,4.9v-1.9c0-1.9,1.6-2.9,4.1-2.4l10,1.7c1.3.3,2,1,2,2.4v.3c0,1.8-4,3-4,7.6v25c0,4,3.7,5,3.7,7.3v.3c0,1-.7,1.6-1.9,1.6h-11.7c-1.2,0-2.2-.9-2.2-2.1v-2.3c-3,3.5-7.6,5.3-12.6,5.3-11.6,0-22.4-8.6-22.4-24h0ZM736.3,237.2c3.9,0,8.1-3.4,8.1-10.2v-16.8c0-6.7-4.8-12.5-10.4-12.5s-9.4,5.2-9.6,14c-.4,10.5,4,25.2,11.9,25.5Z"/>
    <path d="M767.5,217.3c0-14.1,10.3-23.8,22.5-23.8s8.3,1.3,11.2,3.7v-15.3c0-4.4-4.8-4.7-4.8-7.1v-.3c0-1,.8-1.8,2-2.2l12.5-3.8c2.6-.9,3.7-.3,3.7,1.9v60.6c0,4,3.8,5,3.8,7.3v.3c0,1-.8,1.6-1.9,1.6h-11.8c-1.3,0-2.2-.9-2.2-2.1l-.2-2.1c-2.9,3.3-7.5,5.2-12.4,5.2-11.6,0-22.4-8.6-22.4-24h0ZM793.1,237.2c3.9,0,8.1-3.4,8.1-10.2v-16.8c0-6.1-4.8-12.5-10.4-12.5s-9.4,5.2-9.6,14c-.4,10.5,4,25.2,11.9,25.5Z"/>
    <path d="M823,217.2c0-13.8,11.4-23.6,24.7-23.6s25.7,10.5,25.7,24-10.4,23.7-24.2,23.7-26.1-10.9-26.1-24.1h-.1ZM850.9,237.1c5.2,0,8.2-5.1,8.2-13.8s-5.2-25.5-13.4-25.5-8.7,4.9-8.7,13.9,5.2,25.4,13.8,25.4h.1Z"/>
  </g>
  <g>
    <path class="st0" d="M26,47.9v163.8c0,16.6,13.3,30,29.7,30h162c16.4,0,29.7-13.4,29.7-30V47.9c0-16.6-13.3-30-29.7-30H55.7c-16.4,0-29.7,13.4-29.7,30M225,126.8c1.6,51.7-40.2,93.9-91.3,92.3-46.3-1.5-84-39.6-85.5-86.4-1.6-51.7,40.2-93.9,91.3-92.3,46.3,1.5,84,39.6,85.5,86.4"/>
    <path class="st0" d="M138.1,107.6h-.1c-.7-9.7-8.7-17.3-18.6-17.3s-17.9,7.6-18.6,17.3h0v57.4h74.6v-57.4h0c-.7-9.7-8.7-17.3-18.6-17.3s-17.9,7.6-18.6,17.3"/>
  </g>
</svg>