<?xml version="1.0" encoding="utf-8"?>
<!-- Generator: Adobe Illustrator 25.0.0, SVG Export Plug-In . SVG Version: 6.00 Build 0)  -->
<svg version="1.1" id="Capa_1" xmlns="http://www.w3.org/2000/svg" xmlns:xlink="http://www.w3.org/1999/xlink" x="0px" y="0px"
	 viewBox="0 0 357.04 104.23" style="enable-background:new 0 0 357.04 104.23;" xml:space="preserve">
<style type="text/css">
	.st0{fill-rule:evenodd;clip-rule:evenodd;fill:#F29100;}
	.st1{clip-path:url(#SVGID_2_);fill:#E40245;}
	.st2{clip-path:url(#SVGID_2_);fill:#FFFFFF;}
	.st3{fill:#EE7D07;}
	.st4{fill:#FF6B00;}
	.st5{fill:#02509C;}
</style>
<path class="st0" d="M184.45,62.36c-0.59,0.49-1.43,1.14-2.96,1.14c-1.53,0-2.42-0.69-2.42-1.88c0-1.92,1.87-2.81,4.69-2.81h0.69
	V62.36z M194.07,68.97c-0.39-1.83-0.79-4.54-0.79-8.44v-6.76c0-7.11-3.26-9.73-10.96-9.73c-5.48,0-9.13,2.17-10.76,3.6l3.55,5.23
	c0.89-0.59,3.16-2.07,6.07-2.07c2.62,0,3.26,0.74,3.26,2.12v0.74h-0.69c-6.81,0-12.93,2.56-12.93,8.78c0,4.69,3.4,7.11,7.6,7.11
	c3.31,0,5.43-1.68,6.47-2.96c0.05,0.74,0.25,1.78,0.49,2.37H194.07z M166.58,69.52V44.64h-8.98v24.13c0,3.8-0.54,4.69-2.57,4.69
	c-0.99,0-1.73-0.25-2.07-0.34l-1.53,6.71c0.89,0.3,2.61,0.79,5.68,0.79C163.92,80.62,166.58,76.33,166.58,69.52 M167.18,37.68
	c0-2.62-2.07-4.84-5.09-4.84c-3.01,0-5.08,2.22-5.08,4.84c0,2.62,2.07,4.89,5.08,4.89C165.1,42.57,167.18,40.3,167.18,37.68
	 M144.13,62.36c-0.59,0.49-1.43,1.14-2.96,1.14c-1.53,0-2.42-0.69-2.42-1.88c0-1.92,1.88-2.81,4.69-2.81h0.69V62.36z M153.75,68.97
	c-0.39-1.83-0.79-4.54-0.79-8.44v-6.76c0-7.11-3.26-9.73-10.95-9.73c-5.48,0-9.13,2.17-10.76,3.6l3.56,5.23
	c0.89-0.59,3.16-2.07,6.07-2.07c2.62,0,3.26,0.74,3.26,2.12v0.74h-0.69c-6.81,0-12.93,2.56-12.93,8.78c0,4.69,3.41,7.11,7.6,7.11
	c3.31,0,5.43-1.68,6.47-2.96c0.05,0.74,0.25,1.78,0.49,2.37H153.75z M128.78,65.97l-3.75-6.52c-1.53,1.04-3.4,2.32-6.96,2.32
	c-5.08,0-7.65-4-7.65-9.52c0-5.28,2.71-8.98,7.55-8.98c2.91,0,4.69,0.74,6.47,1.78l4.05-6.81c-2.67-1.78-6.02-2.71-10.37-2.71
	c-11.89,0-17.67,8.04-17.67,17.03c0,8.98,5.53,17.03,17.47,17.03C122.87,69.57,127.11,67.45,128.78,65.97"/>
<path class="st0" d="M228.51,34.79h-9.87l-5.66,18.05c-0.82,2.52-1.54,5.5-1.54,5.5c-0.1,0-0.82-2.93-1.65-5.5l-5.91-18.05h-10.59
	l13.21,34.25h9.26L228.51,34.79z M334.43,62.14c-0.62,0.51-1.49,1.18-3.09,1.18c-1.59,0-2.52-0.72-2.52-1.95
	c0-2.01,1.95-2.93,4.88-2.93h0.72V62.14z M344.46,69.03c-0.41-1.9-0.82-4.73-0.82-8.79v-7.04c0-7.4-3.39-10.13-11.41-10.13
	c-5.71,0-9.51,2.26-11.21,3.75l3.7,5.45c0.93-0.62,3.29-2.16,6.32-2.16c2.73,0,3.39,0.77,3.39,2.21v0.77h-0.72
	c-7.09,0-13.47,2.67-13.47,9.15c0,4.88,3.55,7.4,7.92,7.4c3.45,0,5.66-1.75,6.74-3.08c0.05,0.77,0.26,1.85,0.51,2.47H344.46z
	 M316.97,69.03V51.5c0-4.83-2-8.43-7.71-8.43c-4.01,0-6.38,1.85-7.87,3.5v-2.88h-9.05v25.35h9.26V52.68
	c0.51-0.62,1.85-2.06,3.6-2.06c1.8,0,2.52,0.77,2.52,2.83v15.58H316.97z M287.12,43.68h-9.36v25.35h9.36V43.68z M287.74,36.43
	c0-2.73-2.16-5.04-5.3-5.04c-3.13,0-5.3,2.31-5.3,5.04c0,2.73,2.16,5.09,5.3,5.09C285.58,41.52,287.74,39.16,287.74,36.43
	 M274.65,67.59l-2.52-5.97c-0.82,0.36-2.21,1.13-4.89,1.13c-3.6,0-5.4-2.47-5.4-6.63c0-4.06,2-6.27,5.19-6.27
	c2.22,0,3.75,0.52,4.78,1.03l2.52-6.12c-1.18-0.72-3.65-1.7-7.77-1.7c-8.69,0-14.5,4.88-14.5,13.37c0,8.48,5.71,13.21,14.29,13.21
	C271.15,69.65,273.36,68.31,274.65,67.59 M234.35,53.3c0.41-2.72,1.54-3.96,3.65-3.96c2.21,0,2.98,1.64,3.03,3.96H234.35z
	 M234.66,59.26h15.17c0.93-10.49-2.98-16.2-11.72-16.2c-7.25,0-13.37,4.78-13.37,13.21c0,8.43,5.35,13.37,14.24,13.37
	c5.6,0,8.02-1.34,9.98-2.36l-2.73-5.56c-1.34,0.57-2.88,1.34-6.27,1.34C236.87,63.07,235.17,61.78,234.66,59.26"/>
<g>
	<g>
		<defs>
			<rect id="SVGID_1_" x="22.88" y="18.46" width="63.87" height="61.96"/>
		</defs>
		<clipPath id="SVGID_2_">
			<use xlink:href="#SVGID_1_"  style="overflow:visible;"/>
		</clipPath>
		<path class="st1" d="M22.88,49.62l22.77-9.59v-7.1l0.01-0.01c7.33-1.09,13.21-4.46,18.31-9.92v0.01l22.78,18.04V18.47H22.88V49.62
			z"/>
		<path class="st2" d="M45.68,70.1h18.29V23.01V23c-5.1,5.47-10.98,8.83-18.31,9.92l-0.01,0v7.1l-22.77,9.6v6.93l22.78-9.69v-6.85
			l7.31-3.1v6.85l-7.29,3.09v6.76l7.31-3.1v6.78l-7.31,3.1v-6.77l-22.8,9.69v6.77l22.8-9.7V70.1z"/>
	</g>
	<polygon class="st3" points="45.66,46.86 22.88,56.55 22.88,63.33 45.68,53.63 45.68,53.62 45.68,53.62 45.68,46.85 	"/>
	<polygon class="st3" points="22.88,70.1 22.88,70.1 45.68,70.1 45.68,60.4 	"/>
	<polygon class="st3" points="45.68,46.85 52.97,43.76 52.97,36.93 45.66,40.04 45.66,46.86 	"/>
	<path class="st4" d="M45.66,46.86l0.02-0.01L45.66,46.86z"/>
	<polygon class="st3" points="45.68,53.63 45.68,60.4 52.99,57.3 52.99,50.52 45.68,53.62 45.68,53.63 	"/>
	<polygon class="st4" points="45.68,53.62 45.68,53.63 45.69,53.63 45.69,53.62 	"/>
	<polygon class="st3" points="63.99,70.1 86.75,70.1 86.75,41.05 63.97,23.01 	"/>
	<polygon class="st4" points="63.97,70.1 63.99,70.1 63.97,23.01 	"/>
	<polygon class="st5" points="63.99,70.1 63.97,70.1 45.69,70.1 22.88,70.1 22.88,80.42 86.75,80.42 86.75,70.1 	"/>
</g>
</svg>
