<svg xmlns="http://www.w3.org/2000/svg" xmlns:xlink="http://www.w3.org/1999/xlink" viewBox="0 0 400.13 153.61"><defs><style>.cls-1{fill:none;}.cls-2{clip-path:url(#clip-path);}.cls-3{fill:url(#Degradado_sin_nombre);}</style><clipPath id="clip-path"><path class="cls-1" d="M215.05,94.65c1.56-.16,2.58.58,2.72,1.93.24,2.44-2.57,3.67-7.66,4.13.29-2.81,1.93-5.75,4.94-6.06m.33-5.54c-8.82.9-13.11,9.83-12.33,17.46.64,6.28,4.32,10.05,11.33,9.33a20.44,20.44,0,0,0,8.64-2.71L222,108a14.75,14.75,0,0,1-6.34,2.16A5.19,5.19,0,0,1,211,108.7a5.1,5.1,0,0,1-1.06-2.67c9.26-.68,15.14-3.75,14.47-10.34-.46-4-3.43-6.64-7.83-6.64-.38,0-.77,0-1.18.06M37.05,106.49l4.77-.48-1.26,6.31-4.77.49Zm8.21-16.95L43,100.18l-4.77.48L40.49,90,35,90.59l-2.25,10.64-5.59.56-.43,5.76,4.89-.5-1.38,6.33-5.53.56-.43,5.75,4.65-.47-2.23,10.87,5.6-.57,2.22-10.87,4.77-.48L37,129l5.66-.57,2.16-10.87,5.65-.57.43-5.75-4.77.48,1.32-6.32,5.42-.55.42-5.75-4.65.47L50.85,89ZM275.49,83c-3.06.31-5.54,2.71-7,6.22l-.16,0c0-1.74,0-3.36,0-4.93l-6.23.63c0,2.26,0,6.14-.32,9.74l-1.35,16.08,7.16-.73.89-10.32c.4-4.86,2.33-9,6.54-9.47a6.86,6.86,0,0,1,1.15-.07l.68-7.2h-.52a7.21,7.21,0,0,0-.79,0m8.28,15.89c-.45-4.42,2-11.43,6.71-11.91a7,7,0,0,1,1.83,0l-.68,6.72c-.45,5.87-2.67,8.77-4.75,9l-.31,0c-1.71,0-2.57-1.54-2.8-3.84m8.07-17.55c-12,1.22-16.14,11.44-15.3,19.75.52,5,3.62,8.18,7.92,7.74,2.65-.27,5.53-1.92,7.35-6.15H292c.07,1.77.08,3.4.18,4.86l6.48-.66a64.14,64.14,0,0,1-.09-11.27l1.32-13.82a25.14,25.14,0,0,0-5.48-.57,24.14,24.14,0,0,0-2.54.13m26.64-2.13-1.05,12.9c-.41,4.71-2.52,7.75-4.75,8-1.66.17-2.4-1-2.56-2.47a25,25,0,0,1,.06-3.62l1.24-14.08-7.16.73L303,95.26a24.21,24.21,0,0,0,0,4.88c.45,4.36,2.82,6.53,6.66,6.14,2.9-.3,5.62-1.94,7.69-5.29l.11,0,0,3.93,6.28-.64c.13-2.37.21-5.21.51-8.39l1.53-17.46Zm-89.13-2.27-3.28,37.3,7.16-.72,3.29-37.31Zm136.29,2.4c1.56-.16,2.58.58,2.71,1.93.25,2.44-2.56,3.67-7.65,4.13.29-2.81,1.93-5.75,4.94-6.06M366,73.8c-8.83.9-13.11,9.83-12.33,17.46.64,6.28,4.32,10,11.33,9.34a20.55,20.55,0,0,0,8.64-2.72l-1.05-5.19a14.94,14.94,0,0,1-6.34,2.17,4.55,4.55,0,0,1-5.72-4.14C369.77,90,375.65,87,375,80.39c-.46-4-3.44-6.65-7.83-6.65-.38,0-.78,0-1.18.06m-107.29-.37a10.72,10.72,0,0,0-6.76,3.1,13.76,13.76,0,0,0-3.33,8.52l-.08,1.27-3.33.34-.49,5.45,3.32-.34-1.75,20.42,7.16-.73L255.17,91l4.93-.5.45-5.45-5,.51.13-1.22c.17-2.53,1.4-4.86,3.78-5.1a5.68,5.68,0,0,1,2.33.18l.83-5.8a10.23,10.23,0,0,0-2.56-.3c-.43,0-.9,0-1.4.07m76.49,19.86c-.47-4.67,1.82-11,6.08-11.42a4,4,0,0,1,2.62.52l-.69,8.15c-.46,4.29-2.47,6.7-4.44,6.9l-.34,0c-1.78,0-2.95-1.48-3.23-4.17m10.15-28.14-1,11.48a9.19,9.19,0,0,0-3.23-.3c-9,.92-14.07,10.08-13.18,18.91.59,5.76,4,8.76,8.14,8.35a9.23,9.23,0,0,0,7.22-5.3h.11l0,4,6.38-.65a78.68,78.68,0,0,1,.24-9.51l2.43-27.73ZM21.68,77.09a16.43,16.43,0,0,1,32.69-3.32L55,79.61,22.28,82.94ZM36,55.24A20.32,20.32,0,0,0,17.83,77.48l1,9.7L59.2,83.07l-1-9.7A20.33,20.33,0,0,0,38,55.13c-.68,0-1.37,0-2.07.11m95.87-.76L133.41,70a4.77,4.77,0,0,1-.12,1.85,3.65,3.65,0,0,1-3.13,2.78c-2.54.26-3.8-1.82-4.17-5.45l-1.42-13.91L117,56,118.53,71c.76,7.53,4.32,10.52,9.4,10a8.47,8.47,0,0,0,6.88-4.58l.16,0,.7,3.29,6.54-.67c-.33-2.17-.71-4.86-1-8l-1.76-17.34Zm26.36-3.26a8.73,8.73,0,0,0-7,4.65h-.1l-.7-3.29-6.6.67c.34,2.27.71,4.86,1,7.92l1.77,17.44,7.58-.77L152.68,63a6.11,6.11,0,0,1,.11-2.1,3.83,3.83,0,0,1,3.3-3.12c2.59-.26,3.75,1.82,4,4.73l1.49,14.64,7.63-.78-1.57-15.41c-.65-6.48-3.9-9.74-8.45-9.74-.33,0-.68,0-1,0M7.73,127.2,4,90.64A1.94,1.94,0,0,1,5.78,88.5l9.12-.92-1-9.7A24.24,24.24,0,1,1,62.14,73l1,9.69,9.13-.93a2,2,0,0,1,2.14,1.77L78.12,120a9.82,9.82,0,0,1-8.75,10.73l-50.91,5.17a8.21,8.21,0,0,1-1,.05,9.82,9.82,0,0,1-9.74-8.79M35.18,47.46A28.14,28.14,0,0,0,10.06,78.27l.6,5.85-5.37.54A5.8,5.8,0,0,0,.17,91.05l3.71,36.54a13.69,13.69,0,0,0,15,12.2l50.91-5.17a13.69,13.69,0,0,0,12.21-15L78.24,83a5.8,5.8,0,0,0-6.35-5.13h0l-5.26.53L66,72.58A28.15,28.15,0,0,0,38.05,47.32a27.71,27.71,0,0,0-2.87.14m160,13.38c-.37-3.69.41-7.86,3.78-8.2,3.22-.33,4.77,3.61,5.15,7.29.44,4.31-.72,7.89-3.52,8.17a3,3,0,0,1-.42,0c-2.86,0-4.57-3.13-5-7.29m3.43-13.72c-7.27.74-12,6.2-11.09,14.66.84,8.25,6.41,12.56,13.42,11.85,5.92-.6,11.87-5,10.88-14.69-.73-7.22-5.31-11.89-11.78-11.89a14,14,0,0,0-1.43.07M104,47.61l2.3,22.68c.53,5.14-1.32,6.64-4.22,6.94a11.3,11.3,0,0,1-3.53-.17l-.15,6.26a17.05,17.05,0,0,0,5.11.21c6.9-.7,11.38-4.09,10.37-14.06l-2.3-22.63Zm118.65-2.93c-5.92.6-9.4,4.57-8.92,9.29.28,2.75,2.28,5.38,7.41,6.8,2.81.82,3.65,1.41,3.79,2.76S224.14,65.76,222,66a14,14,0,0,1-6.3-1.09l-.85,5.59a16.18,16.18,0,0,0,7.7.9c6.64-.68,10.05-4.33,9.55-9.2-.4-3.48-2.48-5.84-7.17-7.14-3-.9-3.93-1.44-4-2.63s.78-2.18,2.65-2.37a11.51,11.51,0,0,1,5.06.8l.76-5.43a14.88,14.88,0,0,0-5-.82,16,16,0,0,0-1.67.09M171.47,45l.55,5.4-3.27.33.56,5.5,3.27-.33,1.11,10.9c.37,3.68,1.33,5.89,2.93,7.2a7.82,7.82,0,0,0,5.87,1.45,15.73,15.73,0,0,0,4.76-1.12l-.69-5.75a10.42,10.42,0,0,1-2.16.43c-2,.21-3.08-.89-3.39-4l-1-9.92,5.51-.56-.56-5.5-5.51.56-.72-7.16Zm82.72-3.48c-8.72.89-13.05,7.25-12.28,14.83.82,8.1,6.19,12.43,13.87,11.65A16.69,16.69,0,0,0,262,66.32l-1.41-5.57a11,11,0,0,1-3.87,1.13c-3.63.36-6.65-2-7.12-6.57-.48-4.25,1.65-7.51,5.6-7.91a9.45,9.45,0,0,1,3.91.34l.56-5.83a13.37,13.37,0,0,0-3.75-.47,15.93,15.93,0,0,0-1.69.08m15.05,11.79c-.38-3.69.4-7.86,3.78-8.2,3.21-.33,4.77,3.61,5.14,7.29.44,4.31-.72,7.89-3.52,8.17a3,3,0,0,1-.42,0c-2.86,0-4.56-3.13-5-7.29m3.43-13.72c-7.27.74-12,6.2-11.1,14.66C262.41,62.5,268,66.81,275,66.1c5.92-.6,11.87-5,10.89-14.69-.74-7.22-5.32-11.9-11.79-11.89a13.77,13.77,0,0,0-1.42.07m29.37-3a8.73,8.73,0,0,0-7,4.64H295l-.7-3.28-6.6.67c.34,2.27.71,4.86,1,7.92L290.46,64l7.58-.77-1.52-14.9a6.09,6.09,0,0,1,.11-2.1,3.83,3.83,0,0,1,3.3-3.12c2.59-.26,3.75,1.82,4,4.73l1.49,14.64,7.63-.78-1.57-15.42c-.65-6.47-3.9-9.73-8.45-9.73-.33,0-.68,0-1,.05m42.62-4.33a7.09,7.09,0,0,0-5.83,5.57l-.15,0-.76-4.33-6.54.67c.39,2.21.7,4.75,1,8.12l1.75,17.24,7.58-.77-1.31-12.88a10,10,0,0,1,0-2,4.85,4.85,0,0,1,4.64-4.4,9.82,9.82,0,0,1,1.93,0l-.73-7.22c-.27,0-.5,0-.76,0a7.58,7.58,0,0,0-.87.05m11.17,17c-.32-3.22,2.8-4.48,6.38-4.84l.34,3.32a4.8,4.8,0,0,1,0,1.26,3.92,3.92,0,0,1-3.41,3.07,2.75,2.75,0,0,1-.4,0,2.79,2.79,0,0,1-2.88-2.83M357.69,31a19.61,19.61,0,0,0-9.07,3.12l1.91,4.79a12.92,12.92,0,0,1,6.25-2.42c3.48-.35,4.49,1.33,4.65,2.88l0,.42c-8,.81-13.6,4.42-12.93,11.07a7.56,7.56,0,0,0,8.52,6.94A8.39,8.39,0,0,0,363.55,54l.16,0,.67,2.51,6.8-.7a40.33,40.33,0,0,1-1-6l-.92-9c-.54-5.28-3-9.88-9.83-9.88a15.58,15.58,0,0,0-1.76.1m-42.38-.57.55,5.39-3.27.34.56,5.5,3.27-.33,1.11,10.9c.37,3.68,1.33,5.89,2.93,7.2a7.82,7.82,0,0,0,5.87,1.45,16,16,0,0,0,4.76-1.12L330.4,54a10.42,10.42,0,0,1-2.16.43c-2,.21-3.08-.89-3.39-4l-1-9.92,5.51-.56-.56-5.5-5.51.56-.72-7.16ZM31.46,36.27l.69,6.83L36,42.71l-.3-3L384.75,4.24l11.14,109.64-349,35.49-.52-5.12-3.85.4.91,9,356.75-36.27L388.21,0Z"/></clipPath><linearGradient id="Degradado_sin_nombre" x1="-691.98" y1="661.95" x2="-691.66" y2="661.95" gradientTransform="matrix(1262.53, 0, 0, -1262.53, 873640.95, 835803.09)" gradientUnits="userSpaceOnUse"><stop offset="0" stop-color="#f2ab1b"/><stop offset="1" stop-color="#f03d02"/></linearGradient></defs><title>JCEF400_1</title><g id="Capa_2" data-name="Capa 2"><g id="Capa_1-2" data-name="Capa 1"><g class="cls-2"><rect class="cls-3" width="400.13" height="153.61"/></g></g></g></svg>