<?xml version="1.0" encoding="utf-8"?>
<!-- Generator: Adobe Illustrator 25.0.0, SVG Export Plug-In . SVG Version: 6.00 Build 0)  -->
<svg version="1.1" id="Capa_1" xmlns="http://www.w3.org/2000/svg" xmlns:xlink="http://www.w3.org/1999/xlink" x="0px" y="0px"
	 viewBox="0 0 198 62.5" style="enable-background:new 0 0 198 62.5;" xml:space="preserve">
<style type="text/css">
	.st0{fill:#CA1336;}
	.st1{fill:#A31232;}
	.st2{fill:#005598;}
	.st3{fill:#FFFFFF;}
	.st4{fill:#E2831F;}
	.st5{fill:#2B3B42;}
</style>
<g>
	<path class="st0" d="M60.41,47.74V14c0-1.86-0.75-3.56-1.95-4.81c-0.28,0.84-0.55,1.68-0.84,2.52
		c-3.45,10.04-6.9,20.07-10.36,30.11c-1.45,4.22-2.91,8.45-4.36,12.67c-0.01,0.05-0.03,0.09-0.07,0.18H19.36
		c0.12,0.01,0.25,0.02,0.37,0.02h33.74C57.28,54.68,60.41,51.56,60.41,47.74"/>
	<path class="st0" d="M57.55,9.61c0.11-0.06,0.24-0.12,0.36-0.17l0.01-0.02l0.02,0.01c0.03-0.02,0.07-0.04,0.1-0.06
		c0.09-0.05,0.18-0.1,0.26-0.15c-0.01,0.02-0.02,0.05-0.03,0.07c0.01-0.02,0.02-0.05,0.03-0.07c0.03-0.03,0.06-0.06,0.08-0.1
		c-1.26-1.27-3-2.06-4.92-2.06H19.73c-3.53,0-6.47,2.68-6.89,6.11l0.06,8.89v12.52c0.13-0.05,0.26-0.08,0.38-0.14
		C28.04,26.16,42.79,17.89,57.55,9.61"/>
	<path class="st1" d="M27.65,46.18c-0.13-0.07-0.27-0.14-0.4-0.2c0.02-0.05,0.03-0.11,0.05-0.17c-0.02,0.05-0.03,0.11-0.05,0.17
		C27.38,46.04,27.51,46.11,27.65,46.18"/>
	<path class="st2" d="M42.51,54.5c-3.44-1.93-6.87-3.85-10.31-5.78c-0.11-0.06-0.24-0.1-0.36-0.15c-1.28,1.45-2.56,2.89-3.85,4.33
		c-0.27,0.3-0.54,0.6-0.82,0.89c-0.07-0.11-0.17-0.21-0.22-0.34c-1.72-3.85-3.43-7.69-5.15-11.54c-0.12-0.26-0.23-0.53-0.34-0.79
		c-1.48-1.11-2.95-2.22-4.43-3.33c-1.29-0.97-2.58-1.93-3.87-2.89c-0.09-0.07-0.19-0.12-0.28-0.18v14.24
		c0.56,3.12,3.22,5.53,6.46,5.7h23.47C42.72,54.61,42.62,54.56,42.51,54.5"/>
	<path class="st3" d="M58.27,9.29c-0.03,0.06-0.05,0.13-0.09,0.18c-0.48,0.57-0.96,1.13-1.44,1.7c-1.12,1.3-2.24,2.61-3.35,3.91
		c-0.94,1.1-1.88,2.21-2.82,3.31c-1,1.17-2.01,2.35-3.01,3.52c-0.8,0.94-1.59,1.88-2.38,2.82c-0.97,1.14-1.94,2.28-2.91,3.42
		c-0.93,1.09-1.85,2.17-2.77,3.26c-0.87,1.03-1.74,2.05-2.61,3.08c-0.96,1.12-1.91,2.24-2.87,3.37c-0.96,1.13-1.93,2.26-2.89,3.39
		c-0.84,0.99-1.68,1.98-2.52,2.98c-0.4,0.48-0.81,0.95-1.21,1.44c-0.03,0.04-0.05,0.09-0.07,0.15c-0.02,0.06-0.03,0.11-0.05,0.17
		c0.13,0.07,0.27,0.14,0.4,0.2c0.13,0.07,0.27,0.14,0.4,0.21c1.16,0.65,2.32,1.3,3.48,1.95c0.11,0.06,0.22,0.15,0.32,0.23
		c0.12,0.05,0.25,0.09,0.36,0.15c3.44,1.92,6.87,3.85,10.31,5.78c0.1,0.06,0.21,0.11,0.32,0.16c0.03-0.09,0.05-0.13,0.07-0.18
		c1.45-4.22,2.91-8.45,4.36-12.67c3.45-10.04,6.9-20.07,10.36-30.11c0.29-0.84,0.56-1.68,0.84-2.52c-0.02-0.03-0.04-0.05-0.07-0.08
		c-0.03,0.03-0.06,0.06-0.08,0.1C58.29,9.24,58.28,9.26,58.27,9.29"/>
	<path class="st3" d="M17.04,37.8c1.48,1.11,2.95,2.22,4.43,3.33c0.35-0.33,0.69-0.67,1.04-0.98c1.33-1.16,2.66-2.31,3.99-3.46
		c1.57-1.35,3.14-2.69,4.7-4.05c1.32-1.14,2.62-2.29,3.93-3.43c1.15-1,2.32-1.97,3.47-2.97c1.05-0.91,2.08-1.84,3.13-2.75
		c0.86-0.74,1.74-1.46,2.6-2.2c1.09-0.93,2.16-1.88,3.24-2.82c1.49-1.29,3-2.58,4.49-3.87c1.9-1.65,3.79-3.3,5.69-4.95
		c0.06-0.05,0.1-0.15,0.14-0.22c-0.12,0.06-0.24,0.11-0.36,0.17c-14.76,8.28-29.51,16.55-44.27,24.83c-0.12,0.07-0.26,0.1-0.38,0.14
		v0.15c0.09,0.06,0.19,0.11,0.28,0.18C14.47,35.87,15.75,36.84,17.04,37.8"/>
	<path class="st4" d="M27.25,45.97c0.02-0.05,0.03-0.11,0.05-0.17c0.02-0.06,0.04-0.11,0.07-0.15c0.4-0.49,0.81-0.96,1.21-1.44
		c0.84-0.99,1.68-1.98,2.52-2.98c0.96-1.13,1.93-2.26,2.89-3.39c0.96-1.12,1.91-2.24,2.87-3.37c0.87-1.02,1.74-2.05,2.61-3.08
		c0.93-1.09,1.85-2.18,2.78-3.26c0.97-1.14,1.94-2.28,2.91-3.42c0.8-0.94,1.59-1.88,2.38-2.82c1-1.18,2-2.35,3.01-3.52
		c0.94-1.1,1.88-2.21,2.82-3.31c1.12-1.3,2.24-2.61,3.35-3.91c0.48-0.56,0.97-1.13,1.45-1.7c0.04-0.05,0.07-0.11,0.09-0.17
		c0.01-0.02,0.02-0.05,0.03-0.07c-0.09,0.05-0.18,0.1-0.26,0.15c-0.03,0.02-0.07,0.04-0.1,0.06l-0.02-0.01l-0.01,0.01
		c-0.05,0.08-0.08,0.17-0.14,0.22c-1.89,1.65-3.79,3.3-5.69,4.95c-1.49,1.29-3,2.58-4.49,3.87c-1.08,0.94-2.16,1.89-3.24,2.82
		c-0.86,0.74-1.74,1.46-2.6,2.2c-1.05,0.91-2.08,1.84-3.13,2.75c-1.15,1-2.32,1.97-3.47,2.97c-1.31,1.14-2.62,2.29-3.93,3.43
		c-1.56,1.35-3.13,2.7-4.7,4.05c-1.33,1.15-2.67,2.3-3.99,3.46c-0.36,0.31-0.7,0.65-1.04,0.98c0.11,0.26,0.22,0.53,0.34,0.79
		c1.72,3.85,3.43,7.7,5.15,11.54c0.06,0.12,0.15,0.23,0.22,0.34c0-2.52,0-5.04,0-7.56C27.18,46.15,27.22,46.06,27.25,45.97"/>
	<path class="st0" d="M28.04,46.39c-0.13-0.07-0.26-0.14-0.4-0.21c-0.13-0.07-0.27-0.14-0.4-0.2c-0.02,0.09-0.06,0.18-0.06,0.27
		c0,2.52,0,5.04,0.01,7.56c0.27-0.3,0.55-0.59,0.82-0.89c1.28-1.44,2.56-2.89,3.85-4.33c-0.11-0.08-0.21-0.17-0.33-0.23
		C30.36,47.69,29.2,47.04,28.04,46.39"/>
	<path class="st5" d="M114.56,50.03v-0.02c0-1.13-0.8-1.87-1.69-1.87c-0.92,0-1.68,0.71-1.68,1.87v0.02c0,1.13,0.77,1.87,1.68,1.87
		C113.76,51.9,114.56,51.15,114.56,50.03 M109.83,50.03v-0.02c0-1.93,1.32-3.03,2.71-3.03c0.96,0,1.57,0.48,1.99,1.03v-3.14h1.34
		v8.07h-1.34v-0.97c-0.43,0.61-1.04,1.09-1.99,1.09C111.17,53.06,109.83,51.97,109.83,50.03"/>
	<path class="st5" d="M120.89,49.61c-0.09-0.86-0.6-1.54-1.48-1.54c-0.82,0-1.39,0.63-1.51,1.54H120.89z M116.57,50.04v-0.02
		c0-1.67,1.18-3.04,2.85-3.04c1.86,0,2.8,1.46,2.8,3.14c0,0.12-0.01,0.24-0.02,0.38h-4.29c0.14,0.95,0.82,1.48,1.68,1.48
		c0.65,0,1.12-0.24,1.58-0.7l0.79,0.7c-0.55,0.66-1.32,1.1-2.39,1.1C117.87,53.07,116.57,51.85,116.57,50.04"/>
	<path class="st5" d="M129.2,49.61h-2.15v2.12h2.26c0.93,0,1.49-0.36,1.49-1.06v-0.02C130.8,50,130.28,49.61,129.2,49.61
		 M130.36,47.39c0-0.61-0.49-0.98-1.36-0.98h-1.96v2.06h1.86c0.87,0,1.46-0.34,1.46-1.05V47.39z M125.71,45.2h3.47
		c0.88,0,1.58,0.24,2.02,0.69c0.34,0.34,0.52,0.76,0.52,1.28v0.02c0,0.93-0.53,1.43-1.11,1.73c0.91,0.31,1.54,0.83,1.54,1.88v0.02
		c0,1.38-1.14,2.12-2.86,2.12h-3.58V45.2z"/>
	<path class="st5" d="M136.49,50.84v-0.4c-0.34-0.13-0.8-0.23-1.33-0.23c-0.86,0-1.37,0.36-1.37,0.97v0.02
		c0,0.56,0.5,0.88,1.14,0.88C135.82,52.09,136.49,51.58,136.49,50.84 M132.49,51.26v-0.02c0-1.26,0.98-1.88,2.41-1.88
		c0.65,0,1.12,0.1,1.57,0.24v-0.14c0-0.83-0.51-1.27-1.45-1.27c-0.65,0-1.14,0.14-1.67,0.36L133,47.5c0.64-0.29,1.27-0.48,2.2-0.48
		c0.87,0,1.52,0.23,1.93,0.65c0.43,0.42,0.63,1.04,0.63,1.8v3.46h-1.3v-0.73c-0.4,0.48-1.01,0.85-1.9,0.85
		C133.46,53.06,132.49,52.43,132.49,51.26"/>
	<path class="st5" d="M138.7,47.1h1.34V48c0.38-0.54,0.92-1.02,1.82-1.02c1.32,0,2.08,0.88,2.08,2.23v3.73h-1.34v-3.32
		c0-0.91-0.45-1.43-1.25-1.43c-0.77,0-1.32,0.54-1.32,1.45v3.29h-1.34V47.1z"/>
	<path class="st5" d="M144.57,50.06v-0.02c0-1.66,1.28-3.05,3.04-3.05c1.09,0,1.78,0.41,2.33,1.01l-0.84,0.9
		c-0.41-0.43-0.84-0.73-1.5-0.73c-0.97,0-1.69,0.84-1.69,1.86v0.02c0,1.04,0.72,1.87,1.75,1.87c0.63,0,1.1-0.29,1.51-0.72l0.81,0.8
		c-0.57,0.64-1.25,1.09-2.39,1.09C145.85,53.07,144.57,51.71,144.57,50.06"/>
	<path class="st5" d="M154.94,50.06v-0.02c0-1.03-0.74-1.88-1.79-1.88c-1.07,0-1.76,0.84-1.76,1.86v0.02c0,1.02,0.74,1.87,1.78,1.87
		C154.26,51.9,154.94,51.06,154.94,50.06 M150.06,50.06v-0.02c0-1.67,1.33-3.05,3.12-3.05c1.79,0,3.11,1.36,3.11,3.03v0.02
		c0,1.66-1.33,3.04-3.13,3.04C151.37,53.07,150.06,51.71,150.06,50.06"/>
	<polygon class="st5" points="157.13,45.2 162.87,45.2 162.87,46.42 158.49,46.42 158.49,48.43 162.37,48.43 162.37,49.65 
		158.49,49.65 158.49,51.72 162.93,51.72 162.93,52.94 157.13,52.94 	"/>
	<path class="st5" d="M163.24,52.18l0.6-0.91c0.64,0.48,1.32,0.72,1.91,0.72c0.57,0,0.91-0.24,0.91-0.63v-0.02
		c0-0.45-0.62-0.61-1.3-0.82c-0.86-0.24-1.82-0.6-1.82-1.71v-0.02c0-1.11,0.92-1.78,2.08-1.78c0.73,0,1.53,0.25,2.15,0.66
		l-0.53,0.95c-0.56-0.34-1.16-0.55-1.65-0.55c-0.52,0-0.82,0.24-0.82,0.57v0.02c0,0.43,0.63,0.61,1.32,0.83
		c0.85,0.27,1.81,0.65,1.81,1.7v0.02c0,1.23-0.95,1.83-2.17,1.83C164.89,53.05,163.97,52.75,163.24,52.18"/>
	<path class="st5" d="M168.76,51.33v-3.07h-0.74V47.1h0.74v-1.6h1.34v1.6h1.57v1.15h-1.57v2.86c0,0.52,0.27,0.73,0.72,0.73
		c0.3,0,0.56-0.07,0.83-0.2v1.09c-0.33,0.19-0.7,0.3-1.2,0.3C169.46,53.04,168.76,52.61,168.76,51.33"/>
	<path class="st5" d="M175.98,50.84v-0.4c-0.34-0.13-0.8-0.23-1.33-0.23c-0.86,0-1.37,0.36-1.37,0.97v0.02
		c0,0.56,0.5,0.88,1.14,0.88C175.31,52.09,175.98,51.58,175.98,50.84 M171.98,51.26v-0.02c0-1.26,0.98-1.88,2.41-1.88
		c0.65,0,1.12,0.1,1.57,0.24v-0.14c0-0.83-0.51-1.27-1.45-1.27c-0.65,0-1.14,0.14-1.67,0.36l-0.35-1.05
		c0.64-0.29,1.27-0.48,2.2-0.48c0.87,0,1.52,0.23,1.93,0.65c0.43,0.42,0.63,1.04,0.63,1.8v3.46h-1.31v-0.73
		c-0.4,0.48-1.01,0.85-1.9,0.85C172.95,53.06,171.98,52.43,171.98,51.26"/>
	<path class="st5" d="M182.62,50.03v-0.02c0-1.13-0.8-1.87-1.69-1.87c-0.92,0-1.68,0.71-1.68,1.87v0.02c0,1.13,0.77,1.87,1.68,1.87
		C181.82,51.9,182.62,51.15,182.62,50.03 M177.89,50.03v-0.02c0-1.93,1.32-3.03,2.71-3.03c0.96,0,1.57,0.48,1.99,1.03v-3.14h1.34
		v8.07h-1.34v-0.97c-0.43,0.61-1.04,1.09-1.99,1.09C179.23,53.06,177.89,51.97,177.89,50.03"/>
	<path class="st5" d="M189.51,50.06v-0.02c0-1.03-0.74-1.88-1.79-1.88c-1.07,0-1.76,0.84-1.76,1.86v0.02c0,1.02,0.74,1.87,1.78,1.87
		C188.83,51.9,189.51,51.06,189.51,50.06 M184.63,50.06v-0.02c0-1.67,1.33-3.05,3.12-3.05c1.79,0,3.11,1.36,3.11,3.03v0.02
		c0,1.66-1.33,3.04-3.13,3.04C185.94,53.07,184.63,51.71,184.63,50.06"/>
	<polygon class="st5" points="80.87,34.77 80.87,37.76 67.48,37.76 67.48,18.57 80.51,18.57 80.51,21.56 70.8,21.56 70.8,26.54 
		79.42,26.54 79.42,29.48 70.8,29.48 70.8,34.77 	"/>
	<path class="st5" d="M105.32,29.37v8.39h-3.19v-7.95c0-2.6-1.12-3.86-3.06-3.86c-2.09,0-3.55,1.48-3.55,4.39v7.43h-3.19v-7.95
		c0-2.6-1.12-3.86-3.06-3.86c-2.12,0-3.54,1.48-3.54,4.39v7.43h-3.19V23.12h3.04v1.86c1.02-1.31,2.6-2.03,4.46-2.03
		c1.99,0,3.65,0.79,4.59,2.44c1.1-1.51,2.93-2.44,5.1-2.44C103.03,22.96,105.32,24.96,105.32,29.37"/>
	<path class="st5" d="M118.91,30.44c0-2.79-1.74-4.58-4.03-4.58c-2.3,0-4.05,1.78-4.05,4.58c0,2.8,1.76,4.58,4.05,4.58
		C117.17,35.02,118.91,33.23,118.91,30.44 M122.15,30.44c0,4.55-2.93,7.51-6.91,7.51c-1.73,0-3.26-0.63-4.36-1.97v7.1h-3.19V23.12
		h3.03v1.92c1.07-1.4,2.65-2.08,4.51-2.08C119.21,22.95,122.15,25.92,122.15,30.44"/>
	<path class="st5" d="M131.35,22.95v3.26c-0.28-0.05-0.51-0.08-0.74-0.08c-2.42,0-3.95,1.54-3.95,4.52v7.1h-3.19V23.12h3.04v2.14
		C127.42,23.72,129.08,22.95,131.35,22.95"/>
	<path class="st5" d="M134.26,29.26h7.73c-0.26-2.11-1.76-3.56-3.85-3.56C136.07,25.7,134.56,27.12,134.26,29.26 M144.96,31.53
		h-10.68c0.38,2.14,2.04,3.51,4.41,3.51c1.53,0,2.73-0.52,3.7-1.59l1.71,2.11c-1.23,1.56-3.14,2.38-5.48,2.38
		c-4.56,0-7.52-3.15-7.52-7.51c0-4.36,2.98-7.48,7.04-7.48c3.98,0,6.88,2.99,6.88,7.57C145.02,30.79,144.99,31.21,144.96,31.53"/>
	<path class="st5" d="M159.78,29.37v8.39h-3.19v-7.95c0-2.6-1.2-3.86-3.24-3.86c-2.27,0-3.8,1.48-3.8,4.41v7.4h-3.19V23.12h3.04
		v1.89c1.05-1.34,2.7-2.06,4.69-2.06C157.36,22.96,159.78,24.96,159.78,29.37"/>
	<path class="st5" d="M172.45,30.44c0-2.79-1.76-4.58-4.05-4.58c-2.29,0-4.05,1.78-4.05,4.58c0,2.8,1.76,4.58,4.05,4.58
		C170.69,35.02,172.45,33.23,172.45,30.44 M175.58,17.42v20.34h-3.06v-1.89c-1.07,1.4-2.65,2.08-4.51,2.08
		c-3.95,0-6.88-2.96-6.88-7.51c0-4.55,2.93-7.48,6.88-7.48c1.76,0,3.31,0.63,4.38,1.97v-7.51H175.58z"/>
	<path class="st5" d="M180.1,29.26h7.73c-0.25-2.11-1.76-3.56-3.85-3.56C181.91,25.7,180.4,27.12,180.1,29.26 M190.81,31.53h-10.68
		c0.38,2.14,2.04,3.51,4.41,3.51c1.53,0,2.73-0.52,3.7-1.59l1.71,2.11c-1.22,1.56-3.14,2.38-5.48,2.38c-4.57,0-7.52-3.15-7.52-7.51
		c0-4.36,2.98-7.48,7.04-7.48c3.98,0,6.89,2.99,6.89,7.57C190.86,30.79,190.83,31.21,190.81,31.53"/>
</g>
</svg>
